<?xml version="1.0" encoding="utf-8"?>
<svg xmlns="http://www.w3.org/2000/svg">
<symbol id="access-unlock" viewBox="0 0 100.000000 100.000000">

<g transform="translate(0.000000,100.000000) scale(0.100000,-0.100000)" fill="currentColor" stroke="none">
<path d="M420 991 c-86 -28 -176 -106 -206 -176 -21 -52 -18 -65 15 -65 22 0
31 6 37 23 15 48 63 104 116 132 129 71 284 15 347 -125 16 -34 21 -66 21
-132 l0 -87 58 -3 57 -3 3 -247 2 -248 -370 0 -370 0 2 248 3 247 278 3 278 2
-3 33 -3 32 -265 3 c-236 2 -269 0 -300 -15 -58 -30 -60 -40 -60 -340 l0 -273
440 0 441 0 -3 284 c-3 283 -3 285 -27 310 -13 14 -40 27 -62 31 l-39 7 0 57
c0 80 -24 142 -77 201 -63 70 -129 102 -218 106 -38 2 -81 0 -95 -5z"/>
<path d="M442 483 c-91 -45 -82 -192 14 -223 19 -7 47 -10 60 -7 22 4 31 -4
61 -49 30 -45 38 -52 54 -44 31 17 31 29 -2 76 -30 45 -31 49 -19 83 26 71 11
124 -47 162 -34 23 -77 24 -121 2z m98 -63 c40 -40 13 -110 -42 -110 -26 0
-58 36 -58 65 0 30 32 65 60 65 11 0 29 -9 40 -20z"/>
</g>

</symbol>
</svg>