<?xml version="1.0" encoding="utf-8"?>
<svg xmlns="http://www.w3.org/2000/svg">
<symbol id="access" viewBox="0 0 14 14">
  <path d="M13.75 8.28516C13.75 11.0414 11.5062 13.2852 8.75 13.2852C7.4875 13.2852 6.3375 12.8102 5.45625 12.0352H2.5C1.78125 12.0352 1.25 11.5039 1.25 10.7852V5.16016C1.25 4.46016 1.80625 3.93516 2.5 3.91016V3.59766C2.5 2.04141 3.75625 0.785156 5.3125 0.785156C6.775 0.785156 7.9625 1.90391 8.1 3.33516C8.3125 3.30391 8.53125 3.28516 8.75 3.28516C11.5062 3.28516 13.75 5.52891 13.75 8.28516ZM3.75 3.91016H6.875V3.44766C6.8 2.65391 6.125 2.03516 5.3125 2.03516C4.45 2.03516 3.75 2.73516 3.75 3.59766V3.91016ZM12.5 8.28516C12.5 6.21641 10.8187 4.53516 8.75 4.53516C6.68125 4.53516 5 6.21641 5 8.28516C5 10.3539 6.68125 12.0352 8.75 12.0352C10.8187 12.0352 12.5 10.3539 12.5 8.28516Z" fill="currentColor"/>
  <circle cx="8.75" cy="8.28516" r="5" fill="white"/>
  <path d="M8.75 4.53516C6.68 4.53516 5 6.21516 5 8.28516C5 10.3552 6.68 12.0352 8.75 12.0352C10.82 12.0352 12.5 10.3552 12.5 8.28516C12.5 6.21516 10.82 4.53516 8.75 4.53516ZM9.125 10.9102H8.375V10.1602H9.125V10.9102ZM9.90125 8.00391L9.56375 8.34891C9.29375 8.62266 9.125 8.84766 9.125 9.41016H8.375V9.22266C8.375 8.81016 8.54375 8.43516 8.81375 8.16141L9.27875 7.68891C9.4175 7.55391 9.5 7.36641 9.5 7.16016C9.5 6.74766 9.1625 6.41016 8.75 6.41016C8.3375 6.41016 8 6.74766 8 7.16016H7.25C7.25 6.33141 7.92125 5.66016 8.75 5.66016C9.57875 5.66016 10.25 6.33141 10.25 7.16016C10.25 7.49016 10.115 7.79016 9.90125 8.00391Z" fill="currentColor"/>

</symbol>
</svg>