<?xml version="1.0" encoding="utf-8"?>
<svg xmlns="http://www.w3.org/2000/svg">
    <symbol fill="none" xmlns="http://www.w3.org/2000/svg" viewBox="0 0 24 24" id="access-menu">
    <path fill-rule="evenodd" clip-rule="evenodd" d="M11.853 0C9.372 0 7.353 2.019 7.353 4.5C7.353 6.981 9.372 9 11.853 9C14.334 9 16.353 6.981 16.353 4.5C16.353 2.019 14.3355 0 11.853 0ZM11.853 7.5C10.1985 7.5 8.853 6.1545 8.853 4.5C8.853 2.8455 10.1985 1.5 11.853 1.5C13.5075 1.5 14.853 2.8455 14.853 4.5C14.853 6.1545 13.5075 7.5 11.853 7.5ZM1.5 13.5C1.5 15.981 3.519 18 6 18C8.481 18 10.5 15.981 10.5 13.5C10.5 11.019 8.481 9 6 9C3.519 9 1.5 11.019 1.5 13.5ZM9 13.5C9 15.1545 7.6545 16.5 6 16.5C4.3455 16.5 3 15.1545 3 13.5C3 11.8455 4.3455 10.5 6 10.5C7.6545 10.5 9 11.8455 9 13.5ZM0.75 21.75V24H2.25V21.75C2.25 21.3435 2.496 21 2.7855 21H9.213C9.504 21 9.75 21.3435 9.75 21.75V24H11.25V21.75C11.25 20.5095 10.3365 19.5 9.2145 19.5H2.7855C1.6635 19.5 0.75 20.5095 0.75 21.75ZM23.25 24V21.75C23.25 20.5095 22.3365 19.5 21.2145 19.5H14.7855C13.6635 19.5 12.75 20.5095 12.75 21.75V24H14.25V21.75C14.25 21.3435 14.496 21 14.7855 21H21.213C21.5025 21 21.7485 21.3435 21.7485 21.75V24H23.25ZM13.5 13.5C13.5 11.019 15.519 9 18 9C20.481 9 22.5 11.019 22.5 13.5C22.5 15.981 20.481 18 18 18C15.519 18 13.5 15.981 13.5 13.5ZM15 13.5C15 15.1545 16.3455 16.5 18 16.5C19.6545 16.5 21 15.1545 21 13.5C21 11.8455 19.6545 10.5 18 10.5C16.3455 10.5 15 11.8455 15 13.5Z" fill="currentColor"></path>
    <mask id="mask0_5199_84381" maskUnits="userSpaceOnUse" x="0" y="0" width="24" height="24">
      <path fill-rule="evenodd" clip-rule="evenodd" d="M11.853 0C9.372 0 7.353 2.019 7.353 4.5C7.353 6.981 9.372 9 11.853 9C14.334 9 16.353 6.981 16.353 4.5C16.353 2.019 14.3355 0 11.853 0ZM11.853 7.5C10.1985 7.5 8.853 6.1545 8.853 4.5C8.853 2.8455 10.1985 1.5 11.853 1.5C13.5075 1.5 14.853 2.8455 14.853 4.5C14.853 6.1545 13.5075 7.5 11.853 7.5ZM1.5 13.5C1.5 15.981 3.519 18 6 18C8.481 18 10.5 15.981 10.5 13.5C10.5 11.019 8.481 9 6 9C3.519 9 1.5 11.019 1.5 13.5ZM9 13.5C9 15.1545 7.6545 16.5 6 16.5C4.3455 16.5 3 15.1545 3 13.5C3 11.8455 4.3455 10.5 6 10.5C7.6545 10.5 9 11.8455 9 13.5ZM0.75 21.75V24H2.25V21.75C2.25 21.3435 2.496 21 2.7855 21H9.213C9.504 21 9.75 21.3435 9.75 21.75V24H11.25V21.75C11.25 20.5095 10.3365 19.5 9.2145 19.5H2.7855C1.6635 19.5 0.75 20.5095 0.75 21.75ZM23.25 24V21.75C23.25 20.5095 22.3365 19.5 21.2145 19.5H14.7855C13.6635 19.5 12.75 20.5095 12.75 21.75V24H14.25V21.75C14.25 21.3435 14.496 21 14.7855 21H21.213C21.5025 21 21.7485 21.3435 21.7485 21.75V24H23.25ZM13.5 13.5C13.5 11.019 15.519 9 18 9C20.481 9 22.5 11.019 22.5 13.5C22.5 15.981 20.481 18 18 18C15.519 18 13.5 15.981 13.5 13.5ZM15 13.5C15 15.1545 16.3455 16.5 18 16.5C19.6545 16.5 21 15.1545 21 13.5C21 11.8455 19.6545 10.5 18 10.5C16.3455 10.5 15 11.8455 15 13.5Z" fill="white"></path>
    </mask>
    <g mask="url(#mask0_5199_84381)">
    </g>
  </symbol>
  </svg>