<?xml version="1.0" encoding="utf-8"?>
<svg xmlns="http://www.w3.org/2000/svg">
<symbol id="add-domain" viewBox="0 0 28 28">
<g id="svgg">
<path fill-rule="evenodd" clip-rule="evenodd" d="M14 28C21.7192 28 28 21.7192 28 14C28 6.28075 21.7192 0 14 0C6.28075 0 0 6.28075 0 14C0 21.7192 6.28075 28 14 28ZM14 1.75C20.755 1.75 26.25 7.24675 26.25 14C26.25 20.7533 20.755 26.25 14 26.25C7.245 26.25 1.75 20.7533 1.75 14C1.75 7.24675 7.245 1.75 14 1.75ZM14.8752 20.1864H13.1252V14.8752H7.81219V13.1252H13.1252V7.8139H14.8752V13.1252H20.1882V14.8752H14.8752V20.1864Z" fill="currentColor"/>
</g>
</symbol>
</svg>