<?xml version="1.0" encoding="utf-8"?>
<svg xmlns="http://www.w3.org/2000/svg">
  <symbol version="1.1" xmlns:xlink="http://www.w3.org/1999/xlink" xmlns="http://www.w3.org/2000/svg" viewBox="0 0 30 30" id="avatar">
    <g transform="matrix(1 0 0 1 -136 -273 )">
      <path d="M 9.174107142857144 1.188616071428571  C 11.026785714285715 0.396205357142857  12.96875 0  15 0  C 17.03125 0  18.97321428571429 0.396205357142857  20.825892857142858 1.188616071428571  C 22.67857142857143 1.981026785714285  24.27455357142857 3.046875  25.61383928571429 4.386160714285713  C 26.953125000000004 5.725446428571429  28.01897321428572 7.3214285714285685  28.81138392857143 9.174107142857142  C 29.603794642857146 11.026785714285712  30 12.968749999999998  30 15  C 30 17.020089285714285  29.60658482142857 18.956473214285715  28.81975446428571 20.809151785714285  C 28.032924107142858 22.66183035714286  26.96986607142857 24.2578125  25.630580357142858 25.597098214285715  C 24.291294642857142 26.93638392857143  22.695312500000004 28.00502232142857  20.84263392857143 28.803013392857142  C 18.989955357142858 29.601004464285715  17.04241071428571 30  15 30  C 12.957589285714285 30  11.010044642857144 29.603794642857142  9.157366071428571 28.81138392857143  C 7.3046875 28.018973214285715  5.7114955357142865 26.95033482142857  4.377790178571428 25.60546875  C 3.044084821428571 24.260602678571427  1.9810267857142858 22.664620535714285  1.1886160714285714 20.81752232142857  C 0.3962053571428571 18.970424107142854  0 17.031249999999996  0 15  C 0 12.968749999999998  0.3962053571428571 11.026785714285712  1.1886160714285714 9.174107142857142  C 1.9810267857142858 7.3214285714285685  3.046875 5.725446428571429  4.386160714285714 4.386160714285713  C 5.725446428571428 3.046875  7.321428571428572 1.981026785714285  9.174107142857144 1.188616071428571  Z M 20.239955357142858 17.142857142857142  C 22.91852678571429 17.142857142857142  24.62611607142857 18.96763392857143  25.36272321428571 22.6171875  C 27.025669642857146 20.329241071428573  27.857142857142858 17.79017857142857  27.857142857142858 15  C 27.857142857142858 13.258928571428571  27.516741071428573 11.59598214285714  26.8359375 10.011160714285714  C 26.15513392857143 8.426339285714285  25.239955357142865 7.059151785714283  24.09040178571429 5.909598214285713  C 22.94084821428572 4.760044642857143  21.573660714285715 3.84486607142857  19.98883928571429 3.1640625  C 18.404017857142858 2.483258928571427  16.74107142857143 2.142857142857142  15 2.142857142857142  C 13.258928571428571 2.142857142857142  11.595982142857144 2.483258928571427  10.011160714285715 3.1640625  C 8.426339285714286 3.84486607142857  7.0591517857142865 4.760044642857143  5.909598214285714 5.909598214285713  C 4.760044642857144 7.059151785714283  3.8448660714285716 8.426339285714285  3.1640625 10.011160714285714  C 2.483258928571429 11.59598214285714  2.142857142857143 13.258928571428571  2.142857142857143 15  C 2.142857142857143 17.79017857142857  2.974330357142857 20.329241071428573  4.637276785714286 22.6171875  C 5.373883928571428 18.96763392857143  7.081473214285714 17.142857142857142  9.760044642857144 17.142857142857142  C 11.222098214285715 18.571428571428573  12.96875 19.285714285714285  15 19.285714285714285  C 17.03125 19.285714285714285  18.777901785714285 18.571428571428573  20.239955357142858 17.142857142857142  Z M 19.545200892857142 16.33091517857143  C 20.80078125 15.075334821428571  21.42857142857143 13.560267857142858  21.42857142857143 11.785714285714286  C 21.42857142857143 10.011160714285714  20.80078125 8.49609375  19.545200892857142 7.240513392857142  C 18.28962053571429 5.984933035714287  16.77455357142857 5.357142857142858  15 5.357142857142858  C 13.225446428571429 5.357142857142858  11.710379464285715 5.984933035714287  10.454799107142856 7.240513392857142  C 9.19921875 8.49609375  8.571428571428571 10.011160714285714  8.571428571428571 11.785714285714286  C 8.571428571428571 13.560267857142858  9.19921875 15.075334821428571  10.454799107142856 16.33091517857143  C 11.710379464285715 17.586495535714285  13.225446428571429 18.214285714285715  15 18.214285714285715  C 16.77455357142857 18.214285714285715  18.28962053571429 17.586495535714285  19.545200892857142 16.33091517857143  Z " fill-rule="nonzero" fill="currentColor" stroke="none" transform="matrix(1 0 0 1 136 273 )"></path>
    </g>
  </symbol>
</svg>