<?xml version="1.0" encoding="utf-8"?>
<svg xmlns="http://www.w3.org/2000/svg">
  <symbol fill="none" xmlns="http://www.w3.org/2000/svg" viewBox="0 0 24 24" id="avatar-top-menu">
    <path fill-rule="evenodd" clip-rule="evenodd" d="M12 11C10.3917 11 9.08333 9.69158 9.08333 8.08333C9.08333 6.47508 10.3917 5.16667 12 5.16667C13.6082 5.16667 14.9167 6.47508 14.9167 8.08333C14.9167 9.69158 13.6082 11 12 11ZM16.6667 16.8333C16.3441 16.8333 16.0833 16.5726 16.0833 16.25V15.0833C16.0833 14.1185 15.2982 13.3333 14.3333 13.3333H9.66667C8.70183 13.3333 7.91667 14.1185 7.91667 15.0833V16.25C7.91667 16.5726 7.65592 16.8333 7.33333 16.8333C7.01075 16.8333 6.75 16.5726 6.75 16.25V15.0833C6.75 13.4751 8.05842 12.1667 9.66667 12.1667H14.3333C15.9416 12.1667 17.25 13.4751 17.25 15.0833V16.25C17.25 16.5726 16.9892 16.8333 16.6667 16.8333ZM10.25 8.08333C10.25 7.1185 11.0352 6.33333 12 6.33333C12.9648 6.33333 13.75 7.1185 13.75 8.08333C13.75 9.04817 12.9648 9.83333 12 9.83333C11.0352 9.83333 10.25 9.04817 10.25 8.08333Z" fill="currentColor"></path>
    <mask id="mask0_4995_82928" maskUnits="userSpaceOnUse" x="6" y="5" width="12" height="12">
      <path fill-rule="evenodd" clip-rule="evenodd" d="M12 11C10.3917 11 9.08333 9.69158 9.08333 8.08333C9.08333 6.47508 10.3917 5.16667 12 5.16667C13.6082 5.16667 14.9167 6.47508 14.9167 8.08333C14.9167 9.69158 13.6082 11 12 11ZM16.6667 16.8333C16.3441 16.8333 16.0833 16.5726 16.0833 16.25V15.0833C16.0833 14.1185 15.2982 13.3333 14.3333 13.3333H9.66667C8.70183 13.3333 7.91667 14.1185 7.91667 15.0833V16.25C7.91667 16.5726 7.65592 16.8333 7.33333 16.8333C7.01075 16.8333 6.75 16.5726 6.75 16.25V15.0833C6.75 13.4751 8.05842 12.1667 9.66667 12.1667H14.3333C15.9416 12.1667 17.25 13.4751 17.25 15.0833V16.25C17.25 16.5726 16.9892 16.8333 16.6667 16.8333ZM10.25 8.08333C10.25 7.1185 11.0352 6.33333 12 6.33333C12.9648 6.33333 13.75 7.1185 13.75 8.08333C13.75 9.04817 12.9648 9.83333 12 9.83333C11.0352 9.83333 10.25 9.04817 10.25 8.08333Z" fill="white"></path>
    </mask>
    <path fill-rule="evenodd" clip-rule="evenodd" d="M3 12C3 7.038 7.038 3 12 3C16.963 3 21 7.038 21 12C21 16.963 16.963 21 12 21C7.038 21 3 16.963 3 12ZM1 12C1 18.065 5.935 23 12 23C18.065 23 23 18.065 23 12C23 5.935 18.065 1 12 1C5.935 1 1 5.935 1 12Z" fill="currentColor"></path>
    <mask id="mask1_4995_82928" maskUnits="userSpaceOnUse" x="1" y="1" width="22" height="22">
      <path fill-rule="evenodd" clip-rule="evenodd" d="M3 12C3 7.038 7.038 3 12 3C16.963 3 21 7.038 21 12C21 16.963 16.963 21 12 21C7.038 21 3 16.963 3 12ZM1 12C1 18.065 5.935 23 12 23C18.065 23 23 18.065 23 12C23 5.935 18.065 1 12 1C5.935 1 1 5.935 1 12Z" fill="white"></path>
    </mask>
  </symbol>
</svg>