<?xml version="1.0" encoding="utf-8"?>
<svg xmlns="http://www.w3.org/2000/svg">
<symbol id="bell" viewBox="0 0 24 24">
<g id="svgg">
<path fill-rule="evenodd" clip-rule="evenodd" d="M6.26159 15.5175H17.7374C17.4686 15.0051 17.3157 14.4216 17.3157 13.805V9.2982C17.3157 6.36571 14.9317 3.98269 11.999 3.98269C9.06835 3.98269 6.68325 6.36571 6.68325 9.2982V13.805C6.68325 14.4216 6.53237 15.0051 6.26159 15.5175ZM21.0098 17.4982H2.99121C2.44365 17.4982 2 17.0548 2 16.5073C2 15.9599 2.44365 15.5175 2.99121 15.5175C3.93445 15.5175 4.70184 14.7488 4.70184 13.805V9.2982C4.70184 5.27478 7.97622 2 11.999 2C16.0238 2 19.2972 5.27478 19.2972 9.2982V13.805C19.2972 14.7488 20.0645 15.5175 21.0098 15.5175C21.5574 15.5175 22 15.9599 22 16.5073C22 17.0548 21.5574 17.4982 21.0098 17.4982ZM11.995 22C11.5204 22 11.0388 21.8779 10.5991 21.6237C10.1805 21.3795 9.82874 21.0292 9.58493 20.6108C9.31115 20.1374 9.47002 19.5319 9.94365 19.2557C10.4153 18.9804 11.0228 19.1396 11.2976 19.614C11.3685 19.7361 11.4704 19.8382 11.5933 19.9092C11.982 20.1364 12.4776 20.0003 12.7024 19.615C12.9782 19.1396 13.5827 18.9814 14.0564 19.2557C14.529 19.5309 14.6908 20.1364 14.4151 20.6098C13.8975 21.5016 12.9592 22 11.995 22Z" fill="currentColor"/>
</g>
</symbol></svg>