<?xml version="1.0" encoding="utf-8"?>
<svg xmlns="http://www.w3.org/2000/svg">
<symbol id="briefcase" viewBox="0 0 24 24">
<path fill-rule="evenodd" clip-rule="evenodd" d="M21 19C21 19.552 20.552 20 20 20H17V8H20C20.552 8 21 8.449 21 9V19ZM3.00001 19V9C3.00001 8.449 3.44801 8 4.00001 8H7.00001V20H4.00001C3.44801 20 3.00001 19.552 3.00001 19ZM9.00001 20H15V8H9.00001V20ZM9.00001 5.00001C9.00001 4.44901 9.44801 4.00001 10 4.00001H14C14.552 4.00001 15 4.44901 15 5.00001V6.00001H9.00001V5.00001ZM20 6H17V5C17 3.346 15.654 2 14 2H10C8.346 2 7 3.346 7 5V6H4C2.346 6 1 7.346 1 9V19C1 20.654 2.346 22 4 22H20C21.654 22 23 20.654 23 19V9C23 7.346 21.654 6 20 6Z" fill="currentColor"/>
<mask id="briefcase" style="mask-type:alpha" maskUnits="userSpaceOnUse" x="1" y="2" width="22" height="20">
<path fill-rule="evenodd" clip-rule="evenodd" d="M21 19C21 19.552 20.552 20 20 20H17V8H20C20.552 8 21 8.449 21 9V19ZM3.00001 19V9C3.00001 8.449 3.44801 8 4.00001 8H7.00001V20H4.00001C3.44801 20 3.00001 19.552 3.00001 19ZM9.00001 20H15V8H9.00001V20ZM9.00001 5.00001C9.00001 4.44901 9.44801 4.00001 10 4.00001H14C14.552 4.00001 15 4.44901 15 5.00001V6.00001H9.00001V5.00001ZM20 6H17V5C17 3.346 15.654 2 14 2H10C8.346 2 7 3.346 7 5V6H4C2.346 6 1 7.346 1 9V19C1 20.654 2.346 22 4 22H20C21.654 22 23 20.654 23 19V9C23 7.346 21.654 6 20 6Z" fill="currentColor"/>
</mask>
<g mask="url(#briefcase)">
<path fill-rule="evenodd" clip-rule="evenodd" d="M0 0H24V24H0V0Z" fill="#787272"/>
</g>

</symbol></svg>