<?xml version="1.0" encoding="utf-8"?>
<svg xmlns="http://www.w3.org/2000/svg">
<symbol xmlns="http://www.w3.org/2000/svg" viewBox="0 0 48 48" id="browse">
    <ellipse cx="24" cy="24" fill="none" stroke="currentColor" stroke-linecap="round" stroke-linejoin="round" stroke-miterlimit="10" stroke-width="2" rx="14" ry="21"></ellipse>
    <path fill="none" stroke="currentColor" stroke-linecap="round" stroke-linejoin="round" stroke-miterlimit="10" stroke-width="2" d="M45 24a20.943 20.943 0 0 1-6.868 15.533S31 35 24 35 9.862 39.528 9.862 39.528A20.945 20.945 0 0 1 3 24c0-6.13 2.627-11.646 6.816-15.485C9.816 8.515 17 13 24 13s14.161-4.507 14.161-4.507A20.943 20.943 0 0 1 45 24z"></path>
    <circle cx="24" cy="24" r="21" fill="none" stroke="currentColor" stroke-linecap="round" stroke-linejoin="round" stroke-miterlimit="10" stroke-width="2"></circle>
    <path fill="none" stroke="currentColor" stroke-linecap="round" stroke-linejoin="round" stroke-miterlimit="10" stroke-width="2" d="M24 3v42M3 24h42"></path>
  </symbol>
</svg>