<?xml version="1.0" encoding="utf-8"?>
<svg xmlns="http://www.w3.org/2000/svg">
<symbol id="burger-arrow" viewBox="0 0 20 13">
<path d="M1.13685 13H13.6422C14.2674 13 14.779 12.5125 14.779 11.9167C14.779 11.3208 14.2674 10.8333 13.6422 10.8333H1.13685C0.511582 10.8333 0 11.3208 0 11.9167C0 12.5125 0.511582 13 1.13685 13ZM1.13685 7.58333H10.2316C10.8569 7.58333 11.3685 7.09583 11.3685 6.5C11.3685 5.90417 10.8569 5.41667 10.2316 5.41667H1.13685C0.511582 5.41667 0 5.90417 0 6.5C0 7.09583 0.511582 7.58333 1.13685 7.58333ZM0 1.08333C0 1.67917 0.511582 2.16667 1.13685 2.16667H13.6422C14.2674 2.16667 14.779 1.67917 14.779 1.08333C14.779 0.4875 14.2674 0 13.6422 0H1.13685C0.511582 0 0 0.4875 0 1.08333ZM19.6675 9.62L16.3934 6.5L19.6675 3.38C20.1108 2.9575 20.1108 2.275 19.6675 1.8525C19.2241 1.43 18.5079 1.43 18.0645 1.8525L13.9832 5.74167C13.5399 6.16417 13.5399 6.84667 13.9832 7.26917L18.0645 11.1583C18.5079 11.5808 19.2241 11.5808 19.6675 11.1583C20.0995 10.7358 20.1108 10.0425 19.6675 9.62Z" fill="currentColor"/>

</symbol>
</svg>