<?xml version="1.0" encoding="utf-8"?>
<svg xmlns="http://www.w3.org/2000/svg">
<symbol id="change" viewBox="0 0 10 11">
  <path d="M5 0.0175781C2.24 0.0175781 0 2.25758 0 5.01758C0 7.77758 2.24 10.0176 5 10.0176C7.76 10.0176 10 7.77758 10 5.01758C10 2.25758 7.76 0.0175781 5 0.0175781ZM5.5 8.51758H4.5V7.51758H5.5V8.51758ZM6.535 4.64258L6.085 5.10258C5.725 5.46758 5.5 5.76758 5.5 6.51758H4.5V6.26758C4.5 5.71758 4.725 5.21758 5.085 4.85258L5.705 4.22258C5.89 4.04258 6 3.79258 6 3.51758C6 2.96758 5.55 2.51758 5 2.51758C4.45 2.51758 4 2.96758 4 3.51758H3C3 2.41258 3.895 1.51758 5 1.51758C6.105 1.51758 7 2.41258 7 3.51758C7 3.95758 6.82 4.35758 6.535 4.64258Z" fill="currentColor"/>

</symbol></svg>