<?xml version="1.0" encoding="utf-8"?>
<svg xmlns="http://www.w3.org/2000/svg">
<symbol id="checked" viewBox="0 0 512.000000 512.000000">

  <g transform="translate(0.000000,512.000000) scale(0.100000,-0.100000)" fill="currentColor" stroke="none">
    <path d="M4206 3959 c-22 -5 -54 -20 -70 -33 -17 -13 -472 -512 -1011 -1110
-752 -834 -989 -1091 -1020 -1106 -48 -23 -130 -26 -178 -7 -18 8 -268 227
-557 487 -297 267 -542 481 -565 491 -88 41 -205 8 -261 -72 -37 -54 -46 -150
-18 -211 14 -30 184 -196 686 -670 368 -346 683 -637 701 -647 50 -29 101 -34
161 -17 43 13 64 28 122 88 172 180 2222 2464 2244 2501 36 61 35 145 -3 209
-46 79 -141 119 -231 97z"/>
  </g>

</symbol>
</svg>