<?xml version="1.0" encoding="utf-8"?>
<svg xmlns="http://www.w3.org/2000/svg">
<symbol id="construction" viewBox="0 0 64 64">
<g fill="currentColor">
<path d="M58.17,44.55a9.56,9.56,0,0,0-9.75-2.34L21.79,15.58c2.35-6.79-4-13.91-11-12.4A1,1,0,0,0,10,4.26a1.14,1.14,0,0,0,.28.61l4,4L13.1,13.1,8.83,14.24l-4-4A1.1,1.1,0,0,0,4.06,10a1,1,0,0,0-.88.79c-1.55,7,5.7,13.41,12.42,11L42.21,48.42c-2.36,6.79,4,13.91,11,12.4A1,1,0,0,0,54,59.74a1.14,1.14,0,0,0-.28-.61l-4-4L50.9,50.9l4.27-1.14,4,4a1.29,1.29,0,0,0,.71.3h0a1,1,0,0,0,1-.81A9.59,9.59,0,0,0,58.17,44.55Z"/>
<path d="M34.48,24.65l4.88,4.88a1,1,0,0,0,1.42,0l7.34-7.36C55,24.61,62.32,18.09,60.75,11a1,1,0,0,0-.88-.79,1.1,1.1,0,0,0-.81.28l-4,4-4.36-1.17L49.49,9l4-4a1.06,1.06,0,0,0,.27-.81A1,1,0,0,0,53,3.25C45.86,1.71,39.45,9,41.84,15.86l-7.36,7.37A1,1,0,0,0,34.48,24.65Z"/>
<path d="M24.65,34.48a1,1,0,0,0-1.42,0l-7.89,7.89C6,39.56-1.06,51.09,5.87,58.13S24.48,58,21.64,48.66l7.89-7.88a1,1,0,0,0,0-1.42Zm-7,16.11-1.1,4.11a1,1,0,0,1-.71.71l-4.11,1.1a1,1,0,0,1-1-.26l-3-3a1,1,0,0,1-.26-1l1.1-4.11a1,1,0,0,1,.71-.71l4.11-1.1a1,1,0,0,1,1,.26l3,3A1,1,0,0,1,17.65,50.59Z"/>
</g>

</symbol></svg>