<?xml version="1.0" encoding="utf-8"?>
<svg xmlns="http://www.w3.org/2000/svg">
<symbol id="controls" viewBox="0 0 104.000000 111.000000">

<g transform="translate(0.000000,111.000000) scale(0.100000,-0.100000)" fill="currentColor" stroke="none">
<path d="M627 1074 c-27 -14 -60 -42 -75 -64 l-27 -39 -226 -1 c-169 0 -229
-3 -237 -13 -13 -15 30 -206 50 -218 7 -5 36 -9 63 -9 40 -1 57 -6 85 -30 42
-37 56 -37 100 0 30 27 42 30 99 30 63 0 65 -1 99 -40 47 -56 104 -83 172 -83
130 0 229 102 230 237 0 78 -16 128 -57 175 -70 82 -182 104 -276 55z m170
-53 c25 -12 52 -35 67 -58 91 -137 -15 -318 -168 -289 -43 8 -80 37 -112 87
l-24 39 -94 0 c-80 0 -95 -3 -111 -20 -29 -32 -52 -34 -86 -6 -23 19 -42 26
-74 26 l-43 0 -11 50 c-6 28 -11 53 -11 55 0 3 99 5 220 5 l219 0 17 35 c24
51 88 93 144 94 14 0 44 -8 67 -18z"/>
<path d="M727 939 c-9 -5 -24 -24 -33 -41 -32 -63 9 -138 76 -138 40 0 62 17
80 64 29 77 -54 155 -123 115z m58 -89 c0 -36 -29 -33 -33 3 -3 23 0 28 15 25
12 -2 18 -12 18 -28z"/>
<path d="M52 475 c-111 -47 -43 -200 145 -325 138 -92 264 -108 527 -63 38 6
39 5 33 -18 -6 -24 -3 -26 78 -46 l85 -20 8 31 c9 30 8 31 -40 45 -26 8 -48
19 -48 25 0 6 9 45 20 85 12 40 19 75 18 76 -2 2 -17 6 -35 9 -31 7 -31 7 -44
-48 -7 -35 -18 -57 -28 -60 -44 -13 -146 -27 -236 -32 -173 -11 -281 31 -401
159 -61 65 -80 106 -55 122 16 9 161 -68 161 -85 0 -9 10 -26 23 -38 27 -25
257 -106 268 -94 4 4 10 18 14 32 6 25 3 27 -114 65 -95 31 -121 43 -121 57 0
22 3 22 115 -1 l89 -19 67 34 67 33 120 -34 c67 -19 123 -35 126 -35 3 0 9 15
14 33 8 28 12 32 38 28 67 -9 77 -7 85 21 7 26 4 28 -32 38 -21 5 -57 15 -80
21 -47 12 -43 14 -61 -27 l-13 -31 -102 29 -102 29 -67 -34 -67 -34 -94 19
c-85 18 -96 18 -124 4 -29 -15 -34 -14 -92 16 -86 43 -108 48 -145 33z"/>
</g>

</symbol></svg>