<?xml version="1.0" encoding="utf-8"?>
<svg xmlns="http://www.w3.org/2000/svg">
  <symbol fill="none" xmlns="http://www.w3.org/2000/svg" viewBox="0 0 16 17" id="csv">
    <path fill-rule="evenodd" clip-rule="evenodd" d="M9.57701 0.667725L13.9997 4.95646V15.2298C13.9997 16.0228 13.3138 16.6677 12.4688 16.6677H3.53139C2.68745 16.6677 2.00049 16.0228 2.00049 15.2298V2.10563C2.00049 1.31268 2.68645 0.667725 3.53139 0.667725H9.57701ZM12.2658 4.66847L9.99999 2.47061V4.66847H12.2658ZM12.9998 15.2298C12.9998 15.4668 12.7568 15.6678 12.4688 15.6678H3.53139C3.24341 15.6678 3.00043 15.4678 3.00043 15.2298V2.10563C3.00043 1.86865 3.24341 1.66766 3.53139 1.66766H9.00005V5.66741H12.9998V15.2298ZM4.69032 13.1919C4.69032 13.7409 4.9423 14.0469 5.32028 14.0469C5.54627 14.0469 5.72526 13.9299 5.85225 13.7949L6.25722 14.2809C6.01024 14.5689 5.67226 14.7128 5.29428 14.7128C4.54633 14.7128 3.89837 14.2179 3.89837 13.2189C3.89837 12.238 4.57333 11.68 5.31128 11.68C5.69926 11.68 6.01324 11.86 6.22022 12.067L5.81525 12.562C5.67226 12.436 5.52727 12.346 5.33028 12.346C4.9873 12.346 4.69032 12.661 4.69032 13.1919ZM8.29509 12.976L7.94012 12.836C7.9139 12.8257 7.88864 12.816 7.8644 12.8067L7.86422 12.8066C7.64276 12.7214 7.50714 12.6692 7.50714 12.544C7.50714 12.413 7.62414 12.346 7.81413 12.346C8.03011 12.346 8.2011 12.418 8.39909 12.557L8.78606 12.072C8.51608 11.806 8.1471 11.68 7.81413 11.68C7.17417 11.68 6.72419 12.089 6.72419 12.589C6.72419 13.012 6.99818 13.2769 7.31416 13.4029L7.67813 13.5559L7.74086 13.5807C7.95087 13.6635 8.07411 13.7121 8.07411 13.8389C8.07411 13.9699 7.97511 14.0459 7.74113 14.0459C7.52514 14.0459 7.26316 13.9289 7.05617 13.7629L6.6152 14.2939C6.93018 14.5769 7.35315 14.7118 7.72213 14.7118C8.45109 14.7118 8.86606 14.2719 8.86606 13.7759C8.86606 13.3729 8.65907 13.1209 8.29509 12.976ZM11.8999 11.734L11.0359 14.6599H10.099L9.23504 11.734H10.053L10.359 13.012C10.4011 13.1738 10.4362 13.3332 10.4715 13.4932C10.504 13.6407 10.5366 13.7888 10.575 13.9399H10.594C10.6392 13.7635 10.6775 13.5919 10.7158 13.4205C10.7461 13.2848 10.7764 13.1494 10.8099 13.012L11.1069 11.734H11.8999Z" fill="currentColor"></path>
    <mask id="mask0_5607_87429" maskUnits="userSpaceOnUse" x="2" y="0" width="12" height="17">
      <path fill-rule="evenodd" clip-rule="evenodd" d="M9.57701 0.667725L13.9997 4.95646V15.2298C13.9997 16.0228 13.3138 16.6677 12.4688 16.6677H3.53139C2.68745 16.6677 2.00049 16.0228 2.00049 15.2298V2.10563C2.00049 1.31268 2.68645 0.667725 3.53139 0.667725H9.57701ZM12.2658 4.66847L9.99999 2.47061V4.66847H12.2658ZM12.9998 15.2298C12.9998 15.4668 12.7568 15.6678 12.4688 15.6678H3.53139C3.24341 15.6678 3.00043 15.4678 3.00043 15.2298V2.10563C3.00043 1.86865 3.24341 1.66766 3.53139 1.66766H9.00005V5.66741H12.9998V15.2298ZM4.69032 13.1919C4.69032 13.7409 4.9423 14.0469 5.32028 14.0469C5.54627 14.0469 5.72526 13.9299 5.85225 13.7949L6.25722 14.2809C6.01024 14.5689 5.67226 14.7128 5.29428 14.7128C4.54633 14.7128 3.89837 14.2179 3.89837 13.2189C3.89837 12.238 4.57333 11.68 5.31128 11.68C5.69926 11.68 6.01324 11.86 6.22022 12.067L5.81525 12.562C5.67226 12.436 5.52727 12.346 5.33028 12.346C4.9873 12.346 4.69032 12.661 4.69032 13.1919ZM8.29509 12.976L7.94012 12.836C7.9139 12.8257 7.88864 12.816 7.8644 12.8067L7.86422 12.8066C7.64276 12.7214 7.50714 12.6692 7.50714 12.544C7.50714 12.413 7.62414 12.346 7.81413 12.346C8.03011 12.346 8.2011 12.418 8.39909 12.557L8.78606 12.072C8.51608 11.806 8.1471 11.68 7.81413 11.68C7.17417 11.68 6.72419 12.089 6.72419 12.589C6.72419 13.012 6.99818 13.2769 7.31416 13.4029L7.67813 13.5559L7.74086 13.5807C7.95087 13.6635 8.07411 13.7121 8.07411 13.8389C8.07411 13.9699 7.97511 14.0459 7.74113 14.0459C7.52514 14.0459 7.26316 13.9289 7.05617 13.7629L6.6152 14.2939C6.93018 14.5769 7.35315 14.7118 7.72213 14.7118C8.45109 14.7118 8.86606 14.2719 8.86606 13.7759C8.86606 13.3729 8.65907 13.1209 8.29509 12.976ZM11.8999 11.734L11.0359 14.6599H10.099L9.23504 11.734H10.053L10.359 13.012C10.4011 13.1738 10.4362 13.3332 10.4715 13.4932C10.504 13.6407 10.5366 13.7888 10.575 13.9399H10.594C10.6392 13.7635 10.6775 13.5919 10.7158 13.4205C10.7461 13.2848 10.7764 13.1494 10.8099 13.012L11.1069 11.734H11.8999Z" fill="white"></path>
    </mask>
  </symbol>
  </svg>