<?xml version="1.0" encoding="utf-8"?>
<svg xmlns="http://www.w3.org/2000/svg">
<symbol id="database" viewBox="0, 0, 400,400">
  <g id="svgg">
    <path id="path0" d="M164.808 0.276 C 161.623 0.357,158.842 0.598,158.628 0.812 C 158.415 1.025,156.397 1.200,154.144 1.200 C 151.844 1.200,149.939 1.375,149.800 1.600 C 149.664 1.820,147.954 2.000,146.000 2.000 C 144.046 2.000,142.336 2.180,142.200 2.400 C 142.064 2.620,140.624 2.800,139.000 2.800 C 137.376 2.800,135.936 2.980,135.800 3.200 C 135.664 3.420,134.393 3.600,132.976 3.600 C 131.525 3.600,130.400 3.775,130.400 4.000 C 130.400 4.222,129.341 4.400,128.024 4.400 C 126.717 4.400,125.536 4.580,125.400 4.800 C 125.264 5.020,124.173 5.200,122.976 5.200 C 121.779 5.200,120.800 5.380,120.800 5.600 C 120.800 5.822,119.733 6.000,118.400 6.000 C 117.067 6.000,116.000 6.178,116.000 6.400 C 116.000 6.620,115.190 6.800,114.200 6.800 C 113.210 6.800,112.400 6.980,112.400 7.200 C 112.400 7.420,111.500 7.600,110.400 7.600 C 109.300 7.600,108.400 7.780,108.400 8.000 C 108.400 8.220,107.601 8.400,106.624 8.400 C 105.647 8.400,104.736 8.580,104.600 8.800 C 104.464 9.020,103.643 9.200,102.776 9.200 C 101.909 9.200,101.200 9.355,101.200 9.545 C 101.200 9.734,99.993 10.013,98.517 10.164 C 97.042 10.316,95.647 10.588,95.417 10.769 C 95.026 11.079,94.010 11.325,90.900 11.863 C 90.185 11.986,89.600 12.248,89.600 12.444 C 89.600 12.640,89.208 12.800,88.728 12.800 C 87.808 12.800,85.472 13.460,84.305 14.049 C 83.923 14.242,83.158 14.400,82.605 14.400 C 82.052 14.400,81.600 14.580,81.600 14.800 C 81.600 15.020,81.060 15.200,80.400 15.200 C 79.740 15.200,79.200 15.380,79.200 15.600 C 79.200 15.820,78.750 16.000,78.200 16.000 C 77.650 16.000,77.200 16.180,77.200 16.400 C 77.200 16.620,76.660 16.800,76.000 16.800 C 75.340 16.800,74.800 16.980,74.800 17.200 C 74.800 17.420,74.260 17.600,73.600 17.600 C 72.940 17.600,72.400 17.780,72.400 18.000 C 72.400 18.220,72.051 18.400,71.624 18.400 C 71.197 18.400,70.736 18.580,70.600 18.800 C 70.464 19.020,69.913 19.200,69.376 19.200 C 68.839 19.200,68.400 19.380,68.400 19.600 C 68.400 19.820,68.051 20.000,67.624 20.000 C 67.197 20.000,66.736 20.180,66.600 20.400 C 66.464 20.620,65.913 20.800,65.376 20.800 C 64.839 20.800,64.400 20.980,64.400 21.200 C 64.400 21.420,64.040 21.600,63.600 21.600 C 63.160 21.600,62.800 21.780,62.800 22.000 C 62.800 22.220,62.451 22.400,62.024 22.400 C 61.597 22.400,61.136 22.580,61.000 22.800 C 60.864 23.020,60.403 23.200,59.976 23.200 C 59.549 23.200,59.200 23.380,59.200 23.600 C 59.200 23.820,58.840 24.000,58.400 24.000 C 57.960 24.000,57.600 24.180,57.600 24.400 C 57.600 24.620,57.240 24.800,56.800 24.800 C 56.360 24.800,56.000 24.980,56.000 25.200 C 56.000 25.420,55.640 25.600,55.200 25.600 C 54.760 25.600,54.400 25.780,54.400 26.000 C 54.400 26.220,54.040 26.400,53.600 26.400 C 53.160 26.400,52.800 26.566,52.800 26.768 C 52.800 26.971,52.260 27.255,51.600 27.400 C 50.940 27.545,50.400 27.785,50.400 27.934 C 50.400 28.083,49.815 28.458,49.100 28.768 C 48.385 29.077,47.048 29.841,46.128 30.465 C 45.208 31.089,44.303 31.600,44.116 31.600 C 43.929 31.600,43.517 31.960,43.200 32.400 C 42.883 32.840,42.343 33.200,42.000 33.200 C 41.657 33.200,41.117 33.560,40.800 34.000 C 40.483 34.440,40.015 34.800,39.760 34.800 C 39.505 34.800,38.555 35.520,37.648 36.400 C 36.741 37.280,35.813 38.000,35.585 38.000 C 35.040 38.000,25.600 47.440,25.600 47.985 C 25.600 48.217,25.060 48.972,24.400 49.663 C 23.740 50.354,23.200 51.162,23.200 51.459 C 23.200 51.757,23.020 52.000,22.800 52.000 C 22.580 52.000,22.400 52.278,22.400 52.617 C 22.400 52.956,22.040 53.620,21.600 54.092 C 21.160 54.564,20.800 55.266,20.800 55.652 C 20.800 56.037,20.620 56.464,20.400 56.600 C 20.180 56.736,20.000 57.197,20.000 57.624 C 20.000 58.051,19.820 58.400,19.600 58.400 C 19.380 58.400,19.200 58.839,19.200 59.376 C 19.200 59.913,19.020 60.464,18.800 60.600 C 18.580 60.736,18.400 61.197,18.400 61.624 C 18.400 62.051,18.220 62.400,18.000 62.400 C 17.445 62.400,17.445 337.457,18.000 337.800 C 18.220 337.936,18.400 338.487,18.400 339.024 C 18.400 339.561,18.580 340.000,18.800 340.000 C 19.020 340.000,19.200 340.540,19.200 341.200 C 19.200 341.860,19.380 342.400,19.600 342.400 C 19.820 342.400,20.000 342.760,20.000 343.200 C 20.000 343.640,20.180 344.000,20.400 344.000 C 20.620 344.000,20.800 344.360,20.800 344.800 C 20.800 345.240,20.980 345.600,21.200 345.600 C 21.420 345.600,21.600 345.960,21.600 346.400 C 21.600 346.840,21.780 347.200,22.000 347.200 C 22.220 347.200,22.400 347.520,22.400 347.912 C 22.400 348.303,22.760 348.883,23.200 349.200 C 23.640 349.517,24.000 349.985,24.000 350.240 C 24.000 350.495,24.720 351.445,25.600 352.352 C 26.480 353.259,27.200 354.142,27.200 354.314 C 27.200 354.720,31.328 358.800,31.739 358.800 C 31.911 358.800,32.929 359.700,34.000 360.800 C 35.071 361.900,36.141 362.800,36.378 362.800 C 36.614 362.800,37.372 363.340,38.063 364.000 C 38.754 364.660,39.522 365.200,39.771 365.200 C 40.020 365.200,40.483 365.560,40.800 366.000 C 41.117 366.440,41.631 366.800,41.941 366.800 C 42.252 366.800,42.797 367.116,43.153 367.503 C 43.509 367.889,44.340 368.474,45.000 368.802 C 45.660 369.130,46.290 369.489,46.400 369.599 C 46.794 369.995,49.013 371.254,49.700 371.471 C 50.085 371.593,50.400 371.852,50.400 372.047 C 50.400 372.241,50.634 372.400,50.920 372.400 C 51.656 372.400,53.593 373.341,53.597 373.700 C 53.599 373.865,53.960 374.000,54.400 374.000 C 54.840 374.000,55.200 374.164,55.200 374.365 C 55.200 374.566,55.920 374.851,56.800 375.000 C 57.680 375.149,58.400 375.434,58.400 375.635 C 58.400 375.836,58.760 376.000,59.200 376.000 C 59.640 376.000,60.000 376.180,60.000 376.400 C 60.000 376.620,60.360 376.800,60.800 376.800 C 61.240 376.800,61.600 376.980,61.600 377.200 C 61.600 377.420,62.050 377.600,62.600 377.600 C 63.150 377.600,63.600 377.780,63.600 378.000 C 63.600 378.220,63.960 378.400,64.400 378.400 C 64.840 378.400,65.200 378.580,65.200 378.800 C 65.200 379.020,65.740 379.200,66.400 379.200 C 67.060 379.200,67.600 379.380,67.600 379.600 C 67.600 379.820,67.960 380.000,68.400 380.000 C 68.840 380.000,69.200 380.180,69.200 380.400 C 69.200 380.620,69.740 380.800,70.400 380.800 C 71.060 380.800,71.600 380.980,71.600 381.200 C 71.600 381.420,72.140 381.600,72.800 381.600 C 73.460 381.600,74.000 381.780,74.000 382.000 C 74.000 382.220,74.349 382.400,74.776 382.400 C 75.203 382.400,75.664 382.580,75.800 382.800 C 75.936 383.020,76.476 383.200,77.000 383.200 C 77.524 383.200,78.064 383.380,78.200 383.600 C 78.336 383.820,78.876 384.000,79.400 384.000 C 79.924 384.000,80.464 384.180,80.600 384.400 C 80.736 384.620,81.276 384.800,81.800 384.800 C 82.324 384.800,82.864 384.980,83.000 385.200 C 83.136 385.420,83.777 385.600,84.424 385.600 C 85.071 385.600,85.600 385.780,85.600 386.000 C 85.600 386.220,86.129 386.400,86.776 386.400 C 87.423 386.400,88.064 386.580,88.200 386.800 C 88.336 387.020,89.067 387.200,89.824 387.200 C 90.581 387.200,91.200 387.360,91.200 387.556 C 91.200 387.752,91.830 388.022,92.600 388.156 C 93.370 388.290,94.632 388.510,95.404 388.644 C 96.176 388.779,96.906 389.049,97.027 389.244 C 97.148 389.440,97.856 389.600,98.600 389.600 C 99.344 389.600,100.052 389.761,100.174 389.958 C 100.399 390.321,100.749 390.391,106.868 391.290 C 108.776 391.571,110.471 391.935,110.635 392.100 C 110.799 392.265,111.613 392.400,112.443 392.400 C 113.273 392.400,114.064 392.580,114.200 392.800 C 114.336 393.020,115.337 393.200,116.424 393.200 C 117.511 393.200,118.400 393.380,118.400 393.600 C 118.400 393.820,119.289 394.000,120.376 394.000 C 121.463 394.000,122.464 394.180,122.600 394.400 C 122.736 394.620,123.906 394.800,125.200 394.800 C 126.494 394.800,127.664 394.980,127.800 395.200 C 127.936 395.420,129.027 395.600,130.224 395.600 C 131.421 395.600,132.400 395.780,132.400 396.000 C 132.400 396.228,133.592 396.400,135.176 396.400 C 136.703 396.400,138.064 396.580,138.200 396.800 C 138.336 397.020,139.776 397.200,141.400 397.200 C 143.024 397.200,144.464 397.380,144.600 397.600 C 144.736 397.820,146.457 398.000,148.424 398.000 C 150.541 398.000,152.000 398.163,152.000 398.400 C 152.000 398.642,153.722 398.800,156.367 398.800 C 159.504 398.800,160.780 398.941,160.900 399.300 C 161.032 399.695,169.192 399.800,199.913 399.800 C 230.457 399.800,238.867 399.693,239.260 399.300 C 239.595 398.965,241.117 398.800,243.880 398.800 C 246.360 398.800,248.000 398.641,248.000 398.400 C 248.000 398.161,249.533 398.000,251.800 398.000 C 254.067 398.000,255.600 397.839,255.600 397.600 C 255.600 397.367,256.933 397.200,258.800 397.200 C 260.667 397.200,262.000 397.033,262.000 396.800 C 262.000 396.571,263.200 396.400,264.800 396.400 C 266.400 396.400,267.600 396.229,267.600 396.000 C 267.600 395.778,268.659 395.600,269.976 395.600 C 271.283 395.600,272.464 395.420,272.600 395.200 C 272.736 394.980,273.816 394.800,275.000 394.800 C 276.184 394.800,277.264 394.620,277.400 394.400 C 277.536 394.180,278.537 394.000,279.624 394.000 C 280.711 394.000,281.600 393.820,281.600 393.600 C 281.600 393.380,282.500 393.200,283.600 393.200 C 284.700 393.200,285.600 393.020,285.600 392.800 C 285.600 392.580,286.470 392.400,287.533 392.400 C 288.597 392.400,289.600 392.265,289.763 392.100 C 289.926 391.935,291.531 391.588,293.329 391.329 C 297.211 390.770,298.720 390.460,299.800 389.997 C 300.240 389.809,301.230 389.544,302.000 389.408 C 302.770 389.273,303.987 389.061,304.704 388.937 C 305.421 388.813,306.106 388.551,306.227 388.356 C 306.348 388.160,306.977 388.000,307.624 388.000 C 308.271 388.000,308.800 387.820,308.800 387.600 C 308.800 387.380,309.419 387.200,310.176 387.200 C 310.933 387.200,311.664 387.020,311.800 386.800 C 311.936 386.580,312.577 386.400,313.224 386.400 C 313.871 386.400,314.400 386.220,314.400 386.000 C 314.400 385.780,314.929 385.600,315.576 385.600 C 316.223 385.600,316.864 385.420,317.000 385.200 C 317.136 384.980,317.676 384.800,318.200 384.800 C 318.724 384.800,319.264 384.620,319.400 384.400 C 319.536 384.180,320.177 384.000,320.824 384.000 C 321.471 384.000,322.000 383.820,322.000 383.600 C 322.000 383.380,322.439 383.200,322.976 383.200 C 323.513 383.200,324.064 383.020,324.200 382.800 C 324.336 382.580,324.797 382.400,325.224 382.400 C 325.651 382.400,326.000 382.220,326.000 382.000 C 326.000 381.780,326.540 381.600,327.200 381.600 C 327.860 381.600,328.400 381.420,328.400 381.200 C 328.400 380.980,328.940 380.800,329.600 380.800 C 330.260 380.800,330.800 380.620,330.800 380.400 C 330.800 380.180,331.160 380.000,331.600 380.000 C 332.040 380.000,332.400 379.820,332.400 379.600 C 332.400 379.380,332.940 379.200,333.600 379.200 C 334.260 379.200,334.800 379.020,334.800 378.800 C 334.800 378.580,335.160 378.400,335.600 378.400 C 336.040 378.400,336.400 378.220,336.400 378.000 C 336.400 377.780,336.850 377.600,337.400 377.600 C 337.950 377.600,338.400 377.420,338.400 377.200 C 338.400 376.980,338.634 376.800,338.920 376.800 C 339.619 376.800,341.593 375.867,341.597 375.535 C 341.599 375.389,342.320 375.149,343.200 375.000 C 344.080 374.851,344.800 374.566,344.800 374.365 C 344.800 374.164,345.160 374.000,345.600 374.000 C 346.040 374.000,346.400 373.820,346.400 373.600 C 346.400 373.380,346.760 373.200,347.200 373.200 C 347.640 373.200,348.000 373.020,348.000 372.800 C 348.000 372.580,348.360 372.400,348.800 372.400 C 349.240 372.400,349.600 372.241,349.600 372.047 C 349.600 371.852,349.915 371.593,350.300 371.471 C 350.987 371.254,353.206 369.995,353.600 369.599 C 353.710 369.489,354.340 369.129,355.000 368.799 C 355.660 368.470,356.549 367.885,356.975 367.500 C 357.402 367.115,357.947 366.800,358.187 366.800 C 358.427 366.800,358.883 366.440,359.200 366.000 C 359.517 365.560,360.025 365.200,360.328 365.200 C 360.631 365.200,361.383 364.660,362.000 364.000 C 362.617 363.340,363.330 362.800,363.586 362.800 C 363.842 362.800,364.929 361.900,366.000 360.800 C 367.071 359.700,368.132 358.800,368.357 358.800 C 369.062 358.800,374.784 352.551,375.682 350.800 C 375.964 350.250,376.511 349.509,376.897 349.153 C 377.284 348.797,377.600 348.212,377.600 347.853 C 377.600 347.494,377.780 347.200,378.000 347.200 C 378.220 347.200,378.400 346.840,378.400 346.400 C 378.400 345.960,378.580 345.600,378.800 345.600 C 379.020 345.600,379.200 345.240,379.200 344.800 C 379.200 344.360,379.380 344.000,379.600 344.000 C 379.820 344.000,380.000 343.640,380.000 343.200 C 380.000 342.760,380.180 342.400,380.400 342.400 C 380.620 342.400,380.800 341.860,380.800 341.200 C 380.800 340.540,380.980 340.000,381.200 340.000 C 381.420 340.000,381.600 339.561,381.600 339.024 C 381.600 338.487,381.780 337.936,382.000 337.800 C 382.555 337.457,382.555 62.400,382.000 62.400 C 381.780 62.400,381.600 62.051,381.600 61.624 C 381.600 61.197,381.420 60.736,381.200 60.600 C 380.980 60.464,380.800 59.913,380.800 59.376 C 380.800 58.839,380.620 58.400,380.400 58.400 C 380.180 58.400,380.000 58.051,380.000 57.624 C 380.000 57.197,379.820 56.736,379.600 56.600 C 379.380 56.464,379.200 56.037,379.200 55.652 C 379.200 55.266,378.840 54.564,378.400 54.092 C 377.960 53.620,377.600 52.956,377.600 52.617 C 377.600 52.278,377.420 52.000,377.200 52.000 C 376.980 52.000,376.800 51.775,376.800 51.500 C 376.799 51.225,376.349 50.477,375.800 49.838 C 375.250 49.199,374.800 48.502,374.800 48.289 C 374.800 47.826,364.953 38.000,364.490 38.000 C 364.313 38.000,363.372 37.280,362.400 36.400 C 361.428 35.520,360.466 34.800,360.263 34.800 C 360.060 34.800,359.603 34.484,359.247 34.097 C 358.891 33.711,358.105 33.140,357.500 32.830 C 356.895 32.519,356.400 32.115,356.400 31.932 C 356.400 31.750,356.130 31.600,355.800 31.600 C 355.470 31.600,355.199 31.465,355.197 31.300 C 355.195 31.135,354.790 30.802,354.297 30.560 C 351.980 29.422,349.751 28.154,349.271 27.700 C 348.981 27.425,348.396 27.200,347.971 27.200 C 347.547 27.200,347.200 27.020,347.200 26.800 C 347.200 26.580,346.840 26.400,346.400 26.400 C 345.960 26.400,345.600 26.220,345.600 26.000 C 345.600 25.780,345.240 25.600,344.800 25.600 C 344.360 25.600,344.000 25.420,344.000 25.200 C 344.000 24.980,343.640 24.800,343.200 24.800 C 342.760 24.800,342.400 24.620,342.400 24.400 C 342.400 24.180,342.040 24.000,341.600 24.000 C 341.160 24.000,340.800 23.820,340.800 23.600 C 340.800 23.380,340.451 23.200,340.024 23.200 C 339.597 23.200,339.136 23.020,339.000 22.800 C 338.864 22.580,338.403 22.400,337.976 22.400 C 337.549 22.400,337.200 22.220,337.200 22.000 C 337.200 21.780,336.840 21.600,336.400 21.600 C 335.960 21.600,335.600 21.420,335.600 21.200 C 335.600 20.980,335.161 20.800,334.624 20.800 C 334.087 20.800,333.536 20.620,333.400 20.400 C 333.264 20.180,332.803 20.000,332.376 20.000 C 331.949 20.000,331.600 19.820,331.600 19.600 C 331.600 19.380,331.161 19.200,330.624 19.200 C 330.087 19.200,329.536 19.020,329.400 18.800 C 329.264 18.580,328.803 18.400,328.376 18.400 C 327.949 18.400,327.600 18.220,327.600 18.000 C 327.600 17.780,327.060 17.600,326.400 17.600 C 325.740 17.600,325.200 17.420,325.200 17.200 C 325.200 16.980,324.761 16.800,324.224 16.800 C 323.687 16.800,323.136 16.620,323.000 16.400 C 322.864 16.180,322.313 16.000,321.776 16.000 C 321.239 16.000,320.800 15.820,320.800 15.600 C 320.800 15.380,320.260 15.200,319.600 15.200 C 318.940 15.200,318.400 15.020,318.400 14.800 C 318.400 14.580,317.860 14.400,317.200 14.400 C 316.540 14.400,316.000 14.220,316.000 14.000 C 316.000 13.780,315.471 13.600,314.824 13.600 C 314.177 13.600,313.536 13.420,313.400 13.200 C 313.264 12.980,312.533 12.800,311.776 12.800 C 311.019 12.800,310.400 12.640,310.400 12.444 C 310.400 12.248,309.815 11.995,309.100 11.881 C 308.385 11.767,307.080 11.457,306.200 11.191 C 305.320 10.926,303.295 10.513,301.700 10.275 C 300.105 10.037,298.800 9.697,298.800 9.521 C 298.800 9.344,298.080 9.200,297.200 9.200 C 296.320 9.200,295.600 9.020,295.600 8.800 C 295.600 8.580,294.700 8.400,293.600 8.400 C 292.500 8.400,291.600 8.220,291.600 8.000 C 291.600 7.780,290.790 7.600,289.800 7.600 C 288.810 7.600,288.000 7.420,288.000 7.200 C 288.000 6.980,287.100 6.800,286.000 6.800 C 284.900 6.800,284.000 6.620,284.000 6.400 C 284.000 6.180,283.021 6.000,281.824 6.000 C 280.627 6.000,279.536 5.820,279.400 5.600 C 279.264 5.380,278.173 5.200,276.976 5.200 C 275.779 5.200,274.800 5.020,274.800 4.800 C 274.800 4.578,273.741 4.400,272.424 4.400 C 271.117 4.400,269.936 4.220,269.800 4.000 C 269.664 3.780,268.393 3.600,266.976 3.600 C 265.525 3.600,264.400 3.425,264.400 3.200 C 264.400 2.967,263.075 2.800,261.224 2.800 C 259.477 2.800,257.936 2.620,257.800 2.400 C 257.664 2.180,255.954 2.000,254.000 2.000 C 252.046 2.000,250.336 1.820,250.200 1.600 C 250.061 1.375,248.156 1.200,245.856 1.200 C 243.171 1.200,241.592 1.032,241.273 0.713 C 240.796 0.236,180.005 -0.111,164.808 0.276 M217.600 15.600 C 217.600 15.852,220.333 16.000,225.000 16.000 C 229.667 16.000,232.400 16.148,232.400 16.400 C 232.400 16.644,234.259 16.800,237.176 16.800 C 239.929 16.800,242.058 16.969,242.200 17.200 C 242.336 17.421,244.130 17.600,246.200 17.600 C 248.270 17.600,250.064 17.779,250.200 18.000 C 250.336 18.220,251.877 18.400,253.624 18.400 C 255.475 18.400,256.800 18.567,256.800 18.800 C 256.800 19.028,257.992 19.200,259.576 19.200 C 261.103 19.200,262.464 19.380,262.600 19.600 C 262.736 19.820,263.996 20.000,265.400 20.000 C 266.804 20.000,268.064 20.180,268.200 20.400 C 268.336 20.620,269.416 20.800,270.600 20.800 C 271.784 20.800,272.864 20.980,273.000 21.200 C 273.136 21.420,274.126 21.600,275.200 21.600 C 276.274 21.600,277.264 21.780,277.400 22.000 C 277.536 22.220,278.526 22.400,279.600 22.400 C 280.674 22.400,281.664 22.580,281.800 22.800 C 281.936 23.020,282.836 23.200,283.800 23.200 C 284.764 23.200,285.652 23.361,285.774 23.558 C 286.005 23.932,286.754 24.076,292.500 24.855 C 294.425 25.116,296.000 25.480,296.000 25.664 C 296.000 25.849,296.630 26.000,297.400 26.000 C 298.170 26.000,298.800 26.180,298.800 26.400 C 298.800 26.620,299.520 26.800,300.400 26.800 C 301.280 26.800,302.000 26.980,302.000 27.200 C 302.000 27.420,302.529 27.600,303.176 27.600 C 303.823 27.600,304.464 27.780,304.600 28.000 C 304.736 28.220,305.467 28.400,306.224 28.400 C 306.981 28.400,307.600 28.580,307.600 28.800 C 307.600 29.020,308.129 29.200,308.776 29.200 C 309.423 29.200,310.064 29.380,310.200 29.600 C 310.336 29.820,310.977 30.000,311.624 30.000 C 312.271 30.000,312.800 30.180,312.800 30.400 C 312.800 30.620,313.340 30.800,314.000 30.800 C 314.660 30.800,315.200 30.980,315.200 31.200 C 315.200 31.420,315.740 31.600,316.400 31.600 C 317.060 31.600,317.600 31.780,317.600 32.000 C 317.600 32.220,318.140 32.400,318.800 32.400 C 319.460 32.400,320.000 32.580,320.000 32.800 C 320.000 33.020,320.439 33.200,320.976 33.200 C 321.513 33.200,322.064 33.380,322.200 33.600 C 322.336 33.820,322.797 34.000,323.224 34.000 C 323.651 34.000,324.000 34.180,324.000 34.400 C 324.000 34.620,324.540 34.800,325.200 34.800 C 325.860 34.800,326.400 34.980,326.400 35.200 C 326.400 35.420,326.749 35.600,327.176 35.600 C 327.603 35.600,328.064 35.780,328.200 36.000 C 328.336 36.220,328.797 36.400,329.224 36.400 C 329.651 36.400,330.000 36.580,330.000 36.800 C 330.000 37.020,330.236 37.200,330.525 37.200 C 330.814 37.200,331.795 37.560,332.706 38.000 C 333.616 38.440,334.640 38.800,334.981 38.800 C 335.321 38.800,335.600 38.980,335.600 39.200 C 335.600 39.420,335.960 39.600,336.400 39.600 C 336.840 39.600,337.200 39.780,337.200 40.000 C 337.200 40.220,337.560 40.400,338.000 40.400 C 338.440 40.400,338.800 40.560,338.800 40.755 C 338.800 40.951,339.430 41.229,340.200 41.374 C 340.970 41.518,341.600 41.808,341.600 42.018 C 341.600 42.228,341.870 42.400,342.200 42.400 C 342.530 42.400,342.800 42.546,342.800 42.725 C 342.800 42.904,343.430 43.298,344.200 43.600 C 344.970 43.902,345.600 44.296,345.600 44.475 C 345.600 44.654,345.836 44.800,346.125 44.800 C 346.413 44.800,347.036 45.160,347.508 45.600 C 347.980 46.040,348.604 46.400,348.895 46.400 C 349.186 46.400,349.683 46.760,350.000 47.200 C 350.317 47.640,350.825 48.000,351.128 48.000 C 351.431 48.000,352.183 48.540,352.800 49.200 C 353.417 49.860,354.135 50.400,354.396 50.400 C 354.980 50.400,361.416 56.980,362.319 58.500 C 362.678 59.105,363.114 59.600,363.286 59.600 C 363.459 59.600,363.600 59.960,363.600 60.400 C 363.600 60.840,363.735 61.201,363.900 61.203 C 364.259 61.207,365.200 63.144,365.200 63.880 C 365.200 64.166,365.380 64.400,365.600 64.400 C 365.820 64.400,366.000 65.199,366.000 66.176 C 366.000 67.153,366.180 68.064,366.400 68.200 C 366.620 68.336,366.800 68.797,366.800 69.224 C 366.800 69.651,366.620 70.000,366.400 70.000 C 366.180 70.000,366.000 70.900,366.000 72.000 C 366.000 73.100,365.820 74.000,365.600 74.000 C 365.380 74.000,365.200 74.360,365.200 74.800 C 365.200 75.240,365.020 75.600,364.800 75.600 C 364.580 75.600,364.400 75.960,364.400 76.400 C 364.400 76.840,364.220 77.200,364.000 77.200 C 363.780 77.200,363.600 77.442,363.600 77.738 C 363.600 78.034,363.240 78.602,362.800 79.000 C 362.360 79.398,362.000 79.883,362.000 80.076 C 362.000 80.466,361.509 81.036,358.023 84.700 C 356.715 86.075,355.481 87.200,355.281 87.200 C 355.082 87.200,354.394 87.695,353.752 88.300 C 353.111 88.905,352.094 89.655,351.493 89.968 C 350.892 90.280,350.400 90.685,350.400 90.868 C 350.400 91.050,350.130 91.200,349.800 91.200 C 349.470 91.200,349.200 91.380,349.200 91.600 C 349.200 91.820,348.945 92.000,348.633 92.000 C 348.322 92.000,348.007 92.137,347.933 92.304 C 347.685 92.869,334.594 99.600,333.743 99.600 C 333.444 99.600,333.200 99.780,333.200 100.000 C 333.200 100.220,332.840 100.400,332.400 100.400 C 331.960 100.400,331.600 100.580,331.600 100.800 C 331.600 101.020,331.150 101.200,330.600 101.200 C 330.050 101.200,329.600 101.380,329.600 101.600 C 329.600 101.820,329.364 102.000,329.075 102.000 C 328.786 102.000,327.805 102.360,326.894 102.800 C 325.984 103.240,324.960 103.600,324.619 103.600 C 324.279 103.600,324.000 103.780,324.000 104.000 C 324.000 104.220,323.460 104.400,322.800 104.400 C 322.140 104.400,321.600 104.580,321.600 104.800 C 321.600 105.020,321.161 105.200,320.624 105.200 C 320.087 105.200,319.536 105.380,319.400 105.600 C 319.264 105.820,318.801 106.000,318.371 106.000 C 317.941 106.000,317.232 106.180,316.795 106.400 C 316.358 106.620,315.642 106.980,315.205 107.200 C 314.768 107.420,313.958 107.600,313.405 107.600 C 312.852 107.600,312.400 107.780,312.400 108.000 C 312.400 108.220,311.860 108.400,311.200 108.400 C 310.540 108.400,310.000 108.580,310.000 108.800 C 310.000 109.020,309.490 109.200,308.867 109.200 C 308.243 109.200,307.599 109.335,307.435 109.500 C 307.271 109.665,305.936 110.008,304.469 110.263 C 303.001 110.518,301.080 110.935,300.200 111.190 C 297.183 112.064,295.398 112.472,293.700 112.676 C 292.765 112.789,292.000 113.042,292.000 113.240 C 292.000 113.438,291.280 113.600,290.400 113.600 C 289.520 113.600,288.800 113.780,288.800 114.000 C 288.800 114.220,287.900 114.400,286.800 114.400 C 285.700 114.400,284.800 114.580,284.800 114.800 C 284.800 115.020,284.026 115.200,283.080 115.200 C 282.134 115.200,281.189 115.363,280.980 115.561 C 280.623 115.900,279.464 116.098,274.600 116.648 C 273.500 116.772,272.429 117.037,272.220 117.237 C 272.011 117.437,270.897 117.600,269.744 117.600 C 268.591 117.600,267.536 117.780,267.400 118.000 C 267.264 118.220,266.094 118.400,264.800 118.400 C 263.506 118.400,262.336 118.580,262.200 118.800 C 262.064 119.020,260.613 119.200,258.976 119.200 C 257.259 119.200,256.000 119.369,256.000 119.600 C 256.000 119.835,254.608 120.000,252.624 120.000 C 250.767 120.000,249.136 120.180,249.000 120.400 C 248.863 120.621,247.063 120.800,244.976 120.800 C 242.725 120.800,241.200 120.962,241.200 121.200 C 241.200 121.446,239.208 121.600,236.024 121.600 C 233.004 121.600,230.744 121.767,230.600 122.000 C 230.448 122.245,227.204 122.400,222.200 122.400 C 217.196 122.400,213.952 122.555,213.800 122.800 C 213.643 123.054,208.604 123.200,200.000 123.200 C 191.396 123.200,186.357 123.054,186.200 122.800 C 186.048 122.554,182.796 122.400,177.776 122.400 C 172.592 122.400,169.600 122.254,169.600 122.000 C 169.600 121.753,167.533 121.600,164.200 121.600 C 160.867 121.600,158.800 121.447,158.800 121.200 C 158.800 120.962,157.275 120.800,155.024 120.800 C 152.937 120.800,151.137 120.621,151.000 120.400 C 150.864 120.180,149.233 120.000,147.376 120.000 C 145.392 120.000,144.000 119.835,144.000 119.600 C 144.000 119.372,142.808 119.200,141.224 119.200 C 139.697 119.200,138.336 119.020,138.200 118.800 C 138.064 118.580,136.804 118.400,135.400 118.400 C 133.996 118.400,132.736 118.220,132.600 118.000 C 132.464 117.780,131.283 117.600,129.976 117.600 C 128.659 117.600,127.600 117.422,127.600 117.200 C 127.600 116.980,126.711 116.800,125.624 116.800 C 124.537 116.800,123.536 116.620,123.400 116.400 C 123.264 116.180,122.274 116.000,121.200 116.000 C 120.126 116.000,119.136 115.820,119.000 115.600 C 118.864 115.380,117.953 115.200,116.976 115.200 C 115.999 115.200,115.200 115.020,115.200 114.800 C 115.200 114.580,114.300 114.400,113.200 114.400 C 112.100 114.400,111.200 114.220,111.200 114.000 C 111.200 113.780,110.480 113.600,109.600 113.600 C 108.720 113.600,108.000 113.438,108.000 113.240 C 108.000 113.042,107.235 112.788,106.300 112.676 C 104.164 112.418,102.431 112.038,101.400 111.600 C 100.538 111.234,99.440 110.982,96.000 110.361 C 94.790 110.142,93.487 109.792,93.105 109.582 C 92.723 109.372,91.969 109.200,91.429 109.200 C 90.889 109.200,90.336 109.020,90.200 108.800 C 90.064 108.580,89.524 108.400,89.000 108.400 C 88.476 108.400,87.936 108.220,87.800 108.000 C 87.664 107.780,87.124 107.600,86.600 107.600 C 86.076 107.600,85.536 107.420,85.400 107.200 C 85.264 106.980,84.724 106.800,84.200 106.800 C 83.676 106.800,83.136 106.620,83.000 106.400 C 82.864 106.180,82.313 106.000,81.776 106.000 C 81.239 106.000,80.800 105.820,80.800 105.600 C 80.800 105.380,80.260 105.200,79.600 105.200 C 78.940 105.200,78.400 105.020,78.400 104.800 C 78.400 104.580,77.860 104.400,77.200 104.400 C 76.540 104.400,76.000 104.220,76.000 104.000 C 76.000 103.780,75.651 103.600,75.224 103.600 C 74.797 103.600,74.336 103.420,74.200 103.200 C 74.064 102.980,73.603 102.800,73.176 102.800 C 72.749 102.800,72.400 102.620,72.400 102.400 C 72.400 102.180,71.950 102.000,71.400 102.000 C 70.850 102.000,70.400 101.820,70.400 101.600 C 70.400 101.380,69.950 101.200,69.400 101.200 C 68.850 101.200,68.400 101.020,68.400 100.800 C 68.400 100.580,68.040 100.400,67.600 100.400 C 67.160 100.400,66.800 100.220,66.800 100.000 C 66.800 99.780,66.550 99.600,66.245 99.600 C 65.940 99.600,63.555 98.500,60.945 97.155 C 58.335 95.810,55.615 94.422,54.900 94.071 C 54.185 93.720,53.600 93.291,53.600 93.117 C 53.600 92.942,53.322 92.800,52.983 92.800 C 52.644 92.800,51.980 92.440,51.508 92.000 C 51.036 91.560,50.413 91.200,50.125 91.200 C 49.836 91.200,49.600 91.050,49.600 90.868 C 49.600 90.685,49.105 90.280,48.500 89.968 C 47.895 89.655,46.923 88.905,46.340 88.300 C 45.756 87.695,45.103 87.200,44.888 87.200 C 44.127 87.200,38.986 81.715,37.689 79.519 C 37.325 78.904,36.886 78.400,36.714 78.400 C 36.541 78.400,36.400 78.130,36.400 77.800 C 36.400 77.470,36.220 77.200,36.000 77.200 C 35.780 77.200,35.600 76.840,35.600 76.400 C 35.600 75.960,35.420 75.600,35.200 75.600 C 34.980 75.600,34.800 75.240,34.800 74.800 C 34.800 74.360,34.620 74.000,34.400 74.000 C 34.180 74.000,34.000 73.100,34.000 72.000 C 34.000 70.900,33.820 70.000,33.600 70.000 C 33.380 70.000,33.200 69.651,33.200 69.224 C 33.200 68.797,33.380 68.336,33.600 68.200 C 33.820 68.064,34.000 67.153,34.000 66.176 C 34.000 65.199,34.180 64.400,34.400 64.400 C 34.620 64.400,34.800 64.040,34.800 63.600 C 34.800 63.160,34.980 62.800,35.200 62.800 C 35.420 62.800,35.600 62.440,35.600 62.000 C 35.600 61.560,35.780 61.200,36.000 61.200 C 36.220 61.200,36.400 60.880,36.400 60.488 C 36.400 60.097,36.760 59.517,37.200 59.200 C 37.640 58.883,38.003 58.438,38.008 58.212 C 38.018 57.620,45.042 50.400,45.606 50.400 C 45.866 50.400,46.583 49.860,47.200 49.200 C 47.817 48.540,48.569 48.000,48.872 48.000 C 49.175 48.000,49.683 47.640,50.000 47.200 C 50.317 46.760,50.857 46.400,51.200 46.400 C 51.543 46.400,52.083 46.040,52.400 45.600 C 52.717 45.160,53.297 44.800,53.688 44.800 C 54.080 44.800,54.400 44.620,54.400 44.400 C 54.400 44.180,54.760 44.000,55.200 44.000 C 55.640 44.000,56.000 43.820,56.000 43.600 C 56.000 43.380,56.255 43.200,56.567 43.200 C 56.878 43.200,57.193 43.065,57.267 42.900 C 57.477 42.427,59.856 41.200,60.562 41.200 C 60.913 41.200,61.200 41.020,61.200 40.800 C 61.200 40.580,61.560 40.400,62.000 40.400 C 62.440 40.400,62.800 40.220,62.800 40.000 C 62.800 39.780,63.072 39.600,63.405 39.600 C 63.738 39.600,64.323 39.443,64.705 39.250 C 67.680 37.752,68.953 37.200,69.438 37.200 C 69.747 37.200,70.000 37.020,70.000 36.800 C 70.000 36.580,70.355 36.400,70.788 36.400 C 71.221 36.400,72.217 36.040,73.000 35.600 C 73.783 35.160,74.779 34.800,75.212 34.800 C 75.645 34.800,76.000 34.620,76.000 34.400 C 76.000 34.180,76.439 34.000,76.976 34.000 C 77.513 34.000,78.064 33.820,78.200 33.600 C 78.336 33.380,78.797 33.200,79.224 33.200 C 79.651 33.200,80.000 33.020,80.000 32.800 C 80.000 32.580,80.540 32.400,81.200 32.400 C 81.860 32.400,82.400 32.220,82.400 32.000 C 82.400 31.780,82.940 31.600,83.600 31.600 C 84.260 31.600,84.800 31.420,84.800 31.200 C 84.800 30.980,85.340 30.800,86.000 30.800 C 86.660 30.800,87.200 30.620,87.200 30.400 C 87.200 30.180,87.830 30.000,88.600 30.000 C 89.370 30.000,90.000 29.820,90.000 29.600 C 90.000 29.380,90.540 29.200,91.200 29.200 C 91.860 29.200,92.400 29.020,92.400 28.800 C 92.400 28.580,93.019 28.400,93.776 28.400 C 94.533 28.400,95.264 28.220,95.400 28.000 C 95.536 27.780,96.177 27.600,96.824 27.600 C 97.471 27.600,98.000 27.420,98.000 27.200 C 98.000 26.980,98.720 26.800,99.600 26.800 C 100.480 26.800,101.200 26.620,101.200 26.400 C 101.200 26.180,101.920 26.000,102.800 26.000 C 103.680 26.000,104.400 25.852,104.400 25.672 C 104.400 25.384,106.891 24.926,112.700 24.147 C 113.635 24.022,114.400 23.758,114.400 23.560 C 114.400 23.362,115.199 23.200,116.176 23.200 C 117.153 23.200,118.064 23.020,118.200 22.800 C 118.336 22.580,119.326 22.400,120.400 22.400 C 121.474 22.400,122.464 22.220,122.600 22.000 C 122.736 21.780,123.726 21.600,124.800 21.600 C 125.874 21.600,126.864 21.420,127.000 21.200 C 127.136 20.980,128.306 20.800,129.600 20.800 C 130.894 20.800,132.064 20.620,132.200 20.400 C 132.336 20.180,133.506 20.000,134.800 20.000 C 136.094 20.000,137.264 19.820,137.400 19.600 C 137.536 19.380,138.897 19.200,140.424 19.200 C 142.008 19.200,143.200 19.028,143.200 18.800 C 143.200 18.567,144.525 18.400,146.376 18.400 C 148.123 18.400,149.664 18.220,149.800 18.000 C 149.936 17.779,151.730 17.600,153.800 17.600 C 155.870 17.600,157.664 17.421,157.800 17.200 C 157.942 16.969,160.071 16.800,162.824 16.800 C 165.741 16.800,167.600 16.644,167.600 16.400 C 167.600 16.148,170.333 16.000,175.000 16.000 C 179.667 16.000,182.400 15.852,182.400 15.600 C 182.400 15.339,188.533 15.200,200.000 15.200 C 211.467 15.200,217.600 15.339,217.600 15.600 M34.000 99.173 C 34.000 99.378,34.369 99.663,34.820 99.806 C 35.271 99.949,36.255 100.682,37.007 101.433 C 37.758 102.185,38.568 102.800,38.805 102.800 C 39.042 102.800,39.686 103.250,40.236 103.800 C 40.786 104.350,41.395 104.800,41.590 104.800 C 41.784 104.800,42.186 105.025,42.482 105.300 C 43.374 106.127,45.302 107.368,47.000 108.208 C 47.880 108.644,48.660 109.135,48.733 109.300 C 48.807 109.465,49.212 109.600,49.633 109.600 C 50.055 109.600,50.400 109.780,50.400 110.000 C 50.400 110.220,50.760 110.400,51.200 110.400 C 51.640 110.400,52.000 110.580,52.000 110.800 C 52.000 111.020,52.345 111.200,52.767 111.200 C 53.188 111.200,53.593 111.335,53.667 111.500 C 53.859 111.932,57.172 113.600,57.838 113.600 C 58.147 113.600,58.400 113.780,58.400 114.000 C 58.400 114.220,58.745 114.400,59.167 114.400 C 59.588 114.400,59.993 114.535,60.067 114.700 C 60.259 115.132,63.572 116.800,64.238 116.800 C 64.547 116.800,64.800 116.980,64.800 117.200 C 64.800 117.420,65.250 117.600,65.800 117.600 C 66.350 117.600,66.800 117.780,66.800 118.000 C 66.800 118.220,67.149 118.400,67.576 118.400 C 68.003 118.400,68.464 118.580,68.600 118.800 C 68.736 119.020,69.287 119.200,69.824 119.200 C 70.361 119.200,70.800 119.380,70.800 119.600 C 70.800 119.820,71.340 120.000,72.000 120.000 C 72.660 120.000,73.200 120.180,73.200 120.400 C 73.200 120.620,73.549 120.800,73.976 120.800 C 74.403 120.800,74.864 120.980,75.000 121.200 C 75.136 121.420,75.676 121.600,76.200 121.600 C 76.724 121.600,77.264 121.780,77.400 122.000 C 77.536 122.220,77.999 122.400,78.429 122.400 C 78.859 122.400,79.523 122.562,79.905 122.761 C 80.287 122.960,81.410 123.337,82.400 123.600 C 83.390 123.863,84.499 124.232,84.865 124.421 C 85.231 124.609,86.446 124.885,87.565 125.033 C 88.684 125.182,89.600 125.460,89.600 125.652 C 89.600 125.843,90.320 126.000,91.200 126.000 C 92.080 126.000,92.800 126.180,92.800 126.400 C 92.800 126.620,93.430 126.800,94.200 126.800 C 94.970 126.800,95.600 126.980,95.600 127.200 C 95.600 127.420,96.219 127.600,96.976 127.600 C 97.733 127.600,98.464 127.780,98.600 128.000 C 98.736 128.220,99.557 128.400,100.424 128.400 C 101.291 128.400,102.000 128.580,102.000 128.800 C 102.000 129.020,102.720 129.200,103.600 129.200 C 104.480 129.200,105.200 129.380,105.200 129.600 C 105.200 129.820,106.100 130.000,107.200 130.000 C 108.300 130.000,109.200 130.180,109.200 130.400 C 109.200 130.620,110.010 130.800,111.000 130.800 C 111.990 130.800,112.800 130.980,112.800 131.200 C 112.800 131.420,113.700 131.600,114.800 131.600 C 115.900 131.600,116.800 131.780,116.800 132.000 C 116.800 132.222,117.867 132.400,119.200 132.400 C 120.533 132.400,121.600 132.578,121.600 132.800 C 121.600 133.022,122.667 133.200,124.000 133.200 C 125.333 133.200,126.400 133.378,126.400 133.600 C 126.400 133.825,127.525 134.000,128.976 134.000 C 130.393 134.000,131.664 134.180,131.800 134.400 C 131.936 134.620,133.207 134.800,134.624 134.800 C 136.075 134.800,137.200 134.975,137.200 135.200 C 137.200 135.433,138.533 135.600,140.400 135.600 C 142.267 135.600,143.600 135.767,143.600 136.000 C 143.600 136.238,145.125 136.400,147.376 136.400 C 149.463 136.400,151.263 136.579,151.400 136.800 C 151.542 137.029,153.604 137.200,156.224 137.200 C 159.008 137.200,160.800 137.357,160.800 137.600 C 160.800 137.850,163.259 138.000,167.376 138.000 C 171.329 138.000,174.051 138.160,174.200 138.400 C 174.361 138.660,183.396 138.800,200.000 138.800 C 216.604 138.800,225.639 138.660,225.800 138.400 C 225.949 138.160,228.663 138.000,232.600 138.000 C 236.537 138.000,239.251 137.840,239.400 137.600 C 239.542 137.371,241.604 137.200,244.224 137.200 C 247.008 137.200,248.800 137.043,248.800 136.800 C 248.800 136.561,250.333 136.400,252.600 136.400 C 254.867 136.400,256.400 136.239,256.400 136.000 C 256.400 135.767,257.733 135.600,259.600 135.600 C 261.467 135.600,262.800 135.433,262.800 135.200 C 262.800 134.971,264.000 134.800,265.600 134.800 C 267.200 134.800,268.400 134.629,268.400 134.400 C 268.400 134.175,269.525 134.000,270.976 134.000 C 272.393 134.000,273.664 133.820,273.800 133.600 C 273.936 133.380,275.027 133.200,276.224 133.200 C 277.421 133.200,278.400 133.020,278.400 132.800 C 278.400 132.578,279.467 132.400,280.800 132.400 C 282.133 132.400,283.200 132.222,283.200 132.000 C 283.200 131.780,284.100 131.600,285.200 131.600 C 286.300 131.600,287.200 131.420,287.200 131.200 C 287.200 130.980,287.999 130.800,288.976 130.800 C 289.953 130.800,290.864 130.620,291.000 130.400 C 291.136 130.180,292.047 130.000,293.024 130.000 C 294.001 130.000,294.800 129.820,294.800 129.600 C 294.800 129.380,295.520 129.200,296.400 129.200 C 297.280 129.200,298.000 129.020,298.000 128.800 C 298.000 128.580,298.799 128.400,299.776 128.400 C 300.753 128.400,301.664 128.220,301.800 128.000 C 301.936 127.780,302.577 127.600,303.224 127.600 C 303.871 127.600,304.400 127.420,304.400 127.200 C 304.400 126.980,305.120 126.800,306.000 126.800 C 306.880 126.800,307.600 126.620,307.600 126.400 C 307.600 126.180,308.230 126.000,309.000 126.000 C 309.770 126.000,310.400 125.841,310.400 125.646 C 310.400 125.451,311.387 125.169,312.594 125.018 C 313.800 124.867,314.891 124.577,315.017 124.372 C 315.144 124.167,315.689 124.000,316.229 124.000 C 316.769 124.000,317.523 123.838,317.905 123.639 C 318.287 123.440,319.410 123.049,320.400 122.769 C 321.390 122.490,322.371 122.112,322.580 121.930 C 322.789 121.749,323.363 121.600,323.856 121.600 C 324.349 121.600,324.864 121.420,325.000 121.200 C 325.136 120.980,325.597 120.800,326.024 120.800 C 326.451 120.800,326.800 120.620,326.800 120.400 C 326.800 120.180,327.340 120.000,328.000 120.000 C 328.660 120.000,329.200 119.820,329.200 119.600 C 329.200 119.380,329.639 119.200,330.176 119.200 C 330.713 119.200,331.264 119.020,331.400 118.800 C 331.536 118.580,331.997 118.400,332.424 118.400 C 332.851 118.400,333.200 118.220,333.200 118.000 C 333.200 117.780,333.639 117.600,334.176 117.600 C 334.713 117.600,335.264 117.420,335.400 117.200 C 335.536 116.980,335.997 116.800,336.424 116.800 C 336.851 116.800,337.200 116.620,337.200 116.400 C 337.200 116.180,337.560 116.000,338.000 116.000 C 338.440 116.000,338.800 115.820,338.800 115.600 C 338.800 115.380,339.160 115.200,339.600 115.200 C 340.040 115.200,340.400 115.020,340.400 114.800 C 340.400 114.580,340.670 114.400,341.000 114.400 C 341.330 114.400,341.600 114.220,341.600 114.000 C 341.600 113.780,341.949 113.600,342.376 113.600 C 342.803 113.600,343.264 113.420,343.400 113.200 C 343.536 112.980,343.963 112.800,344.348 112.800 C 344.734 112.800,345.436 112.440,345.908 112.000 C 346.380 111.560,347.044 111.200,347.383 111.200 C 347.722 111.200,348.000 111.020,348.000 110.800 C 348.000 110.580,348.360 110.400,348.800 110.400 C 349.240 110.400,349.600 110.220,349.600 110.000 C 349.600 109.780,349.945 109.600,350.367 109.600 C 350.788 109.600,351.193 109.465,351.267 109.300 C 351.340 109.135,352.120 108.646,353.000 108.213 C 355.142 107.160,359.243 104.433,360.047 103.528 C 360.403 103.128,360.916 102.800,361.186 102.800 C 361.457 102.800,362.156 102.305,362.740 101.700 C 363.323 101.095,364.295 100.345,364.900 100.032 C 365.505 99.720,366.000 99.315,366.000 99.132 C 366.000 98.950,366.183 98.800,366.406 98.800 C 366.866 98.800,366.678 148.996,366.203 152.952 C 365.988 154.734,366.051 155.385,366.460 155.639 C 366.898 155.912,366.905 156.128,366.500 156.782 C 366.225 157.226,366.000 158.134,366.000 158.800 C 366.000 159.466,365.843 160.323,365.650 160.705 C 365.458 161.087,364.949 162.120,364.520 163.000 C 362.774 166.579,362.001 167.559,356.713 172.887 C 354.795 174.819,352.950 176.400,352.613 176.400 C 352.276 176.400,352.000 176.547,352.000 176.726 C 352.000 176.905,351.415 177.357,350.700 177.730 C 348.745 178.749,346.625 180.054,346.400 180.377 C 346.290 180.535,345.615 180.919,344.900 181.230 C 344.185 181.541,343.600 181.910,343.600 182.049 C 343.600 182.189,343.060 182.527,342.400 182.800 C 341.740 183.073,341.200 183.455,341.200 183.649 C 341.200 183.842,340.840 184.000,340.400 184.000 C 339.960 184.000,339.600 184.180,339.600 184.400 C 339.600 184.620,339.240 184.800,338.800 184.800 C 338.360 184.800,338.000 184.980,338.000 185.200 C 338.000 185.420,337.728 185.600,337.395 185.600 C 337.062 185.600,336.477 185.757,336.095 185.950 C 333.120 187.448,331.847 188.000,331.362 188.000 C 331.053 188.000,330.800 188.180,330.800 188.400 C 330.800 188.620,330.440 188.800,330.000 188.800 C 329.560 188.800,329.200 188.980,329.200 189.200 C 329.200 189.420,328.750 189.600,328.200 189.600 C 327.650 189.600,327.200 189.780,327.200 190.000 C 327.200 190.220,326.761 190.400,326.224 190.400 C 325.687 190.400,325.136 190.580,325.000 190.800 C 324.864 191.020,324.403 191.200,323.976 191.200 C 323.549 191.200,323.200 191.380,323.200 191.600 C 323.200 191.820,322.660 192.000,322.000 192.000 C 321.340 192.000,320.800 192.180,320.800 192.400 C 320.800 192.620,320.260 192.800,319.600 192.800 C 318.940 192.800,318.400 192.963,318.400 193.162 C 318.400 193.362,317.500 193.649,316.400 193.800 C 315.301 193.951,314.300 194.238,314.177 194.437 C 314.054 194.637,313.524 194.800,313.000 194.800 C 312.476 194.800,311.936 194.980,311.800 195.200 C 311.664 195.420,311.023 195.600,310.376 195.600 C 309.729 195.600,309.200 195.780,309.200 196.000 C 309.200 196.220,308.581 196.400,307.824 196.400 C 307.067 196.400,306.336 196.580,306.200 196.800 C 306.064 197.020,305.423 197.200,304.776 197.200 C 304.129 197.200,303.600 197.380,303.600 197.600 C 303.600 197.820,302.880 198.000,302.000 198.000 C 301.120 198.000,300.400 198.180,300.400 198.400 C 300.400 198.620,299.781 198.800,299.024 198.800 C 298.267 198.800,297.536 198.980,297.400 199.200 C 297.264 199.420,296.544 199.600,295.800 199.600 C 295.056 199.600,294.336 199.780,294.200 200.000 C 294.064 200.220,293.333 200.400,292.576 200.400 C 291.819 200.400,291.200 200.580,291.200 200.800 C 291.200 201.020,290.300 201.200,289.200 201.200 C 288.100 201.200,287.200 201.380,287.200 201.600 C 287.200 201.820,286.401 202.000,285.424 202.000 C 284.447 202.000,283.536 202.180,283.400 202.400 C 283.264 202.620,282.364 202.800,281.400 202.800 C 280.436 202.800,279.536 202.980,279.400 203.200 C 279.264 203.420,278.353 203.600,277.376 203.600 C 276.399 203.600,275.600 203.780,275.600 204.000 C 275.600 204.222,274.541 204.400,273.224 204.400 C 271.917 204.400,270.736 204.580,270.600 204.800 C 270.464 205.020,269.283 205.200,267.976 205.200 C 266.659 205.200,265.600 205.378,265.600 205.600 C 265.600 205.829,264.400 206.000,262.800 206.000 C 261.200 206.000,260.000 206.171,260.000 206.400 C 260.000 206.631,258.741 206.800,257.024 206.800 C 255.387 206.800,253.936 206.980,253.800 207.200 C 253.664 207.420,252.044 207.600,250.200 207.600 C 248.356 207.600,246.736 207.780,246.600 208.000 C 246.461 208.225,244.529 208.400,242.176 208.400 C 239.659 208.400,238.000 208.559,238.000 208.800 C 238.000 209.048,235.800 209.200,232.200 209.200 C 228.600 209.200,226.400 209.352,226.400 209.600 C 226.400 209.863,217.467 210.000,200.400 210.000 C 183.333 210.000,174.400 209.863,174.400 209.600 C 174.400 209.351,172.067 209.200,168.200 209.200 C 164.333 209.200,162.000 209.049,162.000 208.800 C 162.000 208.559,160.333 208.400,157.800 208.400 C 155.267 208.400,153.600 208.241,153.600 208.000 C 153.600 207.763,152.133 207.600,150.000 207.600 C 147.867 207.600,146.400 207.437,146.400 207.200 C 146.400 206.967,145.067 206.800,143.200 206.800 C 141.333 206.800,140.000 206.633,140.000 206.400 C 140.000 206.174,138.867 206.000,137.400 206.000 C 135.933 206.000,134.800 205.826,134.800 205.600 C 134.800 205.378,133.741 205.200,132.424 205.200 C 131.117 205.200,129.936 205.020,129.800 204.800 C 129.664 204.580,128.573 204.400,127.376 204.400 C 126.179 204.400,125.200 204.220,125.200 204.000 C 125.200 203.780,124.210 203.600,123.000 203.600 C 121.790 203.600,120.800 203.420,120.800 203.200 C 120.800 202.980,119.900 202.800,118.800 202.800 C 117.700 202.800,116.800 202.620,116.800 202.400 C 116.800 202.180,115.900 202.000,114.800 202.000 C 113.700 202.000,112.800 201.838,112.800 201.640 C 112.800 201.442,112.035 201.178,111.100 201.053 C 106.949 200.497,106.000 200.294,106.000 199.958 C 106.000 199.761,105.291 199.600,104.424 199.600 C 103.557 199.600,102.736 199.420,102.600 199.200 C 102.464 198.980,101.733 198.800,100.976 198.800 C 100.219 198.800,99.600 198.620,99.600 198.400 C 99.600 198.180,98.981 198.000,98.224 198.000 C 97.467 198.000,96.736 197.820,96.600 197.600 C 96.464 197.380,95.834 197.200,95.200 197.200 C 94.566 197.200,93.936 197.020,93.800 196.800 C 93.664 196.580,93.034 196.400,92.400 196.400 C 91.766 196.400,91.136 196.220,91.000 196.000 C 90.864 195.780,90.401 195.600,89.971 195.600 C 89.541 195.600,88.877 195.437,88.495 195.237 C 87.353 194.640,83.578 193.600,82.554 193.600 C 82.029 193.600,81.600 193.420,81.600 193.200 C 81.600 192.980,81.060 192.800,80.400 192.800 C 79.740 192.800,79.200 192.620,79.200 192.400 C 79.200 192.180,78.660 192.000,78.000 192.000 C 77.340 192.000,76.800 191.820,76.800 191.600 C 76.800 191.380,76.440 191.200,76.000 191.200 C 75.560 191.200,75.200 191.020,75.200 190.800 C 75.200 190.580,74.761 190.400,74.224 190.400 C 73.687 190.400,73.136 190.220,73.000 190.000 C 72.864 189.780,72.403 189.600,71.976 189.600 C 71.549 189.600,71.200 189.420,71.200 189.200 C 71.200 188.980,70.750 188.800,70.200 188.800 C 69.650 188.800,69.200 188.620,69.200 188.400 C 69.200 188.180,68.840 188.000,68.400 188.000 C 67.960 188.000,67.600 187.820,67.600 187.600 C 67.600 187.380,67.240 187.200,66.800 187.200 C 66.360 187.200,66.000 187.020,66.000 186.800 C 66.000 186.580,65.665 186.400,65.255 186.400 C 64.443 186.400,57.197 182.799,56.400 181.999 C 56.290 181.889,55.660 181.529,55.000 181.199 C 54.340 180.870,53.451 180.285,53.025 179.900 C 52.598 179.515,52.013 179.200,51.725 179.200 C 51.436 179.200,51.200 179.047,51.200 178.861 C 51.200 178.674,50.480 178.197,49.600 177.800 C 48.720 177.403,48.000 176.956,48.000 176.807 C 48.000 176.657,47.505 176.280,46.900 175.968 C 45.223 175.102,37.200 166.833,37.200 165.970 C 37.200 165.748,36.840 165.180,36.400 164.708 C 35.960 164.236,35.600 163.523,35.600 163.125 C 35.600 162.726,35.420 162.400,35.200 162.400 C 34.980 162.400,34.800 161.950,34.800 161.400 C 34.800 160.850,34.620 160.400,34.400 160.400 C 34.180 160.400,34.000 159.768,34.000 158.995 C 34.000 158.222,33.775 157.208,33.500 156.742 C 33.100 156.065,33.100 155.859,33.500 155.714 C 34.108 155.494,34.197 150.969,33.600 150.600 C 33.048 150.259,33.048 98.800,33.600 98.800 C 33.820 98.800,34.000 98.968,34.000 99.173 M35.783 187.802 C 36.874 188.791,37.999 189.600,38.283 189.600 C 38.567 189.600,38.800 189.752,38.800 189.937 C 38.800 190.122,39.475 190.617,40.300 191.037 C 41.125 191.457,42.091 192.115,42.447 192.500 C 42.803 192.885,43.298 193.200,43.547 193.200 C 43.796 193.200,44.000 193.380,44.000 193.600 C 44.000 193.820,44.360 194.000,44.800 194.000 C 45.240 194.000,45.600 194.150,45.600 194.332 C 45.600 194.515,46.095 194.920,46.700 195.232 C 47.305 195.544,47.890 195.889,48.000 195.999 C 48.394 196.395,50.613 197.654,51.300 197.871 C 51.685 197.993,52.000 198.252,52.000 198.447 C 52.000 198.641,52.360 198.800,52.800 198.800 C 53.240 198.800,53.600 198.980,53.600 199.200 C 53.600 199.420,53.960 199.600,54.400 199.600 C 54.840 199.600,55.200 199.780,55.200 200.000 C 55.200 200.220,55.560 200.400,56.000 200.400 C 56.440 200.400,56.800 200.580,56.800 200.800 C 56.800 201.020,57.160 201.200,57.600 201.200 C 58.040 201.200,58.400 201.380,58.400 201.600 C 58.400 201.820,58.749 202.000,59.176 202.000 C 59.603 202.000,60.064 202.180,60.200 202.400 C 60.336 202.620,60.797 202.800,61.224 202.800 C 61.651 202.800,62.000 202.980,62.000 203.200 C 62.000 203.420,62.265 203.600,62.588 203.600 C 62.911 203.600,63.817 203.960,64.600 204.400 C 65.383 204.840,66.379 205.200,66.812 205.200 C 67.245 205.200,67.600 205.341,67.600 205.513 C 67.600 205.685,68.455 206.074,69.500 206.378 C 70.545 206.682,71.490 207.045,71.600 207.185 C 71.882 207.544,75.943 208.800,76.822 208.800 C 77.224 208.800,77.664 208.980,77.800 209.200 C 77.936 209.420,78.487 209.600,79.024 209.600 C 79.561 209.600,80.000 209.780,80.000 210.000 C 80.000 210.220,80.529 210.400,81.176 210.400 C 81.823 210.400,82.464 210.580,82.600 210.800 C 82.736 211.020,83.366 211.200,84.000 211.200 C 84.634 211.200,85.264 211.380,85.400 211.600 C 85.536 211.820,86.177 212.000,86.824 212.000 C 87.471 212.000,88.000 212.180,88.000 212.400 C 88.000 212.620,88.540 212.800,89.200 212.800 C 89.860 212.800,90.400 212.980,90.400 213.200 C 90.400 213.420,91.120 213.600,92.000 213.600 C 92.880 213.600,93.600 213.780,93.600 214.000 C 93.600 214.220,94.230 214.400,95.000 214.400 C 95.770 214.400,96.400 214.580,96.400 214.800 C 96.400 215.020,97.120 215.200,98.000 215.200 C 98.880 215.200,99.600 215.380,99.600 215.600 C 99.600 215.820,100.320 216.000,101.200 216.000 C 102.080 216.000,102.800 216.180,102.800 216.400 C 102.800 216.620,103.599 216.800,104.576 216.800 C 105.553 216.800,106.464 216.980,106.600 217.200 C 106.736 217.420,107.557 217.600,108.424 217.600 C 109.291 217.600,110.000 217.780,110.000 218.000 C 110.000 218.220,110.889 218.400,111.976 218.400 C 113.063 218.400,114.064 218.580,114.200 218.800 C 114.336 219.020,115.236 219.200,116.200 219.200 C 117.164 219.200,118.064 219.380,118.200 219.600 C 118.336 219.820,119.326 220.000,120.400 220.000 C 121.474 220.000,122.464 220.180,122.600 220.400 C 122.736 220.620,124.007 220.800,125.424 220.800 C 126.875 220.800,128.000 220.975,128.000 221.200 C 128.000 221.421,129.040 221.600,130.320 221.600 C 131.596 221.600,132.811 221.766,133.020 221.969 C 133.380 222.319,135.232 222.525,142.600 223.036 C 144.360 223.158,145.971 223.425,146.180 223.629 C 146.389 223.833,148.066 224.000,149.906 224.000 C 151.747 224.000,153.574 224.172,153.966 224.382 C 154.359 224.592,160.107 224.890,166.740 225.045 C 173.373 225.199,178.800 225.477,178.800 225.663 C 178.800 226.158,221.094 226.096,221.400 225.600 C 221.547 225.362,224.353 225.182,228.324 225.157 C 237.264 225.098,248.481 224.348,257.600 223.197 C 259.470 222.961,262.350 222.672,264.000 222.554 C 265.650 222.436,267.171 222.173,267.380 221.970 C 267.589 221.766,268.703 221.600,269.856 221.600 C 271.009 221.600,272.064 221.420,272.200 221.200 C 272.336 220.980,273.506 220.800,274.800 220.800 C 276.094 220.800,277.264 220.620,277.400 220.400 C 277.536 220.180,278.526 220.000,279.600 220.000 C 280.674 220.000,281.664 219.820,281.800 219.600 C 281.936 219.380,282.926 219.200,284.000 219.200 C 285.074 219.200,286.064 219.020,286.200 218.800 C 286.336 218.580,287.247 218.400,288.224 218.400 C 289.201 218.400,290.000 218.220,290.000 218.000 C 290.000 217.780,290.709 217.600,291.576 217.600 C 292.443 217.600,293.264 217.420,293.400 217.200 C 293.536 216.980,294.447 216.800,295.424 216.800 C 296.401 216.800,297.200 216.620,297.200 216.400 C 297.200 216.180,297.920 216.000,298.800 216.000 C 299.680 216.000,300.400 215.820,300.400 215.600 C 300.400 215.380,301.120 215.200,302.000 215.200 C 302.880 215.200,303.600 215.020,303.600 214.800 C 303.600 214.580,304.219 214.400,304.976 214.400 C 305.733 214.400,306.464 214.220,306.600 214.000 C 306.736 213.780,307.467 213.600,308.224 213.600 C 308.981 213.600,309.600 213.420,309.600 213.200 C 309.600 212.980,310.140 212.800,310.800 212.800 C 311.460 212.800,312.000 212.620,312.000 212.400 C 312.000 212.180,312.619 212.000,313.376 212.000 C 314.133 212.000,314.864 211.820,315.000 211.600 C 315.136 211.380,315.777 211.200,316.424 211.200 C 317.071 211.200,317.600 211.020,317.600 210.800 C 317.600 210.580,318.140 210.400,318.800 210.400 C 319.460 210.400,320.000 210.220,320.000 210.000 C 320.000 209.780,320.540 209.600,321.200 209.600 C 321.860 209.600,322.400 209.420,322.400 209.200 C 322.400 208.980,322.739 208.800,323.154 208.800 C 324.051 208.800,328.114 207.549,328.400 207.185 C 328.510 207.045,329.455 206.682,330.500 206.378 C 331.545 206.074,332.400 205.685,332.400 205.513 C 332.400 205.341,332.839 205.200,333.376 205.200 C 333.913 205.200,334.464 205.020,334.600 204.800 C 334.736 204.580,335.197 204.400,335.624 204.400 C 336.051 204.400,336.400 204.220,336.400 204.000 C 336.400 203.780,336.760 203.600,337.200 203.600 C 337.640 203.600,338.000 203.420,338.000 203.200 C 338.000 202.980,338.349 202.800,338.776 202.800 C 339.203 202.800,339.664 202.620,339.800 202.400 C 339.936 202.180,340.397 202.000,340.824 202.000 C 341.251 202.000,341.600 201.820,341.600 201.600 C 341.600 201.380,341.960 201.200,342.400 201.200 C 342.840 201.200,343.200 201.020,343.200 200.800 C 343.200 200.580,343.560 200.400,344.000 200.400 C 344.440 200.400,344.800 200.220,344.800 200.000 C 344.800 199.780,345.160 199.600,345.600 199.600 C 346.040 199.600,346.400 199.420,346.400 199.200 C 346.400 198.980,346.760 198.800,347.200 198.800 C 347.640 198.800,348.000 198.620,348.000 198.400 C 348.000 198.180,348.236 198.000,348.525 198.000 C 348.813 198.000,349.436 197.640,349.908 197.200 C 350.380 196.760,351.044 196.400,351.383 196.400 C 351.722 196.400,352.000 196.220,352.000 196.000 C 352.000 195.780,352.278 195.600,352.617 195.600 C 352.956 195.600,353.620 195.240,354.092 194.800 C 354.564 194.360,355.187 194.000,355.475 194.000 C 355.764 194.000,356.000 193.820,356.000 193.600 C 356.000 193.380,356.270 193.200,356.600 193.200 C 356.930 193.200,357.200 193.020,357.200 192.800 C 357.200 192.580,357.470 192.400,357.800 192.400 C 358.130 192.400,358.400 192.232,358.400 192.027 C 358.400 191.822,358.805 191.526,359.300 191.370 C 359.795 191.213,360.491 190.751,360.847 190.343 C 361.203 189.934,361.671 189.600,361.888 189.600 C 362.104 189.600,362.829 189.077,363.498 188.437 C 364.168 187.797,365.184 186.967,365.758 186.591 L 366.800 185.908 366.800 211.954 C 366.800 229.051,366.663 238.000,366.400 238.000 C 365.832 238.000,365.903 241.750,366.495 243.049 C 366.889 243.914,366.889 244.170,366.495 244.302 C 366.223 244.392,366.000 245.084,366.000 245.839 C 366.000 246.593,365.840 247.523,365.644 247.905 C 365.448 248.287,364.865 249.500,364.349 250.600 C 363.833 251.700,363.300 252.690,363.165 252.800 C 363.030 252.910,362.691 253.433,362.412 253.962 C 361.386 255.909,355.919 261.378,353.962 262.415 C 353.433 262.696,352.709 263.257,352.353 263.663 C 351.997 264.068,351.547 264.400,351.353 264.401 C 351.159 264.401,350.370 264.941,349.600 265.600 C 348.830 266.259,347.975 266.799,347.700 266.799 C 347.425 266.800,347.200 266.980,347.200 267.200 C 347.200 267.420,346.930 267.600,346.600 267.600 C 346.270 267.600,346.000 267.780,346.000 268.000 C 346.000 268.220,345.764 268.400,345.475 268.400 C 345.187 268.400,344.564 268.760,344.092 269.200 C 343.620 269.640,342.956 270.000,342.617 270.000 C 342.278 270.000,342.000 270.180,342.000 270.400 C 342.000 270.620,341.640 270.800,341.200 270.800 C 340.760 270.800,340.400 270.980,340.400 271.200 C 340.400 271.420,340.040 271.600,339.600 271.600 C 339.160 271.600,338.800 271.780,338.800 272.000 C 338.800 272.220,338.440 272.400,338.000 272.400 C 337.560 272.400,337.200 272.580,337.200 272.800 C 337.200 273.020,336.840 273.200,336.400 273.200 C 335.960 273.200,335.600 273.380,335.600 273.600 C 335.600 273.820,335.240 274.000,334.800 274.000 C 334.360 274.000,334.000 274.180,334.000 274.400 C 334.000 274.620,333.651 274.800,333.224 274.800 C 332.797 274.800,332.336 274.980,332.200 275.200 C 332.064 275.420,331.513 275.600,330.976 275.600 C 330.439 275.600,330.000 275.780,330.000 276.000 C 330.000 276.220,329.640 276.400,329.200 276.400 C 328.760 276.400,328.400 276.560,328.400 276.755 C 328.400 276.950,327.590 277.231,326.600 277.379 C 325.610 277.528,324.800 277.818,324.800 278.025 C 324.800 278.231,324.361 278.400,323.824 278.400 C 323.287 278.400,322.736 278.580,322.600 278.800 C 322.464 279.020,321.924 279.200,321.400 279.200 C 320.876 279.200,320.358 279.344,320.249 279.521 C 320.140 279.697,319.128 280.093,318.000 280.400 C 316.872 280.707,315.860 281.103,315.751 281.279 C 315.642 281.456,315.124 281.600,314.600 281.600 C 314.076 281.600,313.536 281.780,313.400 282.000 C 313.264 282.220,312.623 282.400,311.976 282.400 C 311.329 282.400,310.800 282.580,310.800 282.800 C 310.800 283.020,310.260 283.200,309.600 283.200 C 308.940 283.200,308.400 283.380,308.400 283.600 C 308.400 283.820,307.680 284.000,306.800 284.000 C 305.920 284.000,305.200 284.180,305.200 284.400 C 305.200 284.620,304.671 284.800,304.024 284.800 C 303.377 284.800,302.736 284.980,302.600 285.200 C 302.464 285.420,301.733 285.600,300.976 285.600 C 300.219 285.600,299.600 285.780,299.600 286.000 C 299.600 286.220,298.880 286.400,298.000 286.400 C 297.120 286.400,296.400 286.580,296.400 286.800 C 296.400 287.020,295.770 287.200,295.000 287.200 C 294.230 287.200,293.600 287.380,293.600 287.600 C 293.600 287.820,292.700 288.000,291.600 288.000 C 290.500 288.000,289.600 288.180,289.600 288.400 C 289.600 288.620,288.880 288.800,288.000 288.800 C 287.120 288.800,286.400 288.980,286.400 289.200 C 286.400 289.420,285.500 289.600,284.400 289.600 C 283.300 289.600,282.400 289.780,282.400 290.000 C 282.400 290.220,281.511 290.400,280.424 290.400 C 279.337 290.400,278.336 290.580,278.200 290.800 C 278.064 291.020,277.063 291.200,275.976 291.200 C 274.889 291.200,274.000 291.380,274.000 291.600 C 274.000 291.822,272.933 292.000,271.600 292.000 C 270.267 292.000,269.200 292.178,269.200 292.400 C 269.200 292.626,268.067 292.800,266.600 292.800 C 265.170 292.800,264.000 292.960,264.000 293.155 C 264.000 293.350,261.435 293.640,258.300 293.799 C 255.165 293.958,252.419 294.234,252.198 294.412 C 251.977 294.590,250.267 294.837,248.398 294.960 C 246.529 295.083,242.930 295.374,240.400 295.606 C 227.073 296.828,180.032 297.742,178.200 296.815 C 177.760 296.592,174.520 296.327,171.000 296.225 C 167.480 296.123,162.530 295.847,160.000 295.611 C 157.470 295.375,153.782 295.082,151.804 294.960 C 149.826 294.838,148.026 294.593,147.804 294.415 C 147.582 294.238,144.924 293.963,141.898 293.805 C 138.872 293.647,136.297 293.356,136.175 293.159 C 136.053 292.962,134.894 292.800,133.600 292.800 C 132.306 292.800,131.136 292.620,131.000 292.400 C 130.864 292.180,129.683 292.000,128.376 292.000 C 127.059 292.000,126.000 291.822,126.000 291.600 C 126.000 291.380,125.201 291.200,124.224 291.200 C 123.247 291.200,122.336 291.020,122.200 290.800 C 122.064 290.580,120.973 290.400,119.776 290.400 C 118.579 290.400,117.600 290.220,117.600 290.000 C 117.600 289.780,116.891 289.600,116.024 289.600 C 115.157 289.600,114.336 289.420,114.200 289.200 C 114.064 288.980,113.153 288.800,112.176 288.800 C 111.199 288.800,110.400 288.620,110.400 288.400 C 110.400 288.180,109.691 288.000,108.824 288.000 C 107.957 288.000,107.136 287.820,107.000 287.600 C 106.864 287.380,106.043 287.200,105.176 287.200 C 104.309 287.200,103.600 287.020,103.600 286.800 C 103.600 286.580,102.880 286.400,102.000 286.400 C 101.120 286.400,100.400 286.220,100.400 286.000 C 100.400 285.780,99.871 285.600,99.224 285.600 C 98.577 285.600,97.936 285.420,97.800 285.200 C 97.664 284.980,96.933 284.800,96.176 284.800 C 95.419 284.800,94.800 284.620,94.800 284.400 C 94.800 284.180,94.080 284.000,93.200 284.000 C 92.320 284.000,91.600 283.820,91.600 283.600 C 91.600 283.380,91.161 283.200,90.624 283.200 C 90.087 283.200,89.536 283.020,89.400 282.800 C 89.264 282.580,88.724 282.400,88.200 282.400 C 87.676 282.400,87.136 282.220,87.000 282.000 C 86.864 281.780,86.324 281.600,85.800 281.600 C 85.276 281.600,84.736 281.420,84.600 281.200 C 84.464 280.980,83.924 280.800,83.400 280.800 C 82.876 280.800,82.336 280.620,82.200 280.400 C 82.064 280.180,81.524 280.000,81.000 280.000 C 80.476 280.000,79.936 279.820,79.800 279.600 C 79.664 279.380,79.201 279.200,78.771 279.200 C 78.341 279.200,77.632 279.020,77.195 278.800 C 76.758 278.580,76.048 278.223,75.617 278.008 C 75.187 277.792,74.107 277.499,73.217 277.356 C 72.328 277.214,71.600 276.941,71.600 276.749 C 71.600 276.557,71.240 276.400,70.800 276.400 C 70.360 276.400,70.000 276.220,70.000 276.000 C 70.000 275.780,69.651 275.600,69.224 275.600 C 68.797 275.600,68.336 275.420,68.200 275.200 C 68.064 274.980,67.513 274.800,66.976 274.800 C 66.439 274.800,66.000 274.620,66.000 274.400 C 66.000 274.180,65.640 274.000,65.200 274.000 C 64.760 274.000,64.400 273.820,64.400 273.600 C 64.400 273.380,64.040 273.200,63.600 273.200 C 63.160 273.200,62.800 273.020,62.800 272.800 C 62.800 272.580,62.440 272.400,62.000 272.400 C 61.560 272.400,61.200 272.220,61.200 272.000 C 61.200 271.780,60.840 271.600,60.400 271.600 C 59.960 271.600,59.600 271.420,59.600 271.200 C 59.600 270.980,59.330 270.800,59.000 270.800 C 58.670 270.800,58.400 270.620,58.400 270.400 C 58.400 270.180,58.040 270.000,57.600 270.000 C 57.160 270.000,56.800 269.841,56.800 269.647 C 56.800 269.452,56.485 269.193,56.100 269.071 C 55.191 268.783,53.247 267.588,52.242 266.700 C 51.806 266.315,51.213 266.000,50.925 266.000 C 50.636 266.000,50.400 265.850,50.400 265.668 C 50.400 265.485,49.905 265.081,49.300 264.770 C 48.695 264.460,47.930 263.917,47.600 263.566 C 47.270 263.214,46.567 262.696,46.038 262.415 C 44.118 261.398,38.646 255.851,37.632 253.895 C 37.320 253.293,36.915 252.800,36.732 252.800 C 36.550 252.800,36.400 252.440,36.400 252.000 C 36.400 251.560,36.220 251.200,36.000 251.200 C 35.780 251.200,35.600 250.840,35.600 250.400 C 35.600 249.960,35.420 249.600,35.200 249.600 C 34.980 249.600,34.800 249.150,34.800 248.600 C 34.800 248.050,34.620 247.600,34.400 247.600 C 34.180 247.600,34.000 246.895,34.000 246.033 C 34.000 245.143,33.784 244.388,33.500 244.286 C 33.100 244.141,33.100 243.935,33.500 243.258 C 34.094 242.252,34.175 238.000,33.600 238.000 C 33.337 238.000,33.200 229.067,33.200 212.000 C 33.200 197.700,33.335 186.001,33.500 186.002 C 33.665 186.003,34.692 186.813,35.783 187.802 M34.599 274.100 C 36.206 275.602,36.747 276.000,37.187 276.000 C 37.418 276.000,38.172 276.540,38.863 277.200 C 39.554 277.860,40.322 278.400,40.571 278.400 C 40.820 278.400,41.283 278.760,41.600 279.200 C 41.917 279.640,42.414 280.000,42.705 280.000 C 42.996 280.000,43.589 280.331,44.023 280.736 C 44.458 281.141,45.305 281.726,45.907 282.036 C 46.508 282.346,47.349 282.915,47.775 283.300 C 48.202 283.685,48.787 284.000,49.075 284.000 C 49.364 284.000,49.600 284.180,49.600 284.400 C 49.600 284.620,49.960 284.800,50.400 284.800 C 50.840 284.800,51.200 284.980,51.200 285.200 C 51.200 285.420,51.560 285.600,52.000 285.600 C 52.440 285.600,52.800 285.780,52.800 286.000 C 52.800 286.220,53.160 286.400,53.600 286.400 C 54.040 286.400,54.400 286.580,54.400 286.800 C 54.400 287.020,54.760 287.200,55.200 287.200 C 55.640 287.200,56.000 287.380,56.000 287.600 C 56.000 287.820,56.360 288.000,56.800 288.000 C 57.240 288.000,57.600 288.180,57.600 288.400 C 57.600 288.620,57.960 288.800,58.400 288.800 C 58.840 288.800,59.200 288.980,59.200 289.200 C 59.200 289.420,59.465 289.600,59.788 289.600 C 60.111 289.600,60.998 289.949,61.758 290.376 C 62.518 290.803,63.783 291.273,64.570 291.421 C 65.356 291.568,66.000 291.849,66.000 292.045 C 66.000 292.240,66.349 292.400,66.776 292.400 C 67.203 292.400,67.664 292.580,67.800 292.800 C 67.936 293.020,68.487 293.200,69.024 293.200 C 69.561 293.200,70.000 293.380,70.000 293.600 C 70.000 293.820,70.349 294.000,70.776 294.000 C 71.203 294.000,71.664 294.180,71.800 294.400 C 71.936 294.620,72.487 294.800,73.024 294.800 C 73.561 294.800,74.000 294.980,74.000 295.200 C 74.000 295.420,74.540 295.600,75.200 295.600 C 75.860 295.600,76.400 295.780,76.400 296.000 C 76.400 296.220,76.839 296.400,77.376 296.400 C 77.913 296.400,78.464 296.580,78.600 296.800 C 78.736 297.020,79.287 297.200,79.824 297.200 C 80.361 297.200,80.800 297.380,80.800 297.600 C 80.800 297.820,81.340 298.000,82.000 298.000 C 82.660 298.000,83.200 298.180,83.200 298.400 C 83.200 298.620,83.819 298.800,84.576 298.800 C 85.333 298.800,86.064 298.980,86.200 299.200 C 86.336 299.420,86.977 299.600,87.624 299.600 C 88.271 299.600,88.800 299.780,88.800 300.000 C 88.800 300.220,89.329 300.400,89.976 300.400 C 90.623 300.400,91.264 300.580,91.400 300.800 C 91.536 301.020,92.267 301.200,93.024 301.200 C 93.781 301.200,94.400 301.380,94.400 301.600 C 94.400 301.820,95.019 302.000,95.776 302.000 C 96.533 302.000,97.264 302.180,97.400 302.400 C 97.536 302.620,98.267 302.800,99.024 302.800 C 99.781 302.800,100.400 302.980,100.400 303.200 C 100.400 303.420,101.199 303.600,102.176 303.600 C 103.153 303.600,104.064 303.780,104.200 304.000 C 104.336 304.220,105.157 304.400,106.024 304.400 C 106.891 304.400,107.600 304.580,107.600 304.800 C 107.600 305.020,108.374 305.200,109.320 305.200 C 110.266 305.200,111.211 305.363,111.420 305.561 C 111.629 305.760,112.610 306.019,113.600 306.138 C 114.590 306.256,116.390 306.552,117.600 306.795 C 123.195 307.918,129.391 308.742,132.500 308.775 C 133.765 308.789,134.800 308.980,134.800 309.200 C 134.800 309.428,135.992 309.600,137.576 309.600 C 139.103 309.600,140.464 309.780,140.600 310.000 C 140.736 310.220,142.457 310.400,144.424 310.400 C 146.541 310.400,148.000 310.563,148.000 310.800 C 148.000 311.040,149.600 311.200,152.000 311.200 C 154.400 311.200,156.000 311.360,156.000 311.600 C 156.000 311.847,158.059 312.000,161.376 312.000 C 164.529 312.000,166.855 312.165,167.000 312.400 C 167.153 312.647,170.604 312.800,176.024 312.800 C 181.608 312.800,184.800 312.945,184.800 313.200 C 184.800 313.460,190.133 313.600,200.000 313.600 C 209.867 313.600,215.200 313.460,215.200 313.200 C 215.200 312.945,218.392 312.800,223.976 312.800 C 229.396 312.800,232.847 312.647,233.000 312.400 C 233.145 312.165,235.471 312.000,238.624 312.000 C 241.941 312.000,244.000 311.847,244.000 311.600 C 244.000 311.359,245.667 311.200,248.200 311.200 C 250.733 311.200,252.400 311.041,252.400 310.800 C 252.400 310.565,253.792 310.400,255.776 310.400 C 257.633 310.400,259.264 310.220,259.400 310.000 C 259.536 309.780,260.957 309.600,262.557 309.600 C 264.157 309.600,265.600 309.465,265.764 309.300 C 265.927 309.135,268.162 308.783,270.730 308.517 C 273.299 308.251,276.570 307.839,278.000 307.602 C 279.430 307.365,281.410 307.070,282.400 306.946 C 283.390 306.823,284.371 306.560,284.580 306.361 C 284.789 306.163,285.813 306.000,286.856 306.000 C 287.899 306.000,288.864 305.820,289.000 305.600 C 289.136 305.380,289.957 305.200,290.824 305.200 C 291.691 305.200,292.400 305.038,292.400 304.840 C 292.400 304.642,293.210 304.372,294.200 304.240 C 295.190 304.108,296.810 303.892,297.800 303.760 C 298.790 303.628,299.600 303.358,299.600 303.160 C 299.600 302.962,300.219 302.800,300.976 302.800 C 301.733 302.800,302.464 302.620,302.600 302.400 C 302.736 302.180,303.456 302.000,304.200 302.000 C 304.944 302.000,305.664 301.820,305.800 301.600 C 305.936 301.380,306.667 301.200,307.424 301.200 C 308.181 301.200,308.800 301.020,308.800 300.800 C 308.800 300.580,309.340 300.400,310.000 300.400 C 310.660 300.400,311.200 300.220,311.200 300.000 C 311.200 299.780,311.819 299.600,312.576 299.600 C 313.333 299.600,314.064 299.420,314.200 299.200 C 314.336 298.980,314.977 298.800,315.624 298.800 C 316.271 298.800,316.800 298.620,316.800 298.400 C 316.800 298.180,317.340 298.000,318.000 298.000 C 318.660 298.000,319.200 297.820,319.200 297.600 C 319.200 297.380,319.740 297.200,320.400 297.200 C 321.060 297.200,321.600 297.020,321.600 296.800 C 321.600 296.580,322.050 296.400,322.600 296.400 C 323.150 296.400,323.600 296.220,323.600 296.000 C 323.600 295.780,324.140 295.600,324.800 295.600 C 325.460 295.600,326.000 295.420,326.000 295.200 C 326.000 294.980,326.439 294.800,326.976 294.800 C 327.513 294.800,328.064 294.620,328.200 294.400 C 328.336 294.180,328.797 294.000,329.224 294.000 C 329.651 294.000,330.000 293.820,330.000 293.600 C 330.000 293.380,330.439 293.200,330.976 293.200 C 331.513 293.200,332.064 293.020,332.200 292.800 C 332.336 292.580,332.797 292.400,333.224 292.400 C 333.651 292.400,334.000 292.220,334.000 292.000 C 334.000 291.780,334.378 291.600,334.840 291.600 C 335.301 291.600,336.336 291.311,337.140 290.958 C 340.214 289.608,342.205 288.589,342.333 288.300 C 342.407 288.135,342.812 288.000,343.233 288.000 C 343.655 288.000,344.000 287.820,344.000 287.600 C 344.000 287.380,344.360 287.200,344.800 287.200 C 345.240 287.200,345.600 287.020,345.600 286.800 C 345.600 286.580,345.960 286.400,346.400 286.400 C 346.840 286.400,347.200 286.220,347.200 286.000 C 347.200 285.780,347.560 285.600,348.000 285.600 C 348.440 285.600,348.800 285.420,348.800 285.200 C 348.800 284.980,349.160 284.800,349.600 284.800 C 350.040 284.800,350.400 284.620,350.400 284.400 C 350.400 284.180,350.636 284.000,350.925 284.000 C 351.213 284.000,351.836 283.640,352.308 283.200 C 352.780 282.760,353.444 282.400,353.783 282.400 C 354.122 282.400,354.400 282.220,354.400 282.000 C 354.400 281.780,354.670 281.600,355.000 281.600 C 355.330 281.600,355.600 281.420,355.600 281.200 C 355.600 280.980,355.870 280.800,356.200 280.800 C 356.530 280.800,356.800 280.620,356.800 280.400 C 356.800 280.180,357.030 280.000,357.312 280.000 C 357.593 280.000,358.083 279.640,358.400 279.200 C 358.717 278.760,359.180 278.400,359.429 278.400 C 359.678 278.400,360.446 277.860,361.137 277.200 C 361.828 276.540,362.582 276.000,362.813 276.000 C 363.253 276.000,363.794 275.602,365.401 274.100 C 365.930 273.605,366.462 273.200,366.582 273.200 C 366.702 273.200,366.800 286.520,366.800 302.800 C 366.800 322.267,366.663 332.400,366.400 332.400 C 366.180 332.400,366.000 333.120,366.000 334.000 C 366.000 334.880,365.820 335.600,365.600 335.600 C 365.380 335.600,365.200 335.960,365.200 336.400 C 365.200 336.840,365.020 337.200,364.800 337.200 C 364.580 337.200,364.400 337.560,364.400 338.000 C 364.400 338.440,364.220 338.800,364.000 338.800 C 363.780 338.800,363.600 339.160,363.600 339.600 C 363.600 340.040,363.450 340.400,363.268 340.400 C 363.085 340.400,362.680 340.890,362.368 341.489 C 361.747 342.680,355.379 349.200,354.837 349.200 C 354.652 349.200,353.813 349.830,352.972 350.600 C 352.131 351.370,351.291 352.000,351.105 352.000 C 350.919 352.000,350.380 352.360,349.908 352.800 C 349.436 353.240,348.813 353.600,348.525 353.600 C 348.236 353.600,348.000 353.780,348.000 354.000 C 348.000 354.220,347.730 354.400,347.400 354.400 C 347.070 354.400,346.800 354.580,346.800 354.800 C 346.800 355.020,346.530 355.200,346.200 355.200 C 345.870 355.200,345.600 355.346,345.600 355.525 C 345.600 355.704,344.970 356.098,344.200 356.400 C 343.430 356.702,342.800 357.096,342.800 357.275 C 342.800 357.454,342.440 357.600,342.000 357.600 C 341.560 357.600,341.200 357.780,341.200 358.000 C 341.200 358.220,340.840 358.400,340.400 358.400 C 339.960 358.400,339.600 358.536,339.600 358.702 C 339.600 359.003,338.495 359.556,336.200 360.404 C 334.985 360.853,331.181 362.564,329.905 363.235 C 329.523 363.436,328.938 363.600,328.605 363.600 C 328.272 363.600,328.000 363.747,328.000 363.928 C 328.000 364.108,327.100 364.500,326.000 364.800 C 324.900 365.100,324.000 365.492,324.000 365.672 C 324.000 365.853,323.561 366.000,323.024 366.000 C 322.487 366.000,321.936 366.180,321.800 366.400 C 321.664 366.620,321.201 366.800,320.771 366.800 C 320.341 366.800,319.632 366.980,319.195 367.200 C 318.758 367.420,318.042 367.780,317.605 368.000 C 317.168 368.220,316.459 368.400,316.029 368.400 C 315.599 368.400,315.136 368.580,315.000 368.800 C 314.864 369.020,314.223 369.200,313.576 369.200 C 312.929 369.200,312.400 369.380,312.400 369.600 C 312.400 369.820,311.860 370.000,311.200 370.000 C 310.540 370.000,310.000 370.180,310.000 370.400 C 310.000 370.620,309.460 370.800,308.800 370.800 C 308.140 370.800,307.600 370.980,307.600 371.200 C 307.600 371.420,306.880 371.600,306.000 371.600 C 305.120 371.600,304.400 371.780,304.400 372.000 C 304.400 372.220,303.770 372.400,303.000 372.400 C 302.230 372.400,301.600 372.580,301.600 372.800 C 301.600 373.020,300.970 373.200,300.200 373.200 C 299.430 373.200,298.800 373.380,298.800 373.600 C 298.800 373.820,298.091 374.000,297.224 374.000 C 296.357 374.000,295.536 374.180,295.400 374.400 C 295.264 374.620,294.443 374.800,293.576 374.800 C 292.709 374.800,292.000 374.980,292.000 375.200 C 292.000 375.420,291.280 375.600,290.400 375.600 C 289.520 375.600,288.800 375.780,288.800 376.000 C 288.800 376.220,287.900 376.400,286.800 376.400 C 285.700 376.400,284.800 376.559,284.800 376.753 C 284.800 376.947,283.225 377.235,281.300 377.393 C 279.375 377.551,277.620 377.824,277.400 377.999 C 277.023 378.299,275.630 378.507,270.400 379.044 C 269.190 379.169,268.029 379.435,267.820 379.635 C 267.611 379.836,266.306 380.000,264.920 380.000 C 263.507 380.000,262.400 380.176,262.400 380.400 C 262.400 380.628,261.208 380.800,259.624 380.800 C 258.097 380.800,256.736 380.980,256.600 381.200 C 256.464 381.420,254.934 381.600,253.200 381.600 C 251.466 381.600,249.936 381.780,249.800 382.000 C 249.664 382.220,247.954 382.400,246.000 382.400 C 244.046 382.400,242.336 382.580,242.200 382.800 C 242.058 383.030,239.937 383.200,237.200 383.200 C 234.463 383.200,232.342 383.370,232.200 383.600 C 232.050 383.843,229.137 384.000,224.800 384.000 C 220.463 384.000,217.550 384.157,217.400 384.400 C 217.241 384.657,211.004 384.800,200.000 384.800 C 188.996 384.800,182.759 384.657,182.600 384.400 C 182.450 384.157,179.537 384.000,175.200 384.000 C 170.863 384.000,167.950 383.843,167.800 383.600 C 167.658 383.369,165.529 383.200,162.776 383.200 C 159.859 383.200,158.000 383.044,158.000 382.800 C 158.000 382.562,156.475 382.400,154.224 382.400 C 152.137 382.400,150.337 382.221,150.200 382.000 C 150.064 381.780,148.534 381.600,146.800 381.600 C 145.066 381.600,143.536 381.420,143.400 381.200 C 143.264 380.980,142.004 380.800,140.600 380.800 C 139.196 380.800,137.936 380.620,137.800 380.400 C 137.664 380.180,136.429 380.000,135.056 380.000 C 133.683 380.000,132.389 379.836,132.180 379.635 C 131.971 379.435,130.720 379.162,129.400 379.029 C 123.833 378.470,122.800 378.309,122.800 378.000 C 122.800 377.821,121.090 377.546,119.000 377.390 C 116.910 377.233,115.200 376.946,115.200 376.752 C 115.200 376.559,114.300 376.400,113.200 376.400 C 112.100 376.400,111.200 376.220,111.200 376.000 C 111.200 375.780,110.480 375.600,109.600 375.600 C 108.720 375.600,108.000 375.420,108.000 375.200 C 108.000 374.980,107.291 374.800,106.424 374.800 C 105.557 374.800,104.736 374.620,104.600 374.400 C 104.464 374.180,103.643 374.000,102.776 374.000 C 101.909 374.000,101.200 373.820,101.200 373.600 C 101.200 373.380,100.671 373.200,100.024 373.200 C 99.377 373.200,98.736 373.020,98.600 372.800 C 98.464 372.580,97.733 372.400,96.976 372.400 C 96.219 372.400,95.600 372.220,95.600 372.000 C 95.600 371.780,94.880 371.600,94.000 371.600 C 93.120 371.600,92.400 371.420,92.400 371.200 C 92.400 370.980,91.860 370.800,91.200 370.800 C 90.540 370.800,90.000 370.620,90.000 370.400 C 90.000 370.180,89.561 370.000,89.024 370.000 C 88.487 370.000,87.936 369.820,87.800 369.600 C 87.664 369.380,87.034 369.200,86.400 369.200 C 85.766 369.200,85.136 369.020,85.000 368.800 C 84.864 368.580,84.401 368.400,83.971 368.400 C 83.541 368.400,82.832 368.220,82.395 368.000 C 81.958 367.780,81.242 367.420,80.805 367.200 C 80.368 366.980,79.648 366.800,79.205 366.800 C 78.762 366.800,78.400 366.620,78.400 366.400 C 78.400 366.180,77.860 366.000,77.200 366.000 C 76.540 366.000,76.000 365.820,76.000 365.600 C 76.000 365.380,75.728 365.200,75.395 365.200 C 75.062 365.200,74.477 365.041,74.095 364.847 C 73.376 364.481,71.596 363.722,70.200 363.186 C 69.760 363.017,68.223 362.334,66.785 361.668 C 65.348 361.003,63.683 360.336,63.085 360.186 C 62.488 360.036,62.000 359.753,62.000 359.557 C 62.000 359.360,61.640 359.200,61.200 359.200 C 60.760 359.200,60.400 359.020,60.400 358.800 C 60.400 358.580,60.040 358.400,59.600 358.400 C 59.160 358.400,58.800 358.254,58.800 358.075 C 58.800 357.896,58.170 357.502,57.400 357.200 C 56.630 356.898,56.000 356.504,56.000 356.325 C 56.000 356.146,55.722 356.000,55.383 356.000 C 55.044 356.000,54.380 355.640,53.908 355.200 C 53.436 354.760,52.813 354.400,52.525 354.400 C 52.236 354.400,52.000 354.220,52.000 354.000 C 52.000 353.780,51.764 353.600,51.475 353.600 C 51.187 353.600,50.564 353.240,50.092 352.800 C 49.620 352.360,49.081 352.000,48.895 352.000 C 48.709 352.000,47.869 351.370,47.028 350.600 C 46.187 349.830,45.351 349.200,45.171 349.200 C 44.653 349.200,38.000 342.382,38.000 341.852 C 38.000 341.591,37.640 341.117,37.200 340.800 C 36.760 340.483,36.400 339.903,36.400 339.512 C 36.400 339.120,36.220 338.800,36.000 338.800 C 35.780 338.800,35.600 338.440,35.600 338.000 C 35.600 337.560,35.420 337.200,35.200 337.200 C 34.980 337.200,34.800 336.840,34.800 336.400 C 34.800 335.960,34.620 335.600,34.400 335.600 C 34.180 335.600,34.000 334.880,34.000 334.000 C 34.000 333.120,33.820 332.400,33.600 332.400 C 33.337 332.400,33.200 322.267,33.200 302.800 C 33.200 286.520,33.298 273.200,33.418 273.200 C 33.538 273.200,34.070 273.605,34.599 274.100 " stroke="none" fill="currentColor" fill-rule="evenodd"/>
    <path id="path1" d="" stroke="none" fill="#383434" fill-rule="evenodd"/>
    <path id="path2" d="" stroke="none" fill="#383434" fill-rule="evenodd"/>
    <path id="path3" d="" stroke="none" fill="#383434" fill-rule="evenodd"/>
    <path id="path4" d="" stroke="none" fill="#383434" fill-rule="evenodd"/>
  </g>

</symbol></svg>