<?xml version="1.0" encoding="utf-8"?>
<svg xmlns="http://www.w3.org/2000/svg">
<symbol id="datepicker" viewBox="0 0 16 16">
<g id="svgg">
<path fill-rule="evenodd" clip-rule="evenodd" d="M14.463 16H1.538C0.69 16 0 15.31 0 14.462V1H3V0H4V1V2V3H3V2H1V4H15V2H13V3H12V2V1V0H13V1H16V14.462C16 15.31 15.31 16 14.463 16ZM15 5H1V14.462C1 14.759 1.241 15 1.538 15H14.462C14.759 15 15 14.759 15 14.462V5ZM5.704 13.049C6.985 13.049 7.818 11.932 7.818 9.872C7.818 7.82 6.985 6.747 5.704 6.747C4.423 6.747 3.589 7.813 3.589 9.872C3.589 11.932 4.423 13.049 5.704 13.049ZM5.704 7.718C6.236 7.718 6.634 8.184 6.634 9.872C6.634 11.56 6.237 12.079 5.704 12.079C5.171 12.079 4.773 11.56 4.773 9.872C4.773 8.184 5.171 7.718 5.704 7.718ZM10.289 13.049C9.094 13.049 8.203 12.364 8.203 11.382C8.203 10.636 8.696 10.159 9.27 9.854V9.816C8.803 9.475 8.445 9.031 8.445 8.394C8.445 7.387 9.241 6.748 10.331 6.748C11.429 6.748 12.143 7.409 12.143 8.401C12.143 8.993 11.743 9.484 11.339 9.763V9.801C11.909 10.119 12.388 10.574 12.388 11.383C12.388 12.329 11.547 13.049 10.289 13.049ZM11.121 8.481C11.121 7.977 10.82 7.623 10.303 7.623C9.881 7.623 9.548 7.896 9.548 8.394C9.548 8.946 10.035 9.201 10.681 9.458C10.964 9.153 11.121 8.833 11.121 8.481ZM9.85 10.19L9.92077 10.2193C10.6764 10.5317 11.224 10.758 11.224 11.341C11.224 11.878 10.842 12.173 10.317 12.173C9.746 12.173 9.287 11.813 9.287 11.245C9.286 10.823 9.526 10.45 9.85 10.19ZM11 1H5V2H11V1Z" fill="currentColor"/>
</g>

</symbol></svg>