<?xml version="1.0" encoding="utf-8"?>
<svg xmlns="http://www.w3.org/2000/svg">
<symbol id="delete" viewBox="0 0 17 17">
<path d="M12.0008 6.0959L10.7987 4.89382L8.39453 7.29798L5.99037 4.89382L4.78829 6.0959L7.19245 8.50006L4.78829 10.9042L5.99037 12.1063L8.39453 9.70215L10.7987 12.1063L12.0008 10.9042L9.59661 8.50006L12.0008 6.0959ZM14.4049 2.48966C11.0872 -0.828089 5.70187 -0.828089 2.38412 2.48966C-0.933621 5.8074 -0.933621 11.1927 2.38412 14.5105C5.70187 17.8282 11.0872 17.8282 14.4049 14.5105C17.7227 11.1927 17.7227 5.8074 14.4049 2.48966ZM3.58621 13.3084C0.935615 10.6578 0.935616 6.34233 3.58621 3.69174C6.23679 1.04115 10.5523 1.04115 13.2029 3.69174C15.8534 6.34233 15.8534 10.6578 13.2029 13.3084C10.5523 15.959 6.23679 15.959 3.58621 13.3084Z" fill="currentColor"/>

</symbol>></svg>