<?xml version="1.0" encoding="utf-8"?>
<svg xmlns="http://www.w3.org/2000/svg">
<symbol id="dislike" viewBox="0 0 21 21">
<g clip-path="url(#clip0)">
<path d="M12.9527 2.97119H5.22629C4.51374 2.97119 3.90422 3.40473 3.64667 4.01855L1.05832 10.0709C0.981055 10.2684 0.933838 10.4787 0.933838 10.6976V12.3416L0.942423 12.3502L0.933838 12.4146C0.933838 13.3632 1.70219 14.1316 2.65082 14.1316H8.07219L7.25233 18.0549C7.23516 18.1407 7.22228 18.2309 7.22228 18.3253C7.22228 18.6816 7.36823 19.0035 7.60002 19.2353L8.51431 20.141L14.1675 14.4878C14.4765 14.1745 14.6697 13.7452 14.6697 13.2731V4.68817C14.6697 3.73954 13.9013 2.97119 12.9527 2.97119ZM16.3867 2.97119V13.2731H19.8206V2.97119H16.3867Z" fill="currentColor"/>
</g>
<defs>
<clipPath id="clip0">
<rect width="20.6038" height="20.6038" fill="currentColor" transform="translate(0.0754395 0.395752)"/>
</clipPath>
</defs>

</symbol></svg>