<?xml version="1.0" encoding="utf-8"?>
<svg xmlns="http://www.w3.org/2000/svg">
<symbol id="dots" viewBox="0 0 7 11">
<path d="M2.66667 9.33333C2.66667 10.0667 2.06667 10.6667 1.33333 10.6667C0.6 10.6667 0 10.0667 0 9.33333C0 8.6 0.6 8 1.33333 8C2.06667 8 2.66667 8.6 2.66667 9.33333ZM1.33333 4C0.6 4 0 4.6 0 5.33333C0 6.06667 0.6 6.66667 1.33333 6.66667C2.06667 6.66667 2.66667 6.06667 2.66667 5.33333C2.66667 4.6 2.06667 4 1.33333 4ZM1.33333 0C0.6 0 0 0.6 0 1.33333C0 2.06667 0.6 2.66667 1.33333 2.66667C2.06667 2.66667 2.66667 2.06667 2.66667 1.33333C2.66667 0.6 2.06667 0 1.33333 0ZM5.33333 2.66667C6.06667 2.66667 6.66667 2.06667 6.66667 1.33333C6.66667 0.6 6.06667 0 5.33333 0C4.6 0 4 0.6 4 1.33333C4 2.06667 4.6 2.66667 5.33333 2.66667ZM5.33333 4C4.6 4 4 4.6 4 5.33333C4 6.06667 4.6 6.66667 5.33333 6.66667C6.06667 6.66667 6.66667 6.06667 6.66667 5.33333C6.66667 4.6 6.06667 4 5.33333 4ZM5.33333 8C4.6 8 4 8.6 4 9.33333C4 10.0667 4.6 10.6667 5.33333 10.6667C6.06667 10.6667 6.66667 10.0667 6.66667 9.33333C6.66667 8.6 6.06667 8 5.33333 8Z" fill="currentColor"/>

</symbol></svg>