<?xml version="1.0" encoding="utf-8"?>
<svg xmlns="http://www.w3.org/2000/svg">
<symbol id="download" viewBox="0, 0, 400,400">
  <g id="svgg">
    <path id="path0" d="M195.800 16.400 C 195.664 16.620,195.130 16.800,194.614 16.800 C 193.573 16.800,190.400 18.362,190.400 18.874 C 190.400 19.053,190.144 19.200,189.832 19.200 C 189.092 19.200,185.600 22.692,185.600 23.432 C 185.600 23.744,185.420 24.000,185.200 24.000 C 184.980 24.000,184.800 24.360,184.800 24.800 C 184.800 25.240,184.620 25.600,184.400 25.600 C 184.180 25.600,184.000 25.960,184.000 26.400 C 184.000 26.840,183.820 27.200,183.600 27.200 C 183.380 27.200,183.200 27.819,183.200 28.576 C 183.200 29.333,183.020 30.064,182.800 30.200 C 182.535 30.364,182.400 65.871,182.400 135.424 C 182.400 193.161,182.327 240.400,182.238 240.400 C 182.148 240.400,166.052 224.380,146.467 204.800 C 126.883 185.220,110.576 169.200,110.230 169.200 C 109.883 169.200,109.600 169.020,109.600 168.800 C 109.600 168.580,109.330 168.400,109.000 168.400 C 108.670 168.400,108.400 168.220,108.400 168.000 C 108.400 167.780,108.051 167.600,107.624 167.600 C 107.197 167.600,106.736 167.420,106.600 167.200 C 106.464 166.980,105.834 166.800,105.200 166.800 C 104.566 166.800,103.936 166.620,103.800 166.400 C 103.664 166.180,102.044 166.000,100.200 166.000 C 98.356 166.000,96.736 166.180,96.600 166.400 C 96.464 166.620,95.834 166.800,95.200 166.800 C 94.566 166.800,93.936 166.980,93.800 167.200 C 93.664 167.420,93.203 167.600,92.776 167.600 C 92.349 167.600,92.000 167.780,92.000 168.000 C 92.000 168.220,91.751 168.400,91.446 168.400 C 90.670 168.400,85.600 173.403,85.600 174.169 C 85.600 174.516,85.452 174.800,85.271 174.800 C 84.646 174.800,83.200 178.662,83.200 180.333 C 83.200 181.256,82.985 182.355,82.722 182.776 C 82.352 183.369,82.352 183.777,82.722 184.589 C 82.985 185.166,83.200 186.417,83.200 187.370 C 83.200 188.390,83.437 189.299,83.776 189.580 C 84.093 189.843,84.254 190.315,84.133 190.629 C 84.013 190.943,84.114 191.200,84.357 191.200 C 84.601 191.200,84.800 191.470,84.800 191.800 C 84.800 192.130,84.980 192.400,85.200 192.400 C 85.420 192.400,85.600 192.659,85.600 192.976 C 85.600 193.520,93.649 202.063,98.378 206.539 C 99.576 207.672,103.301 211.390,106.657 214.800 C 110.012 218.210,113.082 221.319,113.478 221.709 C 114.693 222.903,127.875 236.074,138.989 247.200 C 143.055 251.270,146.743 254.960,147.185 255.400 C 149.820 258.026,162.906 271.121,163.494 271.720 C 163.882 272.116,167.170 275.371,170.800 278.952 C 174.430 282.534,178.326 286.440,179.457 287.632 C 183.628 292.028,190.059 298.000,190.621 298.000 C 190.939 298.000,191.200 298.180,191.200 298.400 C 191.200 298.620,191.560 298.800,192.000 298.800 C 192.440 298.800,192.800 298.980,192.800 299.200 C 192.800 299.420,193.149 299.600,193.576 299.600 C 194.003 299.600,194.464 299.780,194.600 300.000 C 194.744 300.233,196.996 300.400,200.000 300.400 C 203.004 300.400,205.256 300.233,205.400 300.000 C 205.536 299.780,206.087 299.600,206.624 299.600 C 207.161 299.600,207.600 299.420,207.600 299.200 C 207.600 298.980,207.870 298.800,208.200 298.800 C 208.530 298.800,208.800 298.620,208.800 298.400 C 208.800 298.180,209.072 298.000,209.405 298.000 C 210.003 298.000,212.896 295.307,220.901 287.300 C 223.155 285.044,226.845 281.354,229.100 279.100 C 231.356 276.845,235.046 273.155,237.300 270.900 C 239.555 268.644,243.245 264.954,245.501 262.700 C 247.756 260.445,251.626 256.575,254.101 254.100 C 256.575 251.625,260.445 247.755,262.700 245.500 C 264.956 243.245,268.646 239.555,270.900 237.300 C 273.155 235.044,276.845 231.354,279.100 229.100 C 281.356 226.845,285.046 223.155,287.300 220.900 C 291.356 216.843,295.366 212.833,304.100 204.102 C 312.078 196.126,314.400 193.625,314.400 193.006 C 314.400 192.673,314.580 192.400,314.800 192.400 C 315.020 192.400,315.200 192.130,315.200 191.800 C 315.200 191.470,315.380 191.200,315.600 191.200 C 315.820 191.200,316.000 190.851,316.000 190.424 C 316.000 189.997,316.180 189.536,316.400 189.400 C 316.620 189.264,316.800 188.184,316.800 187.000 C 316.800 185.816,316.980 184.736,317.200 184.600 C 317.420 184.464,317.600 183.924,317.600 183.400 C 317.600 182.876,317.420 182.336,317.200 182.200 C 316.980 182.064,316.800 181.170,316.800 180.214 C 316.800 178.619,315.459 175.204,314.700 174.867 C 314.535 174.793,314.400 174.465,314.400 174.136 C 314.400 173.393,309.311 168.400,308.554 168.400 C 308.249 168.400,308.000 168.220,308.000 168.000 C 308.000 167.780,307.651 167.600,307.224 167.600 C 306.797 167.600,306.336 167.420,306.200 167.200 C 306.064 166.980,305.434 166.800,304.800 166.800 C 304.166 166.800,303.536 166.620,303.400 166.400 C 303.264 166.180,301.644 166.000,299.800 166.000 C 297.956 166.000,296.336 166.180,296.200 166.400 C 296.064 166.620,295.423 166.800,294.776 166.800 C 294.129 166.800,293.600 166.980,293.600 167.200 C 293.600 167.420,293.240 167.600,292.800 167.600 C 292.360 167.600,292.000 167.780,292.000 168.000 C 292.000 168.220,291.640 168.400,291.200 168.400 C 290.760 168.400,290.400 168.580,290.400 168.800 C 290.400 169.020,290.121 169.200,289.779 169.200 C 289.438 169.200,273.138 185.220,253.557 204.800 C 233.977 224.380,217.876 240.400,217.778 240.400 C 217.680 240.400,217.600 193.161,217.600 135.424 C 217.600 65.871,217.465 30.364,217.200 30.200 C 216.980 30.064,216.800 29.333,216.800 28.576 C 216.800 27.819,216.620 27.200,216.400 27.200 C 216.180 27.200,216.000 26.840,216.000 26.400 C 216.000 25.960,215.820 25.600,215.600 25.600 C 215.380 25.600,215.200 25.240,215.200 24.800 C 215.200 24.360,215.020 24.000,214.800 24.000 C 214.580 24.000,214.400 23.730,214.400 23.400 C 214.400 23.070,214.220 22.800,214.000 22.800 C 213.780 22.800,213.600 22.614,213.600 22.387 C 213.600 21.788,210.921 19.200,210.302 19.200 C 210.013 19.200,209.517 18.840,209.200 18.400 C 208.883 17.960,208.314 17.600,207.935 17.600 C 207.557 17.600,207.136 17.420,207.000 17.200 C 206.864 16.980,206.223 16.800,205.576 16.800 C 204.929 16.800,204.400 16.620,204.400 16.400 C 204.400 16.159,202.741 16.000,200.224 16.000 C 197.871 16.000,195.939 16.175,195.800 16.400 M28.800 266.400 C 28.800 266.620,28.260 266.800,27.600 266.800 C 26.940 266.800,26.400 266.980,26.400 267.200 C 26.400 267.420,26.040 267.600,25.600 267.600 C 25.160 267.600,24.800 267.780,24.800 268.000 C 24.800 268.220,24.565 268.400,24.278 268.400 C 23.579 268.400,20.800 270.973,20.800 271.621 C 20.800 271.903,20.683 272.017,20.540 271.874 C 20.219 271.552,18.401 273.614,18.400 274.300 C 18.400 274.575,18.220 274.800,18.000 274.800 C 17.780 274.800,17.600 275.160,17.600 275.600 C 17.600 276.040,17.420 276.400,17.200 276.400 C 16.980 276.400,16.800 276.940,16.800 277.600 C 16.800 278.260,16.620 278.800,16.400 278.800 C 16.136 278.800,16.000 294.467,16.000 325.000 C 16.000 355.533,16.136 371.200,16.400 371.200 C 16.620 371.200,16.800 371.740,16.800 372.400 C 16.800 373.060,16.980 373.600,17.200 373.600 C 17.420 373.600,17.600 373.960,17.600 374.400 C 17.600 374.840,17.780 375.200,18.000 375.200 C 18.220 375.200,18.400 375.460,18.400 375.778 C 18.400 376.530,23.470 381.600,24.222 381.600 C 24.540 381.600,24.800 381.780,24.800 382.000 C 24.800 382.220,25.160 382.400,25.600 382.400 C 26.040 382.400,26.400 382.580,26.400 382.800 C 26.400 383.020,26.940 383.200,27.600 383.200 C 28.260 383.200,28.800 383.380,28.800 383.600 C 28.800 383.866,86.133 384.000,200.000 384.000 C 313.867 384.000,371.200 383.866,371.200 383.600 C 371.200 383.380,371.740 383.200,372.400 383.200 C 373.060 383.200,373.600 383.020,373.600 382.800 C 373.600 382.580,373.960 382.400,374.400 382.400 C 374.840 382.400,375.200 382.220,375.200 382.000 C 375.200 381.780,375.484 381.600,375.831 381.600 C 376.597 381.600,381.600 376.530,381.600 375.754 C 381.600 375.449,381.780 375.200,382.000 375.200 C 382.220 375.200,382.400 374.840,382.400 374.400 C 382.400 373.960,382.580 373.600,382.800 373.600 C 383.020 373.600,383.200 373.060,383.200 372.400 C 383.200 371.740,383.380 371.200,383.600 371.200 C 383.864 371.200,384.000 355.533,384.000 325.000 C 384.000 294.467,383.864 278.800,383.600 278.800 C 383.380 278.800,383.200 278.260,383.200 277.600 C 383.200 276.940,383.020 276.400,382.800 276.400 C 382.580 276.400,382.400 276.040,382.400 275.600 C 382.400 275.160,382.220 274.800,382.000 274.800 C 381.780 274.800,381.600 274.551,381.600 274.246 C 381.600 273.470,376.597 268.400,375.831 268.400 C 375.484 268.400,375.200 268.220,375.200 268.000 C 375.200 267.780,374.840 267.600,374.400 267.600 C 373.960 267.600,373.600 267.420,373.600 267.200 C 373.600 266.980,373.060 266.800,372.400 266.800 C 371.740 266.800,371.200 266.620,371.200 266.400 C 371.200 266.158,369.475 266.000,366.824 266.000 C 364.337 266.000,362.340 266.173,362.200 266.400 C 362.064 266.620,361.513 266.800,360.976 266.800 C 360.439 266.800,360.000 266.980,360.000 267.200 C 360.000 267.420,359.640 267.600,359.200 267.600 C 358.760 267.600,358.400 267.780,358.400 268.000 C 358.400 268.220,358.040 268.400,357.600 268.400 C 357.120 268.400,356.800 268.667,356.800 269.067 C 356.800 269.433,356.681 269.615,356.536 269.470 C 356.276 269.209,352.000 273.302,352.000 273.812 C 352.000 273.958,351.629 274.598,351.175 275.236 C 350.721 275.873,350.449 276.555,350.570 276.752 C 350.692 276.949,350.523 277.332,350.196 277.604 C 349.676 278.035,349.600 282.676,349.600 313.849 L 349.600 349.600 200.000 349.600 L 50.400 349.600 50.400 313.995 C 50.400 293.208,50.248 278.100,50.034 277.695 C 49.832 277.313,49.367 276.311,49.000 275.469 C 48.225 273.691,43.159 268.400,42.230 268.400 C 41.884 268.400,41.599 268.265,41.597 268.100 C 41.593 267.699,39.619 266.800,38.744 266.800 C 38.361 266.800,37.936 266.620,37.800 266.400 C 37.660 266.173,35.663 266.000,33.176 266.000 C 30.525 266.000,28.800 266.158,28.800 266.400 " stroke="none" fill="currentColor" fill-rule="evenodd"/>
    <path id="path1" d="" stroke="none" fill="#585454" fill-rule="evenodd"/>
    <path id="path2" d="" stroke="none" fill="#585454" fill-rule="evenodd"/>
    <path id="path3" d="" stroke="none" fill="#585454" fill-rule="evenodd"/>
    <path id="path4" d="" stroke="none" fill="#585454" fill-rule="evenodd"/>
  </g>

</symbol></svg>