<?xml version="1.0" encoding="utf-8"?>
<svg xmlns="http://www.w3.org/2000/svg">
<symbol id="dq" viewBox="0 0 100 100">

<g transform="translate(0.000000,100.000000) scale(0.100000,-0.100000)" fill="currentColor" stroke="none">
<path d="M0 500 l0 -500 265 0 265 0 0 30 0 30 -140 0 -140 0 0 65 0 65 129 0
129 0 13 -37 c17 -53 86 -117 149 -138 99 -33 215 0 274 78 54 71 56 87 56
513 l0 394 -500 0 -500 0 0 -500z m190 375 l0 -65 -65 0 -65 0 0 65 0 65 65 0
65 0 0 -65z m310 0 l0 -65 -125 0 -125 0 0 65 0 65 125 0 125 0 0 -65z m440 0
l0 -65 -190 0 -190 0 0 65 0 65 190 0 190 0 0 -65z m-750 -185 l0 -60 -65 0
-65 0 0 60 0 60 65 0 65 0 0 -60z m310 0 l0 -60 -125 0 -125 0 0 60 0 60 125
0 125 0 0 -60z m440 0 l0 -60 -190 0 -190 0 0 60 0 60 190 0 190 0 0 -60z
m-750 -190 l0 -60 -65 0 -65 0 0 60 0 60 65 0 65 0 0 -60z m310 0 l0 -60 -125
0 -125 0 0 60 0 60 125 0 125 0 0 -60z m440 -10 l0 -71 -42 29 c-103 70 -193
70 -295 0 l-43 -29 0 71 0 70 190 0 190 0 0 -70z m-89 -84 c101 -67 115 -203
30 -287 -83 -83 -212 -73 -280 22 -57 78 -49 171 19 239 22 22 54 44 72 49 48
15 117 4 159 -23z m-661 -96 l0 -60 -65 0 -65 0 0 60 0 60 65 0 65 0 0 -60z
m310 0 l0 -60 -125 0 -125 0 0 60 0 60 125 0 125 0 0 -60z m-310 -185 l0 -65
-65 0 -65 0 0 65 0 65 65 0 65 0 0 -65z"/>
<path d="M780 265 l-64 -65 -36 35 -36 36 -19 -21 c-19 -21 -18 -21 38 -78
l57 -57 87 87 c86 86 87 87 68 108 -10 11 -21 20 -24 20 -4 0 -36 -29 -71 -65z"/>
</g>

</symbol></svg>