<?xml version="1.0" encoding="utf-8"?>
<svg xmlns="http://www.w3.org/2000/svg">
  <symbol fill="none" xmlns="http://www.w3.org/2000/svg" viewBox="0 0 16 16" id="edit">
        <path fill-rule="evenodd" clip-rule="evenodd" d="M13.4792 4.87133C14.0861 4.26341 14.1751 3.39853 13.6802 2.9026L12.5973 1.81975C12.1014 1.32581 11.2375 1.4128 10.6286 2.02072L9.57881 3.07157L12.4284 5.92218L13.4792 4.87133ZM11.3345 2.72862C11.5815 2.48365 11.8385 2.47765 11.8904 2.52765L12.9723 3.6105C13.0233 3.66149 13.0163 3.92046 12.7713 4.16542L12.4284 4.50838L10.9926 3.07157L11.3345 2.72862ZM2.90286 12.5963L3.41678 9.23273L8.85692 3.79247L11.7065 6.64308L6.26733 12.0823L2.90286 12.5963ZM4.09667 11.4044L5.7914 11.1445L10.2917 6.64508L8.85592 5.20828L4.35563 9.70866L4.09667 11.4044ZM2 13.5001H13.9981V14.5H2V13.5001Z" fill="currentColor"></path>
    <mask id="mask0_3166_77233" maskUnits="userSpaceOnUse" x="2" y="1" width="12" height="14">
      <path fill-rule="evenodd" clip-rule="evenodd" d="M13.4792 4.87133C14.0861 4.26341 14.1751 3.39853 13.6802 2.9026L12.5973 1.81975C12.1014 1.32581 11.2375 1.4128 10.6286 2.02072L9.57881 3.07157L12.4284 5.92218L13.4792 4.87133ZM11.3345 2.72862C11.5815 2.48365 11.8385 2.47765 11.8904 2.52765L12.9723 3.6105C13.0233 3.66149 13.0163 3.92046 12.7713 4.16542L12.4284 4.50838L10.9926 3.07157L11.3345 2.72862ZM2.90286 12.5963L3.41678 9.23273L8.85692 3.79247L11.7065 6.64308L6.26733 12.0823L2.90286 12.5963ZM4.09667 11.4044L5.7914 11.1445L10.2917 6.64508L8.85592 5.20828L4.35563 9.70866L4.09667 11.4044ZM2 13.5001H13.9981V14.5H2V13.5001Z" fill="white"></path>
    </mask>
  </symbol>
</svg>