<?xml version="1.0" encoding="utf-8"?>
<svg xmlns="http://www.w3.org/2000/svg">
<symbol xmlns="http://www.w3.org/2000/svg" viewBox="0 0 64 64" id="expand">
    <g>
      <path d="M56,9.61a.84.84,0,0,0-.05-.17l-.06-.21c0-.06-.07-.12-.1-.19a1.19,1.19,0,0,0-.09-.15,1.8,1.8,0,0,0-.55-.55A.55.55,0,0,0,55,8.26l-.2-.11-.2-.06L54.39,8A1.72,1.72,0,0,0,54,8H44.22a2,2,0,0,0,0,4h5L30.59,30.59a2,2,0,0,0,0,2.82,2,2,0,0,0,2.82,0L52,14.83v5a2,2,0,0,0,4,0V10A1.72,1.72,0,0,0,56,9.61Z"></path>
      <path d="M54,30a2,2,0,0,0-2,2V49a3,3,0,0,1-3,3H15a3,3,0,0,1-3-3V15a3,3,0,0,1,3-3H32a2,2,0,0,0,0-4H15a7,7,0,0,0-7,7V49a7,7,0,0,0,7,7H49a7,7,0,0,0,7-7V32A2,2,0,0,0,54,30Z"></path>
    </g>
  </symbol>
</svg>