<?xml version="1.0" encoding="utf-8"?>
<svg xmlns="http://www.w3.org/2000/svg">
<symbol id="filter" viewBox="0 0 16 16">
<g id="svgg">
<path fill-rule="evenodd" clip-rule="evenodd" d="M7.1739 1.93103C7.1739 2.99586 6.30769 3.86207 5.24286 3.86207C4.37114 3.86207 3.64065 3.27724 3.40231 2.48276H0.277344V1.37931H3.40231C3.64065 0.584828 4.37114 0 5.24286 0C6.30769 0 7.1739 0.866207 7.1739 1.93103ZM6.07045 1.93103C6.07045 1.47531 5.69969 1.10345 5.24286 1.10345C4.78603 1.10345 4.41527 1.47531 4.41527 1.93103C4.41527 2.38676 4.78603 2.75862 5.24286 2.75862C5.69969 2.75862 6.07045 2.38676 6.07045 1.93103ZM8.00148 1.37931H15.7256V2.48276H8.00148V1.37931ZM15.7256 13.5172H8.00148V14.6207H15.7256V13.5172ZM7.1739 14.069C7.1739 15.1338 6.30769 16 5.24286 16C4.37114 16 3.64065 15.4152 3.40231 14.6207H0.277344V13.5172H3.40231C3.64065 12.7228 4.37114 12.1379 5.24286 12.1379C6.30769 12.1379 7.1739 13.0041 7.1739 14.069ZM6.07045 14.069C6.07045 13.6132 5.69969 13.2414 5.24286 13.2414C4.78603 13.2414 4.41527 13.6132 4.41527 14.069C4.41527 14.5247 4.78603 14.8966 5.24286 14.8966C5.69969 14.8966 6.07045 14.5247 6.07045 14.069ZM10.7601 9.93103C11.6318 9.93103 12.3623 9.34621 12.6007 8.55172H15.7256V7.44828H12.6007C12.3623 6.65379 11.6318 6.06897 10.7601 6.06897C9.88838 6.06897 9.1579 6.65379 8.91955 7.44828H0.277344V8.55172H8.91955C9.1579 9.34621 9.88838 9.93103 10.7601 9.93103ZM10.7601 7.17241C11.2169 7.17241 11.5877 7.54428 11.5877 8C11.5877 8.45572 11.2169 8.82759 10.7601 8.82759C10.3033 8.82759 9.93252 8.45572 9.93252 8C9.93252 7.54428 10.3033 7.17241 10.7601 7.17241Z" fill="currentColor"/>
</g>
</symbol>
</svg>