<?xml version="1.0" encoding="utf-8"?>
<svg xmlns="http://www.w3.org/2000/svg">
<symbol id="filter_2" viewBox="0, 0, 400,400">
<g id="svgg">
<path id="path0" d="M257.000 40.000 C 256.864 40.220,256.043 40.400,255.176 40.400 C 254.309 40.400,253.600 40.580,253.600 40.800 C 253.600 41.020,252.981 41.200,252.224 41.200 C 251.467 41.200,250.736 41.380,250.600 41.600 C 250.464 41.820,249.823 42.000,249.176 42.000 C 248.529 42.000,248.000 42.180,248.000 42.400 C 248.000 42.620,247.640 42.800,247.200 42.800 C 246.760 42.800,246.400 42.980,246.400 43.200 C 246.400 43.420,246.021 43.600,245.558 43.600 C 244.685 43.600,239.101 46.346,238.867 46.891 C 238.793 47.061,238.523 47.200,238.267 47.201 C 238.010 47.201,237.170 47.741,236.400 48.400 C 235.630 49.059,234.868 49.599,234.707 49.599 C 234.053 49.601,227.200 56.174,227.200 56.798 C 227.200 57.054,226.480 57.954,225.600 58.800 C 224.720 59.646,224.000 60.531,224.000 60.769 C 224.000 61.006,223.850 61.200,223.668 61.200 C 223.485 61.200,223.080 61.695,222.768 62.300 C 222.455 62.905,221.885 63.749,221.500 64.175 C 221.115 64.602,220.800 65.187,220.800 65.475 C 220.800 65.764,220.620 66.000,220.400 66.000 C 220.180 66.000,220.000 66.360,220.000 66.800 C 220.000 67.240,219.820 67.600,219.600 67.600 C 219.380 67.600,219.200 67.960,219.200 68.400 C 219.200 68.840,219.020 69.200,218.800 69.200 C 218.580 69.200,218.400 69.560,218.400 70.000 C 218.400 70.440,218.220 70.800,218.000 70.800 C 217.780 70.800,217.600 71.340,217.600 72.000 C 217.600 72.660,217.420 73.200,217.200 73.200 C 216.980 73.200,216.800 73.549,216.800 73.976 C 216.800 74.403,216.620 74.864,216.400 75.000 C 216.180 75.136,216.000 75.741,216.000 76.344 C 216.000 76.947,215.784 77.656,215.520 77.920 C 215.149 78.291,191.797 78.400,112.848 78.400 C 36.735 78.400,10.292 78.518,9.228 78.861 C 5.649 80.018,2.473 82.419,0.820 85.218 C 0.145 86.362,-0.234 92.864,0.181 96.188 C 0.472 98.516,4.565 103.600,6.149 103.600 C 6.507 103.600,6.800 103.780,6.800 104.000 C 6.800 104.220,7.239 104.400,7.776 104.400 C 8.313 104.400,8.864 104.580,9.000 104.800 C 9.164 105.065,43.956 105.200,112.080 105.200 C 226.304 105.200,215.955 104.951,215.987 107.700 C 215.994 108.305,216.180 108.800,216.400 108.800 C 216.620 108.800,216.800 109.239,216.800 109.776 C 216.800 110.313,216.980 110.864,217.200 111.000 C 217.420 111.136,217.600 111.597,217.600 112.024 C 217.600 112.451,217.780 112.800,218.000 112.800 C 218.220 112.800,218.400 113.160,218.400 113.600 C 218.400 114.040,218.580 114.400,218.800 114.400 C 219.020 114.400,219.200 114.760,219.200 115.200 C 219.200 115.640,219.380 116.000,219.600 116.000 C 219.820 116.000,220.000 116.360,220.000 116.800 C 220.000 117.240,220.180 117.600,220.400 117.600 C 220.620 117.600,220.800 117.960,220.800 118.400 C 220.800 118.840,220.980 119.200,221.200 119.200 C 221.420 119.200,221.600 119.436,221.600 119.725 C 221.600 120.013,221.960 120.636,222.400 121.108 C 222.840 121.580,223.200 122.062,223.200 122.179 C 223.200 122.484,224.449 123.977,225.500 124.929 C 225.995 125.377,226.400 125.897,226.400 126.083 C 226.400 126.770,231.870 132.400,232.537 132.400 C 232.725 132.400,233.383 132.940,234.000 133.600 C 234.617 134.260,235.369 134.800,235.672 134.800 C 235.975 134.800,236.483 135.160,236.800 135.600 C 237.117 136.040,237.657 136.400,238.000 136.400 C 238.343 136.400,238.883 136.760,239.200 137.200 C 239.517 137.640,240.097 138.000,240.488 138.000 C 240.880 138.000,241.200 138.180,241.200 138.400 C 241.200 138.620,241.560 138.800,242.000 138.800 C 242.440 138.800,242.800 138.936,242.800 139.102 C 242.800 139.269,243.385 139.640,244.100 139.929 C 244.815 140.217,245.719 140.625,246.109 140.835 C 246.499 141.046,247.624 141.328,248.609 141.463 C 249.594 141.598,250.400 141.864,250.400 142.054 C 250.400 142.244,250.940 142.400,251.600 142.400 C 252.260 142.400,252.800 142.580,252.800 142.800 C 252.800 143.020,253.509 143.200,254.376 143.200 C 255.243 143.200,256.064 143.380,256.200 143.600 C 256.336 143.820,257.787 144.000,259.424 144.000 C 261.141 144.000,262.400 144.169,262.400 144.400 C 262.400 144.641,264.067 144.800,266.600 144.800 C 269.133 144.800,270.800 144.641,270.800 144.400 C 270.800 144.169,272.067 144.000,273.800 144.000 C 275.533 144.000,276.800 143.831,276.800 143.600 C 276.800 143.380,277.599 143.200,278.576 143.200 C 279.553 143.200,280.464 143.020,280.600 142.800 C 280.736 142.580,281.377 142.400,282.024 142.400 C 282.671 142.400,283.200 142.220,283.200 142.000 C 283.200 141.780,283.662 141.600,284.226 141.600 C 285.252 141.600,288.917 140.133,290.800 138.969 C 291.350 138.629,292.115 138.251,292.500 138.129 C 292.885 138.007,293.200 137.748,293.200 137.553 C 293.200 137.359,293.560 137.200,294.000 137.200 C 294.440 137.200,294.800 137.050,294.800 136.868 C 294.800 136.685,295.295 136.281,295.900 135.970 C 296.505 135.660,297.291 135.089,297.647 134.703 C 298.003 134.316,298.492 134.000,298.734 134.000 C 299.237 134.000,308.400 124.946,308.400 124.449 C 308.400 124.271,308.850 123.601,309.400 122.962 C 309.949 122.323,310.399 121.575,310.400 121.300 C 310.400 121.025,310.580 120.800,310.800 120.800 C 311.020 120.800,311.200 120.530,311.200 120.200 C 311.200 119.870,311.380 119.600,311.600 119.600 C 311.820 119.600,312.000 119.330,312.000 119.000 C 312.000 118.670,312.180 118.400,312.400 118.400 C 312.620 118.400,312.800 118.040,312.800 117.600 C 312.800 117.160,312.980 116.800,313.200 116.800 C 313.420 116.800,313.600 116.440,313.600 116.000 C 313.600 115.560,313.780 115.200,314.000 115.200 C 314.220 115.200,314.400 114.840,314.400 114.400 C 314.400 113.960,314.580 113.600,314.800 113.600 C 315.020 113.600,315.200 113.251,315.200 112.824 C 315.200 112.397,315.380 111.936,315.600 111.800 C 315.820 111.664,316.000 111.113,316.000 110.576 C 316.000 110.039,316.180 109.600,316.400 109.600 C 316.620 109.600,316.800 109.060,316.800 108.400 C 316.800 107.740,316.980 107.200,317.200 107.200 C 317.420 107.200,317.600 106.750,317.600 106.200 L 317.600 105.200 353.806 105.200 C 389.648 105.200,393.200 105.083,393.200 103.903 C 393.200 103.736,393.520 103.600,393.912 103.600 C 394.303 103.600,394.883 103.240,395.200 102.800 C 395.517 102.360,396.013 102.000,396.301 102.000 C 396.589 102.000,396.943 101.694,397.086 101.319 C 397.230 100.945,397.843 100.119,398.449 99.485 C 400.079 97.780,400.779 86.193,399.283 85.694 C 399.017 85.606,398.800 85.267,398.800 84.941 C 398.800 84.119,395.049 80.543,393.486 79.873 C 390.055 78.405,389.928 78.400,353.472 78.400 C 318.230 78.400,317.600 78.386,317.600 77.624 C 317.600 77.197,317.420 76.736,317.200 76.600 C 316.980 76.464,316.800 75.823,316.800 75.176 C 316.800 74.529,316.620 74.000,316.400 74.000 C 316.180 74.000,316.000 73.640,316.000 73.200 C 316.000 72.760,315.820 72.400,315.600 72.400 C 315.380 72.400,315.200 71.860,315.200 71.200 C 315.200 70.540,315.020 70.000,314.800 70.000 C 314.580 70.000,314.400 69.640,314.400 69.200 C 314.400 68.760,314.220 68.400,314.000 68.400 C 313.780 68.400,313.600 68.040,313.600 67.600 C 313.600 67.160,313.420 66.800,313.200 66.800 C 312.980 66.800,312.800 66.564,312.800 66.275 C 312.800 65.987,312.440 65.364,312.000 64.892 C 311.560 64.420,311.200 63.796,311.200 63.505 C 311.200 63.214,310.840 62.717,310.400 62.400 C 309.960 62.083,309.600 61.669,309.600 61.481 C 309.600 60.406,301.369 51.200,300.407 51.200 C 300.183 51.200,300.000 51.020,300.000 50.800 C 300.000 50.580,299.812 50.400,299.582 50.400 C 299.352 50.400,298.714 49.950,298.164 49.400 C 297.614 48.850,297.005 48.400,296.810 48.400 C 296.616 48.400,296.212 48.175,295.913 47.900 C 295.403 47.432,294.960 47.155,292.700 45.900 C 292.205 45.625,291.710 45.301,291.600 45.179 C 291.220 44.759,288.477 43.600,287.863 43.600 C 287.524 43.600,287.136 43.420,287.000 43.200 C 286.864 42.980,286.313 42.800,285.776 42.800 C 285.239 42.800,284.800 42.620,284.800 42.400 C 284.800 42.180,284.260 42.000,283.600 42.000 C 282.940 42.000,282.400 41.820,282.400 41.600 C 282.400 41.380,281.860 41.200,281.200 41.200 C 280.540 41.200,280.000 41.020,280.000 40.800 C 280.000 40.580,279.100 40.400,278.000 40.400 C 276.900 40.400,276.000 40.220,276.000 40.000 C 276.000 39.745,272.608 39.600,266.624 39.600 C 260.804 39.600,257.153 39.752,257.000 40.000 M269.633 66.000 C 271.211 66.000,272.400 66.172,272.400 66.400 C 272.400 66.620,272.763 66.800,273.206 66.800 C 274.212 66.800,277.200 67.715,277.200 68.023 C 277.200 68.148,277.830 68.498,278.600 68.800 C 279.370 69.102,280.000 69.496,280.000 69.675 C 280.000 69.854,280.270 70.000,280.600 70.000 C 280.930 70.000,281.200 70.180,281.200 70.400 C 281.200 70.620,281.388 70.800,281.618 70.800 C 281.848 70.800,282.447 71.205,282.948 71.700 C 283.450 72.195,284.792 73.442,285.930 74.472 C 287.069 75.501,288.000 76.587,288.000 76.884 C 288.000 77.180,288.360 77.683,288.800 78.000 C 289.240 78.317,289.600 78.897,289.600 79.288 C 289.600 79.680,289.780 80.000,290.000 80.000 C 290.220 80.000,290.400 80.360,290.400 80.800 C 290.400 81.240,290.580 81.600,290.800 81.600 C 291.020 81.600,291.200 82.140,291.200 82.800 C 291.200 83.460,291.380 84.000,291.600 84.000 C 291.820 84.000,292.000 84.529,292.000 85.176 C 292.000 85.823,292.180 86.464,292.400 86.600 C 292.633 86.744,292.800 89.004,292.800 92.024 C 292.800 95.208,292.646 97.200,292.400 97.200 C 292.180 97.200,292.000 97.729,292.000 98.376 C 292.000 99.023,291.820 99.664,291.600 99.800 C 291.380 99.936,291.200 100.487,291.200 101.024 C 291.200 101.561,291.020 102.000,290.800 102.000 C 290.580 102.000,290.400 102.360,290.400 102.800 C 290.400 103.240,290.220 103.600,290.000 103.600 C 289.780 103.600,289.600 103.960,289.600 104.400 C 289.600 104.840,289.450 105.200,289.268 105.200 C 289.085 105.200,288.680 105.695,288.368 106.300 C 287.550 107.885,282.502 112.737,280.422 113.938 C 277.549 115.596,276.719 116.000,276.188 116.000 C 275.865 116.000,275.600 116.180,275.600 116.400 C 275.600 116.620,275.060 116.800,274.400 116.800 C 273.740 116.800,273.200 116.980,273.200 117.200 C 273.200 117.420,272.300 117.600,271.200 117.600 C 270.100 117.600,269.200 117.780,269.200 118.000 C 269.200 118.229,268.000 118.400,266.400 118.400 C 264.800 118.400,263.600 118.229,263.600 118.000 C 263.600 117.780,262.700 117.600,261.600 117.600 C 260.500 117.600,259.600 117.420,259.600 117.200 C 259.600 116.980,259.265 116.800,258.856 116.800 C 257.965 116.800,253.319 114.488,252.225 113.500 C 251.798 113.115,251.297 112.800,251.111 112.800 C 250.925 112.800,250.162 112.215,249.414 111.500 C 248.667 110.785,247.508 109.750,246.840 109.200 C 246.171 108.650,245.619 107.925,245.612 107.588 C 245.605 107.252,245.240 106.717,244.800 106.400 C 244.360 106.083,244.000 105.503,244.000 105.112 C 244.000 104.720,243.820 104.400,243.600 104.400 C 243.380 104.400,243.200 104.040,243.200 103.600 C 243.200 103.160,243.020 102.800,242.800 102.800 C 242.580 102.800,242.400 102.440,242.400 102.000 C 242.400 101.560,242.238 101.200,242.039 101.200 C 241.841 101.200,241.553 100.120,241.400 98.799 C 241.247 97.479,240.959 96.298,240.761 96.176 C 240.295 95.888,240.288 88.117,240.753 87.829 C 240.947 87.709,241.231 86.439,241.385 85.006 C 241.538 83.573,241.829 82.400,242.032 82.400 C 242.234 82.400,242.400 82.040,242.400 81.600 C 242.400 81.160,242.580 80.800,242.800 80.800 C 243.020 80.800,243.200 80.440,243.200 80.000 C 243.200 79.560,243.380 79.200,243.600 79.200 C 243.820 79.200,244.000 78.933,244.000 78.607 C 244.000 78.281,244.495 77.458,245.100 76.780 C 247.685 73.880,249.973 71.600,250.299 71.600 C 250.491 71.600,250.998 71.285,251.425 70.900 C 251.851 70.515,252.695 69.945,253.300 69.632 C 253.905 69.320,254.400 68.915,254.400 68.732 C 254.400 68.550,254.760 68.400,255.200 68.400 C 255.640 68.400,256.000 68.220,256.000 68.000 C 256.000 67.780,256.450 67.600,257.000 67.600 C 257.550 67.600,258.000 67.420,258.000 67.200 C 258.000 66.980,258.540 66.800,259.200 66.800 C 259.860 66.800,260.400 66.620,260.400 66.400 C 260.400 66.172,261.592 66.000,263.176 66.000 C 264.905 66.000,266.065 65.819,266.250 65.520 C 266.481 65.146,266.582 65.146,266.707 65.520 C 266.811 65.832,267.836 66.000,269.633 66.000 M126.611 147.582 C 126.469 147.812,125.384 148.000,124.200 148.000 C 123.016 148.000,121.936 148.180,121.800 148.400 C 121.664 148.620,120.944 148.800,120.200 148.800 C 119.456 148.800,118.736 148.980,118.600 149.200 C 118.464 149.420,117.924 149.600,117.400 149.600 C 116.876 149.600,116.336 149.780,116.200 150.000 C 116.064 150.220,115.609 150.400,115.189 150.400 C 114.768 150.400,113.783 150.760,113.000 151.200 C 112.217 151.640,111.311 152.000,110.988 152.000 C 110.665 152.000,110.400 152.180,110.400 152.400 C 110.400 152.620,110.130 152.800,109.800 152.800 C 109.470 152.800,109.200 152.980,109.200 153.200 C 109.200 153.420,108.840 153.600,108.400 153.600 C 107.960 153.600,107.600 153.780,107.600 154.000 C 107.600 154.220,107.240 154.400,106.800 154.400 C 106.360 154.400,106.000 154.550,106.000 154.732 C 106.000 154.915,105.505 155.319,104.900 155.630 C 104.295 155.940,103.509 156.511,103.153 156.897 C 102.797 157.284,102.297 157.600,102.042 157.600 C 101.786 157.600,100.997 158.129,100.289 158.775 C 95.176 163.436,93.600 164.974,93.600 165.303 C 93.600 165.510,93.060 166.183,92.400 166.800 C 91.740 167.417,91.200 168.092,91.200 168.301 C 91.200 168.510,90.660 169.246,90.000 169.937 C 89.340 170.628,88.800 171.464,88.800 171.796 C 88.800 172.128,88.620 172.400,88.400 172.400 C 88.180 172.400,88.000 172.678,88.000 173.017 C 88.000 173.356,87.667 173.991,87.261 174.427 C 86.854 174.864,86.285 175.936,85.997 176.810 C 85.708 177.685,85.321 178.400,85.136 178.400 C 84.951 178.400,84.800 178.749,84.800 179.176 C 84.800 179.603,84.620 180.064,84.400 180.200 C 84.180 180.336,84.000 180.887,84.000 181.424 C 84.000 181.961,83.820 182.400,83.600 182.400 C 83.380 182.400,83.200 182.940,83.200 183.600 C 83.200 184.260,83.020 184.800,82.800 184.800 C 82.580 184.800,82.400 185.340,82.400 186.000 L 82.400 187.200 45.000 187.200 C 20.333 187.200,7.600 187.336,7.600 187.600 C 7.600 187.820,7.240 188.000,6.800 188.000 C 6.360 188.000,6.000 188.180,6.000 188.400 C 6.000 188.620,5.725 188.800,5.389 188.800 C 4.614 188.800,1.200 192.187,1.200 192.956 C 1.200 193.274,0.975 193.608,0.700 193.700 C -0.203 194.001,-0.242 204.369,0.653 206.259 C 1.511 208.069,4.512 211.200,5.389 211.200 C 5.725 211.200,6.000 211.380,6.000 211.600 C 6.000 211.820,6.360 212.000,6.800 212.000 C 7.240 212.000,7.600 212.180,7.600 212.400 C 7.600 212.664,20.333 212.800,45.000 212.800 L 82.400 212.800 82.400 214.000 C 82.400 214.660,82.580 215.200,82.800 215.200 C 83.020 215.200,83.200 215.740,83.200 216.400 C 83.200 217.060,83.380 217.600,83.600 217.600 C 83.820 217.600,84.000 218.140,84.000 218.800 C 84.000 219.460,84.180 220.000,84.400 220.000 C 84.620 220.000,84.800 220.360,84.800 220.800 C 84.800 221.240,84.980 221.600,85.200 221.600 C 85.420 221.600,85.600 221.960,85.600 222.400 C 85.600 222.840,85.780 223.200,86.000 223.200 C 86.220 223.200,86.400 223.526,86.400 223.925 C 86.400 224.323,86.760 225.036,87.200 225.508 C 87.640 225.980,88.000 226.644,88.000 226.983 C 88.000 227.322,88.180 227.600,88.400 227.600 C 88.620 227.600,88.800 227.872,88.800 228.204 C 88.800 228.536,89.340 229.372,90.000 230.063 C 90.660 230.754,91.200 231.477,91.200 231.671 C 91.200 232.695,101.055 242.400,102.095 242.400 C 102.386 242.400,102.883 242.760,103.200 243.200 C 103.517 243.640,104.057 244.000,104.400 244.000 C 104.743 244.000,105.283 244.360,105.600 244.800 C 105.917 245.240,106.497 245.600,106.888 245.600 C 107.280 245.600,107.600 245.780,107.600 246.000 C 107.600 246.220,107.960 246.400,108.400 246.400 C 108.840 246.400,109.200 246.580,109.200 246.800 C 109.200 247.020,109.470 247.200,109.800 247.200 C 110.130 247.200,110.400 247.380,110.400 247.600 C 110.400 247.820,110.749 248.000,111.176 248.000 C 111.603 248.000,112.064 248.180,112.200 248.400 C 112.336 248.620,112.797 248.800,113.224 248.800 C 113.651 248.800,114.000 248.980,114.000 249.200 C 114.000 249.420,114.439 249.600,114.976 249.600 C 115.513 249.600,116.064 249.780,116.200 250.000 C 116.336 250.220,116.876 250.400,117.400 250.400 C 117.924 250.400,118.464 250.580,118.600 250.800 C 118.736 251.020,119.456 251.200,120.200 251.200 C 120.944 251.200,121.664 251.380,121.800 251.600 C 121.936 251.820,123.027 252.000,124.224 252.000 C 125.421 252.000,126.400 252.180,126.400 252.400 C 126.400 252.651,128.992 252.800,133.376 252.800 C 137.596 252.800,140.450 252.642,140.600 252.400 C 140.736 252.180,141.737 252.000,142.824 252.000 C 143.911 252.000,144.800 251.820,144.800 251.600 C 144.800 251.380,145.520 251.200,146.400 251.200 C 147.280 251.200,148.000 251.020,148.000 250.800 C 148.000 250.580,148.619 250.400,149.376 250.400 C 150.133 250.400,150.864 250.220,151.000 250.000 C 151.136 249.780,151.597 249.600,152.024 249.600 C 152.451 249.600,152.800 249.420,152.800 249.200 C 152.800 248.980,153.135 248.800,153.544 248.800 C 154.193 248.800,159.058 246.552,159.600 246.002 C 159.710 245.890,160.295 245.544,160.900 245.232 C 161.505 244.920,162.000 244.515,162.000 244.332 C 162.000 244.150,162.288 244.000,162.640 244.000 C 162.991 244.000,163.783 243.460,164.400 242.800 C 165.017 242.140,165.790 241.600,166.119 241.600 C 166.876 241.600,175.200 233.309,175.200 232.554 C 175.200 232.246,175.740 231.428,176.400 230.737 C 177.060 230.046,177.600 229.238,177.600 228.941 C 177.600 228.643,177.780 228.400,178.000 228.400 C 178.220 228.400,178.400 228.080,178.400 227.688 C 178.400 227.297,178.760 226.717,179.200 226.400 C 179.640 226.083,180.000 225.503,180.000 225.112 C 180.000 224.720,180.180 224.400,180.400 224.400 C 180.620 224.400,180.800 224.040,180.800 223.600 C 180.800 223.160,180.980 222.800,181.200 222.800 C 181.420 222.800,181.600 222.451,181.600 222.024 C 181.600 221.597,181.780 221.136,182.000 221.000 C 182.220 220.864,182.400 220.403,182.400 219.976 C 182.400 219.549,182.580 219.200,182.800 219.200 C 183.020 219.200,183.200 218.660,183.200 218.000 C 183.200 217.340,183.380 216.800,183.600 216.800 C 183.820 216.800,184.000 216.260,184.000 215.600 C 184.000 214.940,184.180 214.400,184.400 214.400 C 184.620 214.400,184.800 214.040,184.800 213.600 C 184.800 212.802,185.067 212.800,288.600 212.800 C 357.533 212.800,392.400 212.666,392.400 212.400 C 392.400 212.180,392.760 212.000,393.200 212.000 C 393.640 212.000,394.000 211.820,394.000 211.600 C 394.000 211.380,394.275 211.200,394.611 211.200 C 395.488 211.200,398.489 208.069,399.347 206.259 C 400.242 204.369,400.203 194.001,399.300 193.700 C 399.025 193.608,398.800 193.274,398.800 192.956 C 398.800 192.187,395.386 188.800,394.611 188.800 C 394.275 188.800,394.000 188.620,394.000 188.400 C 394.000 188.180,393.640 188.000,393.200 188.000 C 392.760 188.000,392.400 187.820,392.400 187.600 C 392.400 187.334,357.533 187.200,288.600 187.200 C 185.067 187.200,184.800 187.198,184.800 186.400 C 184.800 185.960,184.620 185.600,184.400 185.600 C 184.180 185.600,184.000 185.060,184.000 184.400 C 184.000 183.740,183.820 183.200,183.600 183.200 C 183.380 183.200,183.200 182.660,183.200 182.000 C 183.200 181.340,183.020 180.800,182.800 180.800 C 182.580 180.800,182.400 180.451,182.400 180.024 C 182.400 179.597,182.220 179.136,182.000 179.000 C 181.780 178.864,181.600 178.403,181.600 177.976 C 181.600 177.549,181.420 177.200,181.200 177.200 C 180.980 177.200,180.800 176.840,180.800 176.400 C 180.800 175.960,180.620 175.600,180.400 175.600 C 180.180 175.600,180.000 175.280,180.000 174.888 C 180.000 174.497,179.640 173.917,179.200 173.600 C 178.760 173.283,178.400 172.703,178.400 172.312 C 178.400 171.920,178.220 171.600,178.000 171.600 C 177.780 171.600,177.600 171.357,177.600 171.059 C 177.600 170.762,177.060 169.954,176.400 169.263 C 175.740 168.572,175.200 167.770,175.200 167.479 C 175.200 166.638,166.830 158.400,165.975 158.400 C 165.725 158.400,165.017 157.860,164.400 157.200 C 163.783 156.540,162.991 156.000,162.640 156.000 C 162.288 156.000,162.000 155.850,162.000 155.668 C 162.000 155.485,161.505 155.080,160.900 154.768 C 160.295 154.456,159.710 154.110,159.600 153.998 C 159.058 153.448,154.193 151.200,153.544 151.200 C 153.135 151.200,152.800 151.020,152.800 150.800 C 152.800 150.580,152.451 150.400,152.024 150.400 C 151.597 150.400,151.136 150.220,151.000 150.000 C 150.864 149.780,150.234 149.600,149.600 149.600 C 148.966 149.600,148.336 149.420,148.200 149.200 C 148.064 148.980,147.243 148.800,146.376 148.800 C 145.509 148.800,144.800 148.637,144.800 148.437 C 144.800 147.616,127.104 146.784,126.611 147.582 M140.900 174.821 C 142.385 175.102,143.600 175.482,143.600 175.666 C 143.600 175.850,143.870 176.000,144.200 176.000 C 144.530 176.000,144.800 176.180,144.800 176.400 C 144.800 176.620,145.160 176.800,145.600 176.800 C 146.040 176.800,146.400 176.980,146.400 177.200 C 146.400 177.420,146.670 177.600,147.000 177.600 C 147.330 177.600,147.600 177.780,147.600 178.000 C 147.600 178.220,147.793 178.400,148.029 178.400 C 148.639 178.400,154.887 184.782,155.568 186.100 C 155.880 186.705,156.285 187.200,156.468 187.200 C 156.650 187.200,156.800 187.560,156.800 188.000 C 156.800 188.440,156.980 188.800,157.200 188.800 C 157.420 188.800,157.600 189.250,157.600 189.800 C 157.600 190.350,157.780 190.800,158.000 190.800 C 158.220 190.800,158.400 191.149,158.400 191.576 C 158.400 192.003,158.580 192.464,158.800 192.600 C 159.020 192.736,159.200 193.647,159.200 194.624 C 159.200 195.601,159.380 196.400,159.600 196.400 C 159.837 196.400,160.000 197.867,160.000 200.000 C 160.000 202.133,159.837 203.600,159.600 203.600 C 159.380 203.600,159.200 204.500,159.200 205.600 C 159.200 206.700,159.020 207.600,158.800 207.600 C 158.580 207.600,158.400 207.949,158.400 208.376 C 158.400 208.803,158.220 209.264,158.000 209.400 C 157.780 209.536,157.600 209.997,157.600 210.424 C 157.600 210.851,157.420 211.200,157.200 211.200 C 156.980 211.200,156.800 211.560,156.800 212.000 C 156.800 212.440,156.650 212.800,156.468 212.800 C 156.285 212.800,155.880 213.295,155.568 213.900 C 154.887 215.218,148.639 221.600,148.029 221.600 C 147.793 221.600,147.600 221.780,147.600 222.000 C 147.600 222.220,147.330 222.400,147.000 222.400 C 146.670 222.400,146.400 222.580,146.400 222.800 C 146.400 223.020,146.040 223.200,145.600 223.200 C 145.160 223.200,144.800 223.380,144.800 223.600 C 144.800 223.820,144.530 224.000,144.200 224.000 C 143.870 224.000,143.600 224.180,143.600 224.400 C 143.600 224.620,143.060 224.800,142.400 224.800 C 141.740 224.800,141.200 224.980,141.200 225.200 C 141.200 225.420,140.480 225.600,139.600 225.600 C 138.720 225.600,138.000 225.780,138.000 226.000 C 138.000 226.242,136.275 226.400,133.624 226.400 C 131.137 226.400,129.140 226.227,129.000 226.000 C 128.864 225.780,128.133 225.600,127.376 225.600 C 126.619 225.600,126.000 225.420,126.000 225.200 C 126.000 224.980,125.657 224.800,125.238 224.800 C 124.422 224.800,121.088 223.199,120.867 222.700 C 120.793 222.535,120.428 222.400,120.055 222.400 C 119.682 222.400,119.117 222.040,118.800 221.600 C 118.483 221.160,118.017 220.800,117.765 220.800 C 117.105 220.800,112.800 216.572,112.800 215.923 C 112.800 215.622,112.440 215.117,112.000 214.800 C 111.560 214.483,111.200 213.903,111.200 213.512 C 111.200 213.120,111.020 212.800,110.800 212.800 C 110.580 212.800,110.400 212.530,110.400 212.200 C 110.400 211.870,110.220 211.600,110.000 211.600 C 109.780 211.600,109.600 211.240,109.600 210.800 C 109.600 210.360,109.438 210.000,109.240 210.000 C 108.516 210.000,107.866 205.267,107.866 200.000 C 107.866 194.733,108.516 190.000,109.240 190.000 C 109.438 190.000,109.600 189.640,109.600 189.200 C 109.600 188.760,109.780 188.400,110.000 188.400 C 110.220 188.400,110.400 188.130,110.400 187.800 C 110.400 187.470,110.580 187.200,110.800 187.200 C 111.020 187.200,111.200 186.880,111.200 186.488 C 111.200 186.097,111.560 185.517,112.000 185.200 C 112.440 184.883,112.800 184.378,112.800 184.077 C 112.800 183.428,117.105 179.200,117.765 179.200 C 118.017 179.200,118.483 178.840,118.800 178.400 C 119.117 177.960,119.682 177.600,120.055 177.600 C 120.428 177.600,120.793 177.465,120.867 177.300 C 121.162 176.636,124.553 175.207,126.425 174.959 C 127.521 174.814,128.521 174.528,128.647 174.324 C 128.953 173.829,137.486 174.175,140.900 174.821 M262.400 255.600 C 262.400 255.831,261.141 256.000,259.424 256.000 C 257.787 256.000,256.336 256.180,256.200 256.400 C 256.064 256.620,255.243 256.800,254.376 256.800 C 253.509 256.800,252.800 256.980,252.800 257.200 C 252.800 257.420,252.260 257.600,251.600 257.600 C 250.940 257.600,250.400 257.780,250.400 258.000 C 250.400 258.220,249.860 258.400,249.200 258.400 C 248.540 258.400,248.000 258.580,248.000 258.800 C 248.000 259.020,247.550 259.200,247.000 259.200 C 246.450 259.200,246.000 259.357,246.000 259.549 C 246.000 259.741,245.280 260.013,244.400 260.154 C 243.520 260.294,242.800 260.587,242.800 260.805 C 242.800 261.022,242.440 261.200,242.000 261.200 C 241.560 261.200,241.200 261.359,241.200 261.553 C 241.200 261.748,240.885 262.007,240.500 262.129 C 239.591 262.417,237.647 263.612,236.642 264.500 C 236.206 264.885,235.685 265.200,235.485 265.200 C 235.285 265.200,234.617 265.740,234.000 266.400 C 233.383 267.060,232.773 267.600,232.644 267.600 C 231.897 267.600,226.400 273.156,226.400 273.911 C 226.400 274.094,225.815 274.892,225.100 275.685 C 222.964 278.054,222.400 278.788,222.400 279.205 C 222.400 279.422,222.220 279.600,222.000 279.600 C 221.780 279.600,221.600 279.870,221.600 280.200 C 221.600 280.530,221.420 280.800,221.200 280.800 C 220.980 280.800,220.800 281.160,220.800 281.600 C 220.800 282.040,220.620 282.400,220.400 282.400 C 220.180 282.400,220.000 282.760,220.000 283.200 C 220.000 283.640,219.820 284.000,219.600 284.000 C 219.380 284.000,219.200 284.360,219.200 284.800 C 219.200 285.240,219.020 285.600,218.800 285.600 C 218.580 285.600,218.400 285.960,218.400 286.400 C 218.400 286.840,218.220 287.200,218.000 287.200 C 217.780 287.200,217.600 287.549,217.600 287.976 C 217.600 288.403,217.420 288.864,217.200 289.000 C 216.980 289.136,216.800 289.687,216.800 290.224 C 216.800 290.761,216.620 291.200,216.400 291.200 C 216.180 291.200,215.994 291.695,215.987 292.300 C 215.955 295.049,226.262 294.800,112.450 294.800 C 9.342 294.800,6.800 294.831,6.800 296.097 C 6.800 296.264,6.531 296.400,6.203 296.400 C 5.593 296.400,3.974 297.618,2.835 298.934 C 0.669 301.436,0.420 301.898,0.172 303.882 C -0.229 307.091,0.138 314.113,0.717 314.306 C 0.983 314.394,1.200 314.733,1.200 315.059 C 1.200 315.793,4.904 319.452,5.998 319.800 C 6.439 319.939,6.800 320.202,6.800 320.383 C 6.800 321.241,16.362 321.339,112.361 321.467 C 187.216 321.566,215.067 321.724,215.461 322.051 C 215.757 322.297,216.000 323.005,216.000 323.625 C 216.000 324.245,216.180 324.864,216.400 325.000 C 216.620 325.136,216.800 325.597,216.800 326.024 C 216.800 326.451,216.980 326.800,217.200 326.800 C 217.420 326.800,217.600 327.340,217.600 328.000 C 217.600 328.660,217.780 329.200,218.000 329.200 C 218.220 329.200,218.400 329.560,218.400 330.000 C 218.400 330.440,218.580 330.800,218.800 330.800 C 219.020 330.800,219.200 331.160,219.200 331.600 C 219.200 332.040,219.380 332.400,219.600 332.400 C 219.820 332.400,220.000 332.760,220.000 333.200 C 220.000 333.640,220.180 334.000,220.400 334.000 C 220.620 334.000,220.800 334.320,220.800 334.712 C 220.800 335.103,221.160 335.683,221.600 336.000 C 222.040 336.317,222.400 336.857,222.400 337.200 C 222.400 337.543,222.760 338.083,223.200 338.400 C 223.640 338.717,224.000 339.207,224.000 339.488 C 224.000 339.770,224.180 340.000,224.400 340.000 C 224.620 340.000,224.800 340.258,224.800 340.573 C 224.800 340.888,225.131 341.251,225.536 341.380 C 225.941 341.508,226.526 342.105,226.836 342.707 C 227.568 344.126,233.984 350.399,234.707 350.401 C 234.868 350.401,235.630 350.941,236.400 351.600 C 237.170 352.259,238.025 352.799,238.300 352.799 C 238.575 352.800,238.801 352.935,238.803 353.100 C 238.805 353.265,239.210 353.601,239.703 353.846 C 240.196 354.091,241.680 354.838,243.000 355.507 C 247.462 357.766,249.339 358.472,251.473 358.692 C 252.643 358.813,253.600 359.067,253.600 359.256 C 253.600 359.445,254.309 359.600,255.176 359.600 C 256.043 359.600,256.864 359.780,257.000 360.000 C 257.153 360.248,260.804 360.400,266.624 360.400 C 272.608 360.400,276.000 360.255,276.000 360.000 C 276.000 359.780,276.799 359.600,277.776 359.600 C 278.753 359.600,279.649 359.444,279.767 359.253 C 279.885 359.062,280.902 358.783,282.026 358.634 C 283.150 358.485,284.369 358.212,284.735 358.028 C 285.101 357.844,285.850 357.515,286.400 357.297 C 288.445 356.487,291.404 354.990,291.533 354.700 C 291.607 354.535,291.929 354.400,292.250 354.400 C 292.571 354.400,293.220 354.040,293.692 353.600 C 294.164 353.160,294.787 352.800,295.075 352.800 C 295.364 352.800,295.600 352.632,295.600 352.427 C 295.600 352.222,295.966 351.938,296.413 351.796 C 296.860 351.654,297.662 351.102,298.195 350.569 C 298.728 350.036,299.333 349.600,299.541 349.600 C 300.055 349.600,305.431 344.259,307.393 341.798 C 308.269 340.699,309.124 339.740,309.293 339.667 C 309.462 339.593,309.600 339.228,309.600 338.855 C 309.600 338.482,309.960 337.917,310.400 337.600 C 310.840 337.283,311.200 336.786,311.200 336.495 C 311.200 336.204,311.560 335.580,312.000 335.108 C 312.440 334.636,312.800 334.013,312.800 333.725 C 312.800 333.436,312.980 333.200,313.200 333.200 C 313.420 333.200,313.600 332.840,313.600 332.400 C 313.600 331.960,313.780 331.600,314.000 331.600 C 314.220 331.600,314.400 331.240,314.400 330.800 C 314.400 330.360,314.580 330.000,314.800 330.000 C 315.020 330.000,315.200 329.460,315.200 328.800 C 315.200 328.140,315.380 327.600,315.600 327.600 C 315.820 327.600,316.000 327.240,316.000 326.800 C 316.000 326.360,316.180 326.000,316.400 326.000 C 316.620 326.000,316.800 325.471,316.800 324.824 C 316.800 324.177,316.980 323.536,317.200 323.400 C 317.420 323.264,317.600 322.805,317.600 322.381 C 317.600 321.624,318.351 321.605,353.900 321.467 C 388.334 321.332,393.200 321.195,393.200 320.356 C 393.200 320.160,393.446 320.000,393.746 320.000 C 394.503 320.000,398.800 315.806,398.800 315.068 C 398.800 314.737,399.025 314.392,399.300 314.300 C 399.668 314.178,399.800 312.657,399.800 308.529 C 399.800 302.729,399.514 301.436,397.903 299.953 C 397.516 299.597,397.200 299.102,397.200 298.853 C 397.200 298.604,397.028 298.400,396.818 298.400 C 396.608 298.400,395.986 297.950,395.436 297.400 C 394.886 296.850,394.158 296.400,393.818 296.400 C 393.478 296.400,393.200 296.264,393.200 296.097 C 393.200 294.917,389.648 294.800,353.806 294.800 L 317.600 294.800 317.600 293.800 C 317.600 293.250,317.420 292.800,317.200 292.800 C 316.980 292.800,316.800 292.260,316.800 291.600 C 316.800 290.940,316.620 290.400,316.400 290.400 C 316.180 290.400,316.000 289.961,316.000 289.424 C 316.000 288.887,315.820 288.336,315.600 288.200 C 315.380 288.064,315.200 287.603,315.200 287.176 C 315.200 286.749,315.020 286.400,314.800 286.400 C 314.580 286.400,314.400 286.040,314.400 285.600 C 314.400 285.160,314.220 284.800,314.000 284.800 C 313.780 284.800,313.600 284.440,313.600 284.000 C 313.600 283.560,313.420 283.200,313.200 283.200 C 312.980 283.200,312.800 282.840,312.800 282.400 C 312.800 281.960,312.620 281.600,312.400 281.600 C 312.180 281.600,312.000 281.330,312.000 281.000 C 312.000 280.670,311.820 280.400,311.600 280.400 C 311.380 280.400,311.200 280.130,311.200 279.800 C 311.200 279.470,311.020 279.200,310.800 279.200 C 310.580 279.200,310.400 278.996,310.400 278.747 C 310.400 278.498,310.066 278.003,309.657 277.647 C 309.249 277.291,308.789 276.604,308.637 276.120 C 308.315 275.101,299.419 266.000,298.745 266.000 C 298.497 266.000,298.003 265.684,297.647 265.297 C 297.291 264.911,296.505 264.340,295.900 264.030 C 295.295 263.719,294.800 263.315,294.800 263.132 C 294.800 262.950,294.455 262.800,294.033 262.800 C 293.612 262.800,293.207 262.643,293.133 262.451 C 292.928 261.914,288.930 260.000,288.013 260.000 C 287.566 260.000,287.200 259.820,287.200 259.600 C 287.200 259.380,286.840 259.200,286.400 259.200 C 285.960 259.200,285.600 259.020,285.600 258.800 C 285.600 258.580,285.060 258.400,284.400 258.400 C 283.740 258.400,283.200 258.220,283.200 258.000 C 283.200 257.780,282.671 257.600,282.024 257.600 C 281.377 257.600,280.736 257.420,280.600 257.200 C 280.464 256.980,279.553 256.800,278.576 256.800 C 277.599 256.800,276.800 256.620,276.800 256.400 C 276.800 256.169,275.533 256.000,273.800 256.000 C 272.067 256.000,270.800 255.831,270.800 255.600 C 270.800 255.359,269.133 255.200,266.600 255.200 C 264.067 255.200,262.400 255.359,262.400 255.600 M269.200 282.000 C 269.200 282.220,270.100 282.400,271.200 282.400 C 272.300 282.400,273.200 282.580,273.200 282.800 C 273.200 283.020,273.740 283.200,274.400 283.200 C 275.060 283.200,275.600 283.380,275.600 283.600 C 275.600 283.820,275.865 284.000,276.188 284.000 C 276.720 284.000,277.732 284.495,280.408 286.062 C 282.410 287.235,287.603 292.218,288.368 293.700 C 288.680 294.305,289.085 294.800,289.268 294.800 C 289.450 294.800,289.600 295.160,289.600 295.600 C 289.600 296.040,289.780 296.400,290.000 296.400 C 290.220 296.400,290.400 296.760,290.400 297.200 C 290.400 297.640,290.580 298.000,290.800 298.000 C 291.020 298.000,291.200 298.439,291.200 298.976 C 291.200 299.513,291.380 300.064,291.600 300.200 C 291.820 300.336,292.000 300.977,292.000 301.624 C 292.000 302.271,292.180 302.800,292.400 302.800 C 292.646 302.800,292.800 304.792,292.800 307.976 C 292.800 310.996,292.633 313.256,292.400 313.400 C 292.180 313.536,292.000 314.177,292.000 314.824 C 292.000 315.471,291.820 316.000,291.600 316.000 C 291.380 316.000,291.200 316.540,291.200 317.200 C 291.200 317.860,291.020 318.400,290.800 318.400 C 290.580 318.400,290.400 318.760,290.400 319.200 C 290.400 319.640,290.220 320.000,290.000 320.000 C 289.780 320.000,289.600 320.320,289.600 320.712 C 289.600 321.103,289.240 321.683,288.800 322.000 C 288.360 322.317,288.000 322.819,288.000 323.114 C 288.000 323.904,282.428 329.200,281.597 329.200 C 281.379 329.200,281.200 329.380,281.200 329.600 C 281.200 329.820,280.930 330.000,280.600 330.000 C 280.270 330.000,280.000 330.146,280.000 330.325 C 280.000 330.504,279.370 330.898,278.600 331.200 C 277.830 331.502,277.200 331.852,277.200 331.977 C 277.200 332.285,274.212 333.200,273.206 333.200 C 272.763 333.200,272.400 333.380,272.400 333.600 C 272.400 333.824,271.293 334.000,269.880 334.000 C 268.494 334.000,267.164 334.196,266.925 334.435 C 266.612 334.748,266.415 334.748,266.222 334.435 C 266.070 334.189,264.744 334.000,263.176 334.000 C 261.592 334.000,260.400 333.828,260.400 333.600 C 260.400 333.380,259.860 333.200,259.200 333.200 C 258.540 333.200,258.000 333.020,258.000 332.800 C 258.000 332.580,257.550 332.400,257.000 332.400 C 256.450 332.400,256.000 332.220,256.000 332.000 C 256.000 331.780,255.640 331.600,255.200 331.600 C 254.760 331.600,254.400 331.442,254.400 331.249 C 254.400 331.055,253.860 330.673,253.200 330.400 C 252.540 330.127,252.000 329.774,252.000 329.616 C 252.000 329.458,251.543 329.120,250.985 328.866 C 250.427 328.612,249.703 328.178,249.377 327.902 C 247.338 326.178,246.400 325.232,246.400 324.899 C 246.400 324.690,245.860 323.954,245.200 323.263 C 244.540 322.572,244.000 321.736,244.000 321.404 C 244.000 321.072,243.820 320.800,243.600 320.800 C 243.380 320.800,243.200 320.440,243.200 320.000 C 243.200 319.560,243.020 319.200,242.800 319.200 C 242.580 319.200,242.400 318.840,242.400 318.400 C 242.400 317.960,242.234 317.600,242.032 317.600 C 241.829 317.600,241.538 316.427,241.385 314.994 C 241.231 313.561,240.947 312.291,240.753 312.171 C 240.559 312.051,240.400 310.264,240.400 308.200 C 240.400 306.136,240.559 304.349,240.753 304.229 C 240.947 304.109,241.231 302.839,241.385 301.406 C 241.538 299.973,241.829 298.800,242.032 298.800 C 242.234 298.800,242.400 298.440,242.400 298.000 C 242.400 297.560,242.580 297.200,242.800 297.200 C 243.020 297.200,243.200 296.840,243.200 296.400 C 243.200 295.960,243.380 295.600,243.600 295.600 C 243.820 295.600,244.000 295.280,244.000 294.888 C 244.000 294.497,244.360 293.917,244.800 293.600 C 245.240 293.283,245.600 292.703,245.600 292.312 C 245.600 291.920,245.776 291.600,245.991 291.600 C 246.207 291.600,247.373 290.610,248.583 289.400 C 249.793 288.190,250.933 287.200,251.116 287.200 C 251.299 287.200,251.798 286.885,252.225 286.500 C 253.319 285.512,257.965 283.200,258.856 283.200 C 259.265 283.200,259.600 283.020,259.600 282.800 C 259.600 282.580,260.500 282.400,261.600 282.400 C 262.700 282.400,263.600 282.220,263.600 282.000 C 263.600 281.771,264.800 281.600,266.400 281.600 C 268.000 281.600,269.200 281.771,269.200 282.000" stroke="none" fill="currentColor" fill-rule="evenodd"/>
<path id="path1" d="" stroke="none" fill="#383434" fill-rule="evenodd"/>
<path id="path2" d="" stroke="none" fill="#383434" fill-rule="evenodd"/><path id="path3" d="" stroke="none" fill="#383434" fill-rule="evenodd"/>
<path id="path4" d="" stroke="none" fill="#383434" fill-rule="evenodd"/>
</g>
</symbol>
</svg>