<?xml version="1.0" encoding="utf-8"?>
<svg xmlns="http://www.w3.org/2000/svg">
<symbol id="follow" viewBox="0, 0, 400,400">
  <g id="svgg">
    <path id="path0" d="M293.828 0.924 C 292.416 1.795,289.600 4.770,289.600 5.389 C 289.600 5.725,289.420 6.000,289.200 6.000 C 288.938 6.000,288.800 14.600,288.800 31.000 L 288.800 56.000 286.400 56.000 C 285.067 56.000,284.000 56.178,284.000 56.400 C 284.000 56.641,282.333 56.800,279.800 56.800 C 277.267 56.800,275.600 56.959,275.600 57.200 C 275.600 57.431,274.333 57.600,272.600 57.600 C 270.950 57.600,269.600 57.753,269.600 57.941 C 269.600 58.128,268.113 58.386,266.295 58.514 C 264.477 58.643,262.452 58.964,261.795 59.229 C 261.138 59.493,260.060 59.762,259.400 59.826 C 258.740 59.890,257.390 60.148,256.400 60.400 C 255.410 60.652,254.013 60.955,253.296 61.073 C 252.579 61.192,251.894 61.449,251.773 61.644 C 251.652 61.840,251.034 62.000,250.400 62.000 C 249.766 62.000,249.136 62.180,249.000 62.400 C 248.864 62.620,248.324 62.800,247.800 62.800 C 247.276 62.800,246.736 62.980,246.600 63.200 C 246.464 63.420,246.001 63.600,245.571 63.600 C 245.141 63.600,244.387 63.808,243.895 64.062 C 242.018 65.033,241.593 65.200,241.005 65.200 C 240.672 65.200,240.400 65.380,240.400 65.600 C 240.400 65.820,239.860 66.000,239.200 66.000 C 238.540 66.000,238.000 66.180,238.000 66.400 C 238.000 66.620,237.640 66.800,237.200 66.800 C 236.760 66.800,236.400 66.980,236.400 67.200 C 236.400 67.420,236.051 67.600,235.624 67.600 C 235.197 67.600,234.736 67.780,234.600 68.000 C 234.464 68.220,234.003 68.400,233.576 68.400 C 233.149 68.400,232.800 68.580,232.800 68.800 C 232.800 69.020,232.547 69.200,232.238 69.200 C 231.572 69.200,228.259 70.868,228.067 71.300 C 227.993 71.465,227.678 71.600,227.367 71.600 C 227.055 71.600,226.800 71.780,226.800 72.000 C 226.800 72.220,226.530 72.400,226.200 72.400 C 225.870 72.400,225.600 72.580,225.600 72.800 C 225.600 73.020,225.240 73.200,224.800 73.200 C 224.360 73.200,224.000 73.380,224.000 73.600 C 224.000 73.820,223.640 74.000,223.200 74.000 C 222.760 74.000,222.400 74.159,222.400 74.354 C 222.400 74.549,221.815 74.987,221.100 75.328 C 220.385 75.669,219.403 76.319,218.917 76.774 C 218.431 77.228,217.873 77.600,217.676 77.600 C 217.479 77.600,216.797 78.098,216.159 78.708 C 215.522 79.317,214.562 80.122,214.026 80.497 C 210.588 82.904,197.182 96.235,194.797 99.619 C 194.261 100.378,193.413 101.448,192.911 101.996 C 192.410 102.544,192.000 103.192,192.000 103.437 C 192.000 103.681,191.460 104.446,190.800 105.137 C 190.140 105.828,189.600 106.625,189.600 106.908 C 189.600 107.191,189.240 107.683,188.800 108.000 C 188.360 108.317,188.000 108.907,188.000 109.312 C 188.000 109.716,187.847 109.953,187.660 109.837 C 187.473 109.722,187.068 110.116,186.760 110.714 C 186.452 111.311,185.885 112.149,185.500 112.575 C 185.115 113.002,184.800 113.587,184.800 113.875 C 184.800 114.164,184.620 114.400,184.400 114.400 C 184.180 114.400,184.000 114.636,184.000 114.925 C 184.000 115.213,183.640 115.836,183.200 116.308 C 182.760 116.780,182.400 117.444,182.400 117.783 C 182.400 118.122,182.220 118.400,182.000 118.400 C 181.780 118.400,181.600 118.760,181.600 119.200 C 181.600 119.640,181.465 120.001,181.300 120.003 C 181.135 120.005,180.811 120.410,180.581 120.903 C 180.350 121.396,179.607 122.880,178.928 124.200 C 178.250 125.520,177.212 127.680,176.622 129.000 C 176.032 130.320,175.380 131.713,175.174 132.095 C 174.969 132.477,174.800 133.242,174.800 133.795 C 174.800 134.348,174.620 134.800,174.400 134.800 C 174.180 134.800,174.000 135.160,174.000 135.600 C 174.000 136.040,173.820 136.400,173.600 136.400 C 173.380 136.400,173.200 136.940,173.200 137.600 C 173.200 138.260,173.020 138.800,172.800 138.800 C 172.580 138.800,172.400 139.340,172.400 140.000 C 172.400 140.660,172.220 141.200,172.000 141.200 C 171.780 141.200,171.600 141.639,171.600 142.176 C 171.600 142.713,171.420 143.264,171.200 143.400 C 170.980 143.536,170.800 144.087,170.800 144.624 C 170.800 145.161,170.620 145.600,170.400 145.600 C 170.180 145.600,170.000 146.230,170.000 147.000 C 170.000 147.770,169.820 148.400,169.600 148.400 C 169.380 148.400,169.200 149.019,169.200 149.776 C 169.200 150.533,169.020 151.264,168.800 151.400 C 168.580 151.536,168.400 152.256,168.400 153.000 C 168.400 153.744,168.220 154.464,168.000 154.600 C 167.780 154.736,167.600 155.647,167.600 156.624 C 167.600 157.601,167.420 158.400,167.200 158.400 C 166.980 158.400,166.800 159.289,166.800 160.376 C 166.800 161.463,166.620 162.464,166.400 162.600 C 166.180 162.736,166.000 163.906,166.000 165.200 C 166.000 166.494,165.820 167.664,165.600 167.800 C 165.380 167.936,165.200 169.567,165.200 171.424 C 165.200 173.408,165.035 174.800,164.800 174.800 C 164.253 174.800,164.253 197.462,164.800 197.800 C 165.020 197.936,165.200 199.556,165.200 201.400 C 165.200 203.244,165.380 204.864,165.600 205.000 C 165.820 205.136,166.000 206.227,166.000 207.424 C 166.000 208.621,166.180 209.600,166.400 209.600 C 166.620 209.600,166.800 210.579,166.800 211.776 C 166.800 212.973,166.980 214.064,167.200 214.200 C 167.420 214.336,167.600 215.157,167.600 216.024 C 167.600 216.891,167.780 217.600,168.000 217.600 C 168.220 217.600,168.400 217.875,168.400 218.211 C 168.400 218.991,171.790 222.400,172.566 222.400 C 172.889 222.400,173.264 222.580,173.400 222.800 C 173.790 223.430,179.317 223.277,180.961 222.591 C 182.571 221.918,185.600 219.019,185.600 218.152 C 185.600 217.848,185.759 217.600,185.953 217.600 C 186.148 217.600,186.407 217.285,186.529 216.900 C 186.746 216.215,188.004 213.996,188.400 213.600 C 188.510 213.490,188.825 212.995,189.100 212.500 C 189.375 212.005,189.825 211.195,190.100 210.700 C 190.375 210.205,190.690 209.710,190.800 209.600 C 190.910 209.490,191.360 208.680,191.800 207.800 C 192.240 206.920,192.915 205.851,193.300 205.425 C 193.685 204.998,194.000 204.413,194.000 204.125 C 194.000 203.836,194.150 203.600,194.332 203.600 C 194.515 203.600,194.919 203.105,195.230 202.500 C 195.540 201.895,196.111 201.109,196.497 200.753 C 196.884 200.397,197.200 199.852,197.200 199.541 C 197.200 199.231,197.560 198.717,198.000 198.400 C 198.440 198.083,198.800 197.620,198.800 197.371 C 198.800 197.122,199.340 196.354,200.000 195.663 C 200.660 194.972,201.200 194.220,201.200 193.990 C 201.200 193.761,201.785 192.972,202.500 192.237 C 204.346 190.338,206.726 187.501,207.951 185.737 C 209.131 184.038,217.597 175.538,219.641 174.000 C 220.877 173.070,221.893 172.220,226.448 168.300 C 227.407 167.475,228.379 166.800,228.607 166.800 C 228.836 166.800,229.283 166.440,229.600 166.000 C 229.917 165.560,230.457 165.200,230.800 165.200 C 231.143 165.200,231.683 164.840,232.000 164.400 C 232.317 163.960,232.857 163.600,233.200 163.600 C 233.543 163.600,234.083 163.240,234.400 162.800 C 234.717 162.360,235.297 162.000,235.688 162.000 C 236.080 162.000,236.400 161.854,236.400 161.675 C 236.400 161.496,237.030 161.102,237.800 160.800 C 238.570 160.498,239.200 160.104,239.200 159.925 C 239.200 159.746,239.470 159.600,239.800 159.600 C 240.130 159.600,240.400 159.441,240.400 159.247 C 240.400 158.920,241.661 158.346,242.600 158.243 C 242.820 158.220,243.240 157.973,243.532 157.696 C 243.825 157.419,244.230 157.295,244.432 157.420 C 244.635 157.545,244.800 157.457,244.800 157.224 C 244.800 156.991,245.072 156.800,245.405 156.800 C 245.738 156.800,246.413 156.592,246.905 156.338 C 248.782 155.367,249.207 155.200,249.795 155.200 C 250.128 155.200,250.400 155.020,250.400 154.800 C 250.400 154.580,250.839 154.400,251.376 154.400 C 251.913 154.400,252.464 154.220,252.600 154.000 C 252.736 153.780,253.197 153.600,253.624 153.600 C 254.051 153.600,254.400 153.420,254.400 153.200 C 254.400 152.980,254.929 152.800,255.576 152.800 C 256.223 152.800,256.864 152.620,257.000 152.400 C 257.136 152.180,257.777 152.000,258.424 152.000 C 259.071 152.000,259.600 151.820,259.600 151.600 C 259.600 151.380,260.140 151.200,260.800 151.200 C 261.460 151.200,262.000 151.020,262.000 150.800 C 262.000 150.580,262.799 150.400,263.776 150.400 C 264.753 150.400,265.664 150.220,265.800 150.000 C 265.936 149.780,266.836 149.600,267.800 149.600 C 268.764 149.600,269.664 149.420,269.800 149.200 C 269.936 148.980,271.207 148.800,272.624 148.800 C 274.075 148.800,275.200 148.625,275.200 148.400 C 275.200 148.149,277.733 148.000,282.000 148.000 L 288.800 148.000 288.800 173.800 C 288.800 190.733,288.937 199.600,289.200 199.600 C 289.420 199.600,289.600 199.864,289.600 200.186 C 289.600 200.990,292.340 203.909,293.761 204.620 C 295.114 205.296,302.000 205.446,302.000 204.800 C 302.000 204.580,302.272 204.400,302.603 204.400 C 303.535 204.400,315.996 192.184,326.023 181.439 C 327.440 179.921,329.459 177.851,330.509 176.839 C 332.260 175.153,334.425 172.994,345.091 162.301 C 347.121 160.265,350.991 156.396,353.691 153.702 C 356.391 151.008,360.265 147.138,362.300 145.102 C 364.335 143.066,368.025 139.378,370.500 136.906 C 372.975 134.434,376.710 130.635,378.800 128.463 C 380.890 126.291,382.690 124.552,382.800 124.599 C 382.910 124.646,384.890 122.728,387.200 120.337 C 389.510 117.946,393.290 114.060,395.600 111.701 L 399.800 107.411 399.938 103.473 C 400.140 97.754,399.957 97.166,397.158 94.494 C 395.836 93.232,394.042 91.480,393.171 90.600 C 392.300 89.720,389.005 86.390,385.847 83.200 C 382.690 80.010,378.958 76.298,377.554 74.951 C 376.149 73.604,372.822 70.274,370.159 67.551 C 364.516 61.779,326.465 24.040,312.637 10.500 C 307.414 5.385,302.883 1.200,302.570 1.200 C 302.256 1.200,302.000 1.020,302.000 0.800 C 302.000 0.226,294.782 0.335,293.828 0.924 M342.578 67.837 L 377.274 102.474 373.537 106.313 C 362.332 117.823,357.825 122.393,348.800 131.398 C 345.170 135.020,341.277 138.909,340.148 140.040 C 339.020 141.171,335.307 144.887,331.897 148.297 C 328.487 151.707,324.798 155.398,323.700 156.500 C 322.601 157.601,318.710 161.456,315.051 165.066 C 311.393 168.676,308.400 171.803,308.400 172.015 C 308.400 172.227,308.220 172.400,308.000 172.400 C 307.739 172.400,307.600 166.137,307.600 154.412 C 307.600 136.970,307.575 136.378,306.771 134.912 C 305.757 133.062,303.478 130.800,302.627 130.800 C 302.282 130.800,302.000 130.620,302.000 130.400 C 302.000 130.180,301.316 130.000,300.480 130.000 C 299.644 130.000,298.789 129.832,298.580 129.627 C 297.866 128.924,279.306 128.134,278.662 128.778 C 278.424 129.016,276.542 129.200,274.344 129.200 C 272.177 129.200,270.337 129.378,270.200 129.600 C 270.064 129.820,268.894 130.000,267.600 130.000 C 266.306 130.000,265.136 130.180,265.000 130.400 C 264.864 130.620,263.964 130.800,263.000 130.800 C 262.036 130.800,261.136 130.980,261.000 131.200 C 260.864 131.420,260.043 131.600,259.176 131.600 C 258.309 131.600,257.600 131.780,257.600 132.000 C 257.600 132.220,256.981 132.400,256.224 132.400 C 255.467 132.400,254.736 132.580,254.600 132.800 C 254.464 133.020,253.823 133.200,253.176 133.200 C 252.529 133.200,252.000 133.380,252.000 133.600 C 252.000 133.820,251.460 134.000,250.800 134.000 C 250.140 134.000,249.600 134.180,249.600 134.400 C 249.600 134.620,249.060 134.800,248.400 134.800 C 247.740 134.800,247.200 134.980,247.200 135.200 C 247.200 135.420,246.761 135.600,246.224 135.600 C 245.687 135.600,245.136 135.780,245.000 136.000 C 244.864 136.220,244.313 136.400,243.776 136.400 C 243.239 136.400,242.800 136.580,242.800 136.800 C 242.800 137.020,242.440 137.200,242.000 137.200 C 241.560 137.200,241.200 137.380,241.200 137.600 C 241.200 137.820,240.840 138.000,240.400 138.000 C 239.960 138.000,239.600 138.180,239.600 138.400 C 239.600 138.620,239.060 138.800,238.400 138.800 C 237.740 138.800,237.200 138.980,237.200 139.200 C 237.200 139.420,236.840 139.600,236.400 139.600 C 235.960 139.600,235.600 139.780,235.600 140.000 C 235.600 140.220,235.240 140.400,234.800 140.400 C 234.360 140.400,234.000 140.580,234.000 140.800 C 234.000 141.020,233.655 141.200,233.233 141.200 C 232.812 141.200,232.407 141.335,232.333 141.500 C 232.260 141.665,230.814 142.499,229.119 143.352 C 227.425 144.206,225.677 145.241,225.236 145.652 C 224.795 146.064,224.156 146.400,223.817 146.400 C 223.478 146.400,223.200 146.558,223.200 146.751 C 223.200 146.945,222.660 147.327,222.000 147.600 C 221.340 147.873,220.800 148.243,220.800 148.422 C 220.800 148.600,220.434 148.862,219.987 149.004 C 219.540 149.146,218.738 149.698,218.205 150.231 C 217.672 150.764,217.030 151.200,216.779 151.200 C 216.527 151.200,215.817 151.740,215.200 152.400 C 214.583 153.060,213.903 153.600,213.688 153.600 C 213.473 153.600,212.555 154.320,211.648 155.200 C 210.741 156.080,209.901 156.800,209.781 156.800 C 209.662 156.800,209.148 157.205,208.640 157.700 C 208.132 158.195,206.752 159.410,205.573 160.400 C 202.798 162.732,198.959 166.557,195.200 170.735 C 193.550 172.569,191.975 174.311,191.700 174.606 C 191.425 174.901,191.200 175.246,191.200 175.371 C 191.200 175.496,190.480 176.341,189.600 177.248 C 188.720 178.155,188.000 179.073,188.000 179.288 C 188.000 179.503,187.460 180.183,186.800 180.800 C 186.140 181.417,185.600 182.119,185.600 182.360 C 185.600 182.602,185.420 182.800,185.200 182.800 C 184.980 182.800,184.800 182.993,184.800 183.229 C 184.800 183.464,184.575 183.883,184.300 184.158 C 183.900 184.559,183.826 183.534,183.928 179.030 C 183.998 175.933,184.223 173.229,184.428 173.020 C 184.633 172.811,184.800 171.506,184.800 170.120 C 184.800 168.707,184.976 167.600,185.200 167.600 C 185.422 167.600,185.600 166.533,185.600 165.200 C 185.600 163.867,185.778 162.800,186.000 162.800 C 186.220 162.800,186.400 162.091,186.400 161.224 C 186.400 160.357,186.580 159.536,186.800 159.400 C 187.020 159.264,187.200 158.544,187.200 157.800 C 187.200 157.056,187.380 156.336,187.600 156.200 C 187.820 156.064,188.000 155.434,188.000 154.800 C 188.000 154.166,188.180 153.536,188.400 153.400 C 188.620 153.264,188.800 152.634,188.800 152.000 C 188.800 151.366,188.980 150.736,189.200 150.600 C 189.420 150.464,189.600 149.823,189.600 149.176 C 189.600 148.529,189.740 148.000,189.911 148.000 C 190.288 148.000,191.600 143.713,191.600 142.480 C 191.600 141.996,191.780 141.600,192.000 141.600 C 192.220 141.600,192.400 141.240,192.400 140.800 C 192.400 140.360,192.580 140.000,192.800 140.000 C 193.020 140.000,193.200 139.651,193.200 139.224 C 193.200 138.797,193.380 138.336,193.600 138.200 C 193.820 138.064,194.000 137.603,194.000 137.176 C 194.000 136.749,194.180 136.400,194.400 136.400 C 194.620 136.400,194.800 136.040,194.800 135.600 C 194.800 135.160,194.980 134.800,195.200 134.800 C 195.420 134.800,195.600 134.440,195.600 134.000 C 195.600 133.560,195.780 133.200,196.000 133.200 C 196.220 133.200,196.400 132.840,196.400 132.400 C 196.400 131.960,196.580 131.600,196.800 131.600 C 197.020 131.600,197.200 131.322,197.200 130.983 C 197.200 130.644,197.560 129.980,198.000 129.508 C 198.440 129.036,198.800 128.413,198.800 128.125 C 198.800 127.836,198.980 127.600,199.200 127.600 C 199.420 127.600,199.600 127.240,199.600 126.800 C 199.600 126.360,199.780 126.000,200.000 126.000 C 200.220 126.000,200.400 125.730,200.400 125.400 C 200.400 125.070,200.580 124.800,200.800 124.800 C 201.020 124.800,201.200 124.530,201.200 124.200 C 201.200 123.870,201.380 123.600,201.600 123.600 C 201.820 123.600,202.000 123.330,202.000 123.000 C 202.000 122.670,202.150 122.400,202.332 122.400 C 202.515 122.400,202.920 121.905,203.232 121.300 C 203.545 120.695,204.115 119.851,204.500 119.425 C 204.885 118.998,205.200 118.413,205.200 118.125 C 205.200 117.836,205.335 117.599,205.500 117.597 C 205.665 117.596,206.250 116.921,206.800 116.097 C 208.092 114.163,208.151 114.086,209.802 112.222 C 210.571 111.354,211.200 110.449,211.200 110.210 C 211.200 109.972,211.578 109.512,212.040 109.188 C 212.501 108.865,215.552 105.990,218.818 102.800 C 227.219 94.595,228.745 93.200,229.318 93.200 C 229.596 93.200,230.083 92.840,230.400 92.400 C 230.717 91.960,231.284 91.600,231.660 91.600 C 232.035 91.600,232.581 91.365,232.871 91.078 C 233.162 90.790,234.210 90.115,235.200 89.578 C 236.190 89.040,237.060 88.465,237.133 88.300 C 237.207 88.135,237.612 88.000,238.033 88.000 C 238.455 88.000,238.800 87.854,238.800 87.675 C 238.800 87.496,239.430 87.102,240.200 86.800 C 240.970 86.498,241.600 86.104,241.600 85.925 C 241.600 85.746,242.039 85.600,242.576 85.600 C 243.113 85.600,243.664 85.420,243.800 85.200 C 243.936 84.980,244.397 84.800,244.824 84.800 C 245.251 84.800,245.600 84.620,245.600 84.400 C 245.600 84.180,245.960 84.000,246.400 84.000 C 246.840 84.000,247.200 83.820,247.200 83.600 C 247.200 83.380,247.740 83.200,248.400 83.200 C 249.060 83.200,249.600 83.020,249.600 82.800 C 249.600 82.580,250.140 82.400,250.800 82.400 C 251.460 82.400,252.000 82.220,252.000 82.000 C 252.000 81.780,252.439 81.600,252.976 81.600 C 253.513 81.600,254.064 81.420,254.200 81.200 C 254.336 80.980,254.876 80.800,255.400 80.800 C 255.924 80.800,256.464 80.620,256.600 80.400 C 256.736 80.180,257.366 80.000,258.000 80.000 C 258.634 80.000,259.264 79.820,259.400 79.600 C 259.536 79.380,260.256 79.200,261.000 79.200 C 261.744 79.200,262.464 79.020,262.600 78.800 C 262.736 78.580,263.557 78.400,264.424 78.400 C 265.291 78.400,266.000 78.220,266.000 78.000 C 266.000 77.780,266.900 77.600,268.000 77.600 C 269.100 77.600,270.000 77.420,270.000 77.200 C 270.000 76.980,270.990 76.800,272.200 76.800 C 273.410 76.800,274.400 76.620,274.400 76.400 C 274.400 76.167,275.733 76.000,277.600 76.000 C 279.360 76.000,280.800 75.847,280.800 75.660 C 280.800 75.473,285.406 75.191,291.034 75.034 C 302.098 74.724,302.616 74.620,305.018 72.218 C 307.672 69.564,307.600 70.165,307.600 50.788 C 307.600 41.115,307.664 33.200,307.741 33.200 C 307.819 33.200,323.496 48.787,342.578 67.837 M35.800 52.400 C 35.664 52.620,34.843 52.800,33.976 52.800 C 33.109 52.800,32.400 52.980,32.400 53.200 C 32.400 53.420,31.781 53.600,31.024 53.600 C 30.267 53.600,29.536 53.780,29.400 54.000 C 29.264 54.220,28.803 54.400,28.376 54.400 C 27.949 54.400,27.600 54.580,27.600 54.800 C 27.600 55.020,27.150 55.200,26.600 55.200 C 26.050 55.200,25.600 55.380,25.600 55.600 C 25.600 55.820,25.240 56.000,24.800 56.000 C 24.360 56.000,24.000 56.180,24.000 56.400 C 24.000 56.620,23.655 56.800,23.233 56.800 C 22.812 56.800,22.407 56.935,22.333 57.100 C 22.260 57.265,21.390 57.838,20.400 58.372 C 16.301 60.587,10.098 66.107,8.747 68.744 C 8.449 69.325,7.889 70.091,7.503 70.447 C 7.116 70.803,6.800 71.348,6.800 71.659 C 6.800 71.969,6.440 72.483,6.000 72.800 C 5.560 73.117,5.200 73.697,5.200 74.088 C 5.200 74.480,5.020 74.800,4.800 74.800 C 4.580 74.800,4.400 75.160,4.400 75.600 C 4.400 76.040,4.264 76.400,4.098 76.400 C 3.931 76.400,3.556 76.985,3.264 77.700 C 2.141 80.450,1.896 81.022,1.553 81.695 C 1.359 82.077,1.200 82.917,1.200 83.561 C 1.200 84.206,0.975 84.808,0.700 84.900 C -0.036 85.145,-0.036 318.055,0.700 318.300 C 0.975 318.392,1.200 318.992,1.200 319.633 C 1.200 320.275,1.380 320.800,1.600 320.800 C 1.820 320.800,2.000 321.162,2.000 321.605 C 2.000 322.048,2.161 322.723,2.358 323.105 C 2.555 323.487,3.302 325.015,4.018 326.500 C 4.734 327.985,5.473 329.200,5.660 329.200 C 5.847 329.200,6.000 329.520,6.000 329.912 C 6.000 330.303,6.360 330.883,6.800 331.200 C 7.240 331.517,7.600 332.082,7.600 332.455 C 7.600 332.828,7.735 333.193,7.900 333.267 C 8.065 333.340,9.074 334.480,10.143 335.800 C 11.212 337.120,13.012 338.963,14.143 339.896 C 15.274 340.829,16.599 341.954,17.086 342.396 C 17.573 342.838,18.165 343.200,18.402 343.200 C 18.639 343.200,19.220 343.560,19.692 344.000 C 20.164 344.440,20.787 344.800,21.075 344.800 C 21.364 344.800,21.600 344.980,21.600 345.200 C 21.600 345.420,21.960 345.600,22.400 345.600 C 22.840 345.600,23.200 345.780,23.200 346.000 C 23.200 346.220,23.560 346.400,24.000 346.400 C 24.440 346.400,24.800 346.580,24.800 346.800 C 24.800 347.020,25.160 347.200,25.600 347.200 C 26.040 347.200,26.400 347.380,26.400 347.600 C 26.400 347.820,26.850 348.000,27.400 348.000 C 27.950 348.000,28.400 348.180,28.400 348.400 C 28.400 348.620,28.940 348.800,29.600 348.800 C 30.260 348.800,30.800 348.980,30.800 349.200 C 30.800 349.420,31.419 349.600,32.176 349.600 C 32.933 349.600,33.664 349.780,33.800 350.000 C 33.936 350.220,34.937 350.400,36.024 350.400 C 37.111 350.400,38.000 350.580,38.000 350.800 C 38.000 351.319,338.074 351.358,338.620 350.839 C 338.829 350.640,339.810 350.378,340.800 350.257 C 344.035 349.861,345.604 349.518,345.827 349.156 C 345.948 348.960,346.487 348.800,347.024 348.800 C 347.561 348.800,348.000 348.620,348.000 348.400 C 348.000 348.180,348.540 348.000,349.200 348.000 C 349.860 348.000,350.400 347.820,350.400 347.600 C 350.400 347.380,350.760 347.200,351.200 347.200 C 351.640 347.200,352.000 347.020,352.000 346.800 C 352.000 346.580,352.360 346.400,352.800 346.400 C 353.240 346.400,353.600 346.220,353.600 346.000 C 353.600 345.780,353.878 345.600,354.217 345.600 C 354.556 345.600,355.220 345.240,355.692 344.800 C 356.164 344.360,356.787 344.000,357.075 344.000 C 357.364 344.000,357.600 343.820,357.600 343.600 C 357.600 343.380,357.788 343.200,358.018 343.200 C 358.248 343.200,358.853 342.795,359.363 342.300 C 359.873 341.805,360.719 341.130,361.245 340.800 C 363.130 339.616,369.200 333.048,369.200 332.193 C 369.200 331.964,369.560 331.517,370.000 331.200 C 370.440 330.883,370.800 330.318,370.800 329.945 C 370.800 329.572,370.936 329.207,371.102 329.133 C 371.268 329.060,372.007 327.740,372.744 326.200 C 373.481 324.660,374.251 323.078,374.456 322.684 C 374.660 322.290,374.728 321.807,374.607 321.611 C 374.486 321.416,374.570 321.142,374.793 321.004 C 375.017 320.866,375.200 320.223,375.200 319.576 C 375.200 318.929,375.380 318.400,375.600 318.400 C 375.820 318.400,376.000 317.500,376.000 316.400 C 376.000 315.300,376.180 314.400,376.400 314.400 C 376.662 314.400,376.800 305.933,376.800 289.800 C 376.800 273.667,376.662 265.200,376.400 265.200 C 376.180 265.200,376.000 264.922,376.000 264.583 C 376.000 261.185,368.089 258.459,363.577 260.303 C 358.433 262.406,358.419 262.480,358.409 288.100 C 358.403 302.427,358.262 310.000,358.000 310.000 C 357.780 310.000,357.600 310.720,357.600 311.600 C 357.600 312.480,357.420 313.200,357.200 313.200 C 356.980 313.200,356.800 313.562,356.800 314.005 C 356.800 314.846,356.576 315.403,355.436 317.400 C 355.059 318.060,354.651 318.915,354.529 319.300 C 354.407 319.685,354.148 320.000,353.953 320.000 C 353.759 320.000,353.600 320.254,353.600 320.565 C 353.600 321.919,347.195 327.493,344.100 328.832 C 343.385 329.142,342.800 329.531,342.800 329.698 C 342.800 329.864,342.451 330.000,342.024 330.000 C 341.597 330.000,341.136 330.180,341.000 330.400 C 340.864 330.620,340.234 330.800,339.600 330.800 C 338.966 330.800,338.336 330.980,338.200 331.200 C 338.064 331.420,336.624 331.600,335.000 331.600 C 333.376 331.600,331.936 331.780,331.800 332.000 C 331.457 332.555,44.943 332.555,44.600 332.000 C 44.464 331.780,43.024 331.600,41.400 331.600 C 39.776 331.600,38.336 331.420,38.200 331.200 C 38.064 330.980,37.423 330.800,36.776 330.800 C 36.129 330.800,35.600 330.620,35.600 330.400 C 35.600 330.180,35.347 330.000,35.038 330.000 C 34.373 330.000,31.229 328.416,30.471 327.700 C 29.973 327.228,29.381 327.045,28.700 327.153 C 28.535 327.179,28.400 326.930,28.400 326.600 C 28.400 326.270,28.226 326.000,28.013 326.000 C 27.654 326.000,26.086 324.474,24.200 322.286 C 23.203 321.130,22.022 319.224,21.729 318.300 C 21.607 317.915,21.348 317.600,21.153 317.600 C 20.959 317.600,20.800 317.251,20.800 316.824 C 20.800 316.397,20.620 315.936,20.400 315.800 C 20.180 315.664,20.000 315.113,20.000 314.576 C 20.000 314.039,19.820 313.600,19.600 313.600 C 19.380 313.600,19.200 312.891,19.200 312.024 C 19.200 311.157,19.020 310.336,18.800 310.200 C 18.245 309.857,18.245 92.400,18.800 92.400 C 19.020 92.400,19.200 91.781,19.200 91.024 C 19.200 90.267,19.380 89.536,19.600 89.400 C 19.820 89.264,20.000 88.713,20.000 88.176 C 20.000 87.639,20.180 87.200,20.400 87.200 C 20.620 87.200,20.800 86.966,20.800 86.680 C 20.800 85.944,21.741 84.007,22.100 84.003 C 22.265 84.001,22.400 83.722,22.400 83.383 C 22.400 83.043,22.833 82.298,23.362 81.728 C 23.890 81.158,24.565 80.221,24.862 79.646 C 25.508 78.391,26.216 77.600,26.693 77.600 C 26.886 77.600,27.731 76.970,28.572 76.200 C 29.413 75.430,30.423 74.800,30.817 74.800 C 31.211 74.800,31.593 74.665,31.667 74.500 C 31.885 74.009,35.216 72.400,36.014 72.400 C 36.420 72.400,36.864 72.220,37.000 72.000 C 37.136 71.780,37.946 71.600,38.800 71.600 C 39.654 71.600,40.464 71.420,40.600 71.200 C 40.762 70.939,52.378 70.800,74.144 70.800 C 107.295 70.800,109.584 70.716,109.597 69.500 C 109.599 69.335,109.878 69.200,110.218 69.200 C 111.295 69.200,113.600 66.342,113.600 65.005 C 113.600 64.672,113.780 64.400,114.000 64.400 C 114.527 64.400,114.527 58.126,114.000 57.800 C 113.780 57.664,113.600 57.289,113.600 56.966 C 113.600 56.190,110.191 52.800,109.411 52.800 C 109.075 52.800,108.800 52.620,108.800 52.400 C 108.800 52.136,96.408 52.000,72.424 52.000 C 48.604 52.000,35.962 52.138,35.800 52.400 " stroke="none" fill="currentColor" fill-rule="evenodd"/>
    <path id="path1" d="" stroke="none" fill="#484444" fill-rule="evenodd"/>
    <path id="path2" d="" stroke="none" fill="#484444" fill-rule="evenodd"/>
    <path id="path3" d="" stroke="none" fill="#484444" fill-rule="evenodd"/>
    <path id="path4" d="" stroke="none" fill="#484444" fill-rule="evenodd"/>
  </g>

</symbol>
</svg>