<?xml version="1.0" encoding="utf-8"?>
<svg xmlns="http://www.w3.org/2000/svg">
<symbol id="graph" viewBox="0 0 512.000000 512.000000">

  <g transform="translate(0.000000,512.000000) scale(0.100000,-0.100000)" fill="currentColor" stroke="none">
    <path d="M3869 5091 l-29 -29 0 -2331 0 -2330 24 -28 24 -28 444 -3 c243 -1
453 0 465 3 12 3 32 15 43 27 20 22 20 25 20 2354 0 1283 -3 2340 -6 2349 -17
43 -39 45 -509 45 l-447 0 -29 -29z m821 -2361 l0 -2220 -340 0 -340 0 0 2220
0 2220 340 0 340 0 0 -2220z"/>
    <path d="M1504 4086 c-17 -7 -36 -27 -42 -42 -9 -22 -12 -463 -10 -1841 l3
-1812 23 -23 23 -23 442 -3 c243 -1 452 0 465 3 12 3 31 14 42 25 20 20 20 41
20 1848 l0 1829 -26 24 -26 24 -441 2 c-355 2 -448 0 -473 -11z m796 -1866 l0
-1710 -340 0 -340 0 0 1703 c0 937 3 1707 7 1710 3 4 156 7 340 7 l333 0 0
-1710z"/>
    <path d="M2675 3045 l-25 -24 0 -1316 c0 -1296 0 -1315 20 -1335 11 -11 30
-22 42 -25 13 -3 222 -4 465 -3 l442 3 23 23 23 23 3 1297 c1 713 0 1307 -3
1319 -3 12 -15 32 -27 43 -21 19 -34 20 -480 20 l-459 0 -24 -25z m825 -1340
l0 -1195 -340 0 -340 0 0 1195 0 1195 340 0 340 0 0 -1195z"/>
    <path d="M311 2039 c-52 -21 -50 14 -51 -845 0 -790 0 -800 20 -822 11 -12 31
-24 43 -27 12 -3 222 -4 465 -3 l444 3 24 28 24 28 0 794 0 794 -24 28 -24 28
-449 2 c-274 1 -457 -2 -472 -8z m799 -844 l0 -685 -340 0 -340 0 0 685 0 685
340 0 340 0 0 -685z"/>
    <path d="M0 85 l0 -85 2560 0 2560 0 0 85 0 85 -2560 0 -2560 0 0 -85z"/>
  </g>

</symbol>
</svg>