<?xml version="1.0" encoding="utf-8"?>
<svg xmlns="http://www.w3.org/2000/svg">
    <symbol fill="none" xmlns="http://www.w3.org/2000/svg" viewBox="0 0 20 20" id="grid">
    <path fill-rule="evenodd" clip-rule="evenodd" d="M2 18H7V13H2V18ZM8 20H1C0.447 20 0 19.553 0 19V12C0 11.447 0.447 11 1 11H8C8.553 11 9 11.447 9 12V19C9 19.553 8.553 20 8 20ZM13 18H18V13H13V18ZM19 20H12C11.447 20 11 19.553 11 19V12C11 11.447 11.447 11 12 11H19C19.553 11 20 11.447 20 12V19C20 19.553 19.553 20 19 20ZM13 7H18V2H13V7ZM19 9H12C11.447 9 11 8.552 11 8V1C11 0.448 11.447 0 12 0H19C19.553 0 20 0.448 20 1V8C20 8.552 19.553 9 19 9ZM2 7H7V2H2V7ZM8 9H1C0.447 9 0 8.552 0 8V1C0 0.448 0.447 0 1 0H8C8.553 0 9 0.448 9 1V8C9 8.552 8.553 9 8 9Z" fill="currentColor"></path>
    <mask id="mask0_2147_75059" maskUnits="userSpaceOnUse" x="0" y="0" width="20" height="20">
      <path fill-rule="evenodd" clip-rule="evenodd" d="M2 18H7V13H2V18ZM8 20H1C0.447 20 0 19.553 0 19V12C0 11.447 0.447 11 1 11H8C8.553 11 9 11.447 9 12V19C9 19.553 8.553 20 8 20ZM13 18H18V13H13V18ZM19 20H12C11.447 20 11 19.553 11 19V12C11 11.447 11.447 11 12 11H19C19.553 11 20 11.447 20 12V19C20 19.553 19.553 20 19 20ZM13 7H18V2H13V7ZM19 9H12C11.447 9 11 8.552 11 8V1C11 0.448 11.447 0 12 0H19C19.553 0 20 0.448 20 1V8C20 8.552 19.553 9 19 9ZM2 7H7V2H2V7ZM8 9H1C0.447 9 0 8.552 0 8V1C0 0.448 0.447 0 1 0H8C8.553 0 9 0.448 9 1V8C9 8.552 8.553 9 8 9Z" fill="white"></path>
    </mask>
  </symbol>
</svg>