<?xml version="1.0" encoding="utf-8"?>
<svg xmlns="http://www.w3.org/2000/svg">
<symbol id="health" viewBox="0 0 57 58">
    <path d="M31.551 2.015c-4.405 0-8.003 3.598-8.003 8.004 0 4.506 2.632 9.109 5.502 12.696 1.435 1.794 2.943 3.326 4.295 4.442.676.557 1.309 1.01 1.905 1.347.596.336 1.124.6 1.842.6.717 0 1.246-.264 1.842-.6.596-.336 1.228-.788 1.904-1.347 1.351-1.116 2.86-2.648 4.295-4.442 2.871-3.587 5.504-8.19 5.504-12.696 0-4.406-3.6-8.004-8.003-8.004-2.148 0-4.054 1.027-5.541 2.523-1.491-1.496-3.396-2.523-5.542-2.523Zm0 2.463c1.806 0 3.494.877 4.533 2.354a1.232 1.232 0 0 0 2.015 0 5.536 5.536 0 0 1 4.533-2.354 5.522 5.522 0 0 1 5.541 5.54c0 3.497-2.294 7.822-4.963 11.16-1.336 1.668-2.75 3.099-3.94 4.08-.484.41-1.002.78-1.548 1.103-.414.234-.733.28-.63.28.102 0-.217-.046-.63-.28a11.387 11.387 0 0 1-1.55-1.103c-1.188-.981-2.603-2.412-3.938-4.08-2.67-3.338-4.962-7.663-4.962-11.16a5.52 5.52 0 0 1 5.539-5.54zM16.177 29.103a1.23 1.23 0 0 0-1.118.681L9.244 41.416H2.616a1.231 1.231 0 1 0 0 2.462h7.388a1.23 1.23 0 0 0 1.102-.68l5.054-10.11L27.372 55.51a1.23 1.23 0 0 0 2.203 0l7.517-15.033 3.824 7.646a1.232 1.232 0 0 0 1.979.312l4.485-4.557h6.95a1.232 1.232 0 0 0 0-2.462h-7.464a1.23 1.23 0 0 0-.878.368l-3.639 3.695-4.155-8.308a1.233 1.233 0 0 0-2.204 0l-7.517 15.035-11.21-22.422a1.23 1.23 0 0 0-1.086-.68z" fill="currentColor" style="stroke-width:1.30871"/>

</symbol></svg>