<?xml version="1.0" encoding="utf-8"?>
<svg xmlns="http://www.w3.org/2000/svg">
<symbol id="insight" viewBox="0 0 19 18">
<path d="M14.559 7.08789C13.6634 7.08789 13.1631 7.9773 13.3669 8.63819L11.1743 10.837C10.989 10.7814 10.7172 10.7814 10.5319 10.837L8.95694 9.26201C9.16694 8.60113 8.66664 7.70554 7.76488 7.70554C6.86929 7.70554 6.36282 8.59495 6.57282 9.26201L3.75635 12.0723C3.09547 11.8685 2.20605 12.3688 2.20605 13.2644C2.20605 13.9438 2.76194 14.4997 3.44135 14.4997C4.33694 14.4997 4.83723 13.6102 4.63341 12.9494L7.4437 10.1329C7.629 10.1885 7.90076 10.1885 8.08606 10.1329L9.66106 11.7079C9.45106 12.3688 9.95135 13.2644 10.8531 13.2644C11.7487 13.2644 12.2552 12.3749 12.0452 11.7079L14.244 9.51524C14.9049 9.71907 15.7943 9.21877 15.7943 8.32318C15.7943 7.64377 15.2384 7.08789 14.559 7.08789Z" fill="currentColor"/>
<path d="M10.8529 7.70588L11.4335 6.42735L12.7059 5.85294L11.4335 5.27853L10.8529 4L10.2847 5.27853L9 5.85294L10.2847 6.42735L10.8529 7.70588Z" fill="currentColor"/>
<path d="M3.75017 8.94175L4.059 7.70646L5.29429 7.39763L4.059 7.08881L3.75017 5.85352L3.44135 7.08881L2.20605 7.39763L3.44135 7.70646L3.75017 8.94175Z" fill="currentColor"/>

</symbol> 
</svg>