<?xml version="1.0" encoding="utf-8"?>
<svg xmlns="http://www.w3.org/2000/svg">
<symbol id="kris" viewBox="0 0 100.000000 100.000000">

<g transform="translate(0.000000,100.000000) scale(0.100000,-0.100000)" fill="currentColor" stroke="none">
<path d="M730 981 c-143 -31 -288 -102 -413 -203 l-27 -22 -70 69 -70 69 -22
-22 -22 -22 69 -70 69 -70 -22 -27 c-139 -174 -211 -354 -215 -533 l-2 -85
125 0 124 0 12 86 c16 118 48 208 106 295 27 41 53 74 57 74 4 0 27 -20 51
-45 38 -39 43 -48 32 -63 -65 -92 -112 -211 -112 -283 0 -36 2 -39 28 -39 27
0 28 3 40 70 11 66 51 158 87 205 15 19 21 14 144 -109 123 -123 128 -130 127
-168 -1 -32 5 -45 27 -64 39 -33 81 -31 118 5 46 46 37 106 -21 136 -16 9 -40
13 -52 10 -19 -5 -45 17 -153 124 -125 126 -129 131 -110 146 41 33 147 77
210 88 63 11 65 12 65 40 l0 30 -59 -6 c-74 -8 -157 -39 -222 -83 -28 -19 -54
-34 -57 -34 -9 0 -92 83 -92 91 0 15 141 100 206 125 38 14 109 31 159 38 l90
12 0 124 0 125 -60 2 c-33 1 -98 -6 -145 -16z m150 -111 c0 -66 -1 -70 -22
-70 -25 0 -144 -25 -169 -35 -12 -4 -22 8 -42 55 -15 34 -27 63 -27 64 0 10
168 47 248 55 8 1 12 -19 12 -69z m-290 -79 c11 -29 19 -55 18 -56 -2 -1 -30
-18 -64 -38 -33 -20 -68 -45 -79 -57 -10 -11 -23 -20 -29 -20 -11 0 -96 80
-96 91 0 22 208 155 222 141 3 -4 16 -31 28 -61z m-252 -174 c23 -23 42 -46
42 -50 0 -4 -17 -29 -37 -55 -21 -26 -47 -64 -57 -84 l-19 -35 -56 22 c-30 13
-57 28 -59 33 -2 6 6 28 16 49 23 45 110 163 121 163 4 0 26 -19 49 -43z
m-150 -259 c45 -19 52 -25 47 -43 -13 -45 -35 -151 -35 -172 0 -22 -4 -23 -70
-23 l-71 0 5 32 c3 18 8 51 11 73 11 70 37 155 49 155 6 0 35 -10 64 -22z
m748 -259 c8 -14 -21 -43 -35 -35 -19 12 -13 46 8 46 11 0 23 -5 27 -11z"/>
</g>

</symbol>
</svg>