<?xml version="1.0" encoding="utf-8"?>
<svg xmlns="http://www.w3.org/2000/svg">
<symbol id="last-seen-product" viewBox="0 0 46 46">
    <path d="M11.53 25.404h20.175a1.121 1.121 0 0 0 0-2.242H11.529a1.12 1.12 0 1 0 0 2.242zm0-8.967h20.175a1.121 1.121 0 0 0 0-2.242H11.529a1.12 1.12 0 1 0 0 2.242zm8.966 15.692H11.53a1.12 1.12 0 1 0 0 2.242h8.967a1.12 1.12 0 0 0 0-2.242z" fill="currentColor" style="stroke-width:1.19136"/>
    <path d="M38.43 28.856V6.35a3.363 3.363 0 0 0-3.363-3.362h-7.846A2.242 2.242 0 0 0 24.98.745h-6.726a2.242 2.242 0 0 0-2.241 2.242H8.167a3.363 3.363 0 0 0-3.363 3.362v33.626a3.363 3.363 0 0 0 3.363 3.363h19.872a8.966 8.966 0 1 0 10.39-14.482zM18.254 2.986h6.726v2.242h-6.726ZM7.046 39.977V6.348a1.12 1.12 0 0 1 1.12-1.12h7.847a2.242 2.242 0 0 0 2.241 2.241h6.726a2.242 2.242 0 0 0 2.241-2.242h7.846a1.12 1.12 0 0 1 1.121 1.121v21.588a9.241 9.241 0 0 0-2.241-.291 8.968 8.968 0 0 0-7.757 13.45H8.167a1.12 1.12 0 0 1-1.121-1.12zm26.9 3.362a6.657 6.657 0 0 1-4.685-1.917 6.725 6.725 0 1 1 4.686 1.917z" fill="currentColor" style="stroke-width:1.19136"/>
    <path d="M37.31 35.492h-2.242v-3.363a1.12 1.12 0 1 0-2.242 0v4.484a1.12 1.12 0 0 0 1.12 1.12h3.363a1.12 1.12 0 1 0 0-2.241z" fill="currentColor" style="stroke-width:1.19136"/>

</symbol></svg>