<?xml version="1.0" encoding="utf-8"?>
<svg xmlns="http://www.w3.org/2000/svg">
<symbol id="like" viewBox="0 0 22 21">
<path d="M8.16033 18.4241L15.8867 18.4241C16.5993 18.4241 17.2088 17.9905 17.4664 17.3767L20.0547 11.3244C20.132 11.1269 20.1792 10.9166 20.1792 10.6977V9.05365L20.1706 9.04506L20.1792 8.98068C20.1792 8.03204 19.4109 7.26369 18.4622 7.26369L13.0409 7.26369L13.8607 3.34039C13.8779 3.25454 13.8908 3.1644 13.8908 3.06997C13.8908 2.71369 13.7448 2.39176 13.513 2.15997L12.5987 1.25426L6.94557 6.90742C6.63651 7.22077 6.44335 7.65002 6.44335 8.12218L6.44335 16.7071C6.44335 17.6557 7.2117 18.4241 8.16033 18.4241ZM4.72637 18.4241L4.72637 8.12218L1.29241 8.12218L1.29241 18.4241H4.72637Z" fill="currentColor"/>

</symbol>
</svg>