<?xml version="1.0" encoding="utf-8"?>
<svg xmlns="http://www.w3.org/2000/svg">
<symbol id="menu-expand" viewBox="0 0 512.000000 512.000000">

<g transform="translate(0.000000,512.000000) scale(0.100000,-0.100000)" fill="currentColor" stroke="none">
<path d="M2683 4310 c-17 -4 -49 -21 -70 -38 -63 -50 -1620 -1615 -1633 -1641
-22 -42 -15 -117 14 -159 46 -66 1639 -1650 1666 -1656 82 -19 118 -11 166 38
49 48 57 84 38 166 -3 16 -288 308 -762 783 l-757 757 757 758 c474 474 759
766 762 782 8 31 10 57 8 92 -2 35 -65 106 -101 114 -51 11 -56 12 -88 4z"/>
<path d="M3963 4310 c-17 -4 -49 -21 -70 -38 -63 -50 -1620 -1615 -1633 -1641
-22 -42 -15 -117 14 -159 46 -66 1639 -1650 1666 -1656 82 -19 118 -11 166 38
49 48 57 84 38 166 -3 16 -288 308 -762 783 l-757 757 757 758 c474 474 759
766 762 782 8 31 10 57 8 92 -2 35 -65 106 -101 114 -51 11 -56 12 -88 4z"/>
</g>

</symbol>
</svg>