<?xml version="1.0" encoding="utf-8"?>
<svg xmlns="http://www.w3.org/2000/svg">
  <symbol fill="none" xmlns="http://www.w3.org/2000/svg" viewBox="0 0 24 20" id="multiple_users">
    <path fill-rule="evenodd" clip-rule="evenodd" d="M9 10C6.243 10 4 7.757 4 5C4 2.243 6.243 0 9 0C11.757 0 14 2.243 14 5C14 7.757 11.757 10 9 10ZM17 20C16.447 20 16 19.553 16 19V17C16 15.346 14.654 14 13 14H5C3.346 14 2 15.346 2 17V19C2 19.553 1.553 20 1 20C0.447 20 0 19.553 0 19V17C0 14.243 2.243 12 5 12H13C15.757 12 18 14.243 18 17V19C18 19.553 17.553 20 17 20ZM6 5C6 3.346 7.346 2 9 2C10.654 2 12 3.346 12 5C12 6.654 10.654 8 9 8C7.346 8 6 6.654 6 5ZM23 20C22.447 20 22 19.553 22 19V17C21.999 15.634 21.074 14.44 19.75 14.098C19.215 13.96 18.894 13.414 19.032 12.88C19.17 12.344 19.716 12.02 20.25 12.162C22.457 12.732 23.999 14.722 24 16.999V19C24 19.553 23.553 20 23 20ZM15.031 9.1279C15.146 9.5799 15.554 9.8799 15.999 9.8799C16.081 9.8799 16.165 9.8699 16.248 9.8489C18.018 9.3959 19.398 8.0149 19.852 6.2449C20.183 4.9509 19.99 3.6059 19.31 2.4569C18.63 1.3079 17.542 0.4919 16.248 0.1609C15.715 0.0219001 15.168 0.3469 15.031 0.8819C14.895 1.4169 15.217 1.9619 15.752 2.0989C16.528 2.2969 17.181 2.7869 17.589 3.4759C17.997 4.1659 18.113 4.9729 17.914 5.7489C17.643 6.8109 16.813 7.6389 15.752 7.9109C15.217 8.0479 14.895 8.5929 15.031 9.1279Z" fill="currentColor"></path>
    <mask id="mask0_2147_75131" maskUnits="userSpaceOnUse" x="0" y="0" width="24" height="20">
      <path fill-rule="evenodd" clip-rule="evenodd" d="M9 10C6.243 10 4 7.757 4 5C4 2.243 6.243 0 9 0C11.757 0 14 2.243 14 5C14 7.757 11.757 10 9 10ZM17 20C16.447 20 16 19.553 16 19V17C16 15.346 14.654 14 13 14H5C3.346 14 2 15.346 2 17V19C2 19.553 1.553 20 1 20C0.447 20 0 19.553 0 19V17C0 14.243 2.243 12 5 12H13C15.757 12 18 14.243 18 17V19C18 19.553 17.553 20 17 20ZM6 5C6 3.346 7.346 2 9 2C10.654 2 12 3.346 12 5C12 6.654 10.654 8 9 8C7.346 8 6 6.654 6 5ZM23 20C22.447 20 22 19.553 22 19V17C21.999 15.634 21.074 14.44 19.75 14.098C19.215 13.96 18.894 13.414 19.032 12.88C19.17 12.344 19.716 12.02 20.25 12.162C22.457 12.732 23.999 14.722 24 16.999V19C24 19.553 23.553 20 23 20ZM15.031 9.1279C15.146 9.5799 15.554 9.8799 15.999 9.8799C16.081 9.8799 16.165 9.8699 16.248 9.8489C18.018 9.3959 19.398 8.0149 19.852 6.2449C20.183 4.9509 19.99 3.6059 19.31 2.4569C18.63 1.3079 17.542 0.4919 16.248 0.1609C15.715 0.0219001 15.168 0.3469 15.031 0.8819C14.895 1.4169 15.217 1.9619 15.752 2.0989C16.528 2.2969 17.181 2.7869 17.589 3.4759C17.997 4.1659 18.113 4.9729 17.914 5.7489C17.643 6.8109 16.813 7.6389 15.752 7.9109C15.217 8.0479 14.895 8.5929 15.031 9.1279Z" fill="white"></path>
    </mask>
</svg>