<?xml version="1.0" encoding="utf-8"?>
<svg xmlns="http://www.w3.org/2000/svg">
    <symbol fill="none" xmlns="http://www.w3.org/2000/svg" viewBox="0 0 16 17" id="pdf">
    <path fill-rule="evenodd" clip-rule="evenodd" d="M13.9992 15.2288C13.9992 16.0218 13.3133 16.6667 12.4683 16.6667V16.6677H3.53188C2.68793 16.6677 2.00098 16.0228 2.00098 15.2298V2.10563C2.00098 1.31268 2.68693 0.667725 3.53188 0.667725H9.5775L13.9992 4.95646V15.2288ZM12.2663 4.66847L10.0005 2.47061V4.66847H12.2663ZM3.00091 15.2298V2.10563C3.00091 1.86865 3.2439 1.66766 3.53188 1.66766H9.00054V5.66741H13.0003V15.2288C13.0003 15.4658 12.7573 15.6668 12.4693 15.6668H3.53188C3.2439 15.6668 3.00091 15.4668 3.00091 15.2298ZM4.7998 13.7319H5.11378C5.72574 13.7319 6.28471 13.4209 6.28471 12.707C6.28471 11.969 5.73474 11.734 5.09678 11.734H4.02485V14.6599H4.7988V13.7319H4.7998ZM4.7998 12.346H5.06079C5.35777 12.346 5.52876 12.445 5.52876 12.706C5.52876 12.967 5.38477 13.1199 5.07878 13.1199H4.7998V12.346ZM7.62563 11.734C8.51757 11.734 9.12853 12.148 9.12853 13.1829C9.12853 14.2179 8.51657 14.6599 7.66962 14.6599H6.76068V11.734H7.62563ZM7.53563 12.355V14.0379H7.58063C8.0036 14.0379 8.33658 13.8669 8.33658 13.1829C8.33658 12.499 8.0036 12.355 7.58063 12.355H7.53563ZM11.3954 13.5879H10.4244V14.6599H9.6495V11.734H11.5574V12.382H10.4244V12.94H11.3954V13.5879Z" fill="currentColor"></path>
    <mask id="mask0_5607_87431" maskUnits="userSpaceOnUse" x="2" y="0" width="12" height="17">
      <path fill-rule="evenodd" clip-rule="evenodd" d="M13.9992 15.2288C13.9992 16.0218 13.3133 16.6667 12.4683 16.6667V16.6677H3.53188C2.68793 16.6677 2.00098 16.0228 2.00098 15.2298V2.10563C2.00098 1.31268 2.68693 0.667725 3.53188 0.667725H9.5775L13.9992 4.95646V15.2288ZM12.2663 4.66847L10.0005 2.47061V4.66847H12.2663ZM3.00091 15.2298V2.10563C3.00091 1.86865 3.2439 1.66766 3.53188 1.66766H9.00054V5.66741H13.0003V15.2288C13.0003 15.4658 12.7573 15.6668 12.4693 15.6668H3.53188C3.2439 15.6668 3.00091 15.4668 3.00091 15.2298ZM4.7998 13.7319H5.11378C5.72574 13.7319 6.28471 13.4209 6.28471 12.707C6.28471 11.969 5.73474 11.734 5.09678 11.734H4.02485V14.6599H4.7988V13.7319H4.7998ZM4.7998 12.346H5.06079C5.35777 12.346 5.52876 12.445 5.52876 12.706C5.52876 12.967 5.38477 13.1199 5.07878 13.1199H4.7998V12.346ZM7.62563 11.734C8.51757 11.734 9.12853 12.148 9.12853 13.1829C9.12853 14.2179 8.51657 14.6599 7.66962 14.6599H6.76068V11.734H7.62563ZM7.53563 12.355V14.0379H7.58063C8.0036 14.0379 8.33658 13.8669 8.33658 13.1829C8.33658 12.499 8.0036 12.355 7.58063 12.355H7.53563ZM11.3954 13.5879H10.4244V14.6599H9.6495V11.734H11.5574V12.382H10.4244V12.94H11.3954V13.5879Z" fill="white"></path>
    </mask>
  </symbol>
</svg>