<?xml version="1.0" encoding="utf-8"?>
<svg xmlns="http://www.w3.org/2000/svg">
<symbol id="question" viewBox="0, 0, 400,400">
  <g id="svgg">
    <path id="path0" d="M65.200 24.400 C 65.200 24.631,63.933 24.800,62.200 24.800 C 60.467 24.800,59.200 24.969,59.200 25.200 C 59.200 25.420,58.480 25.600,57.600 25.600 C 56.720 25.600,56.000 25.780,56.000 26.000 C 56.000 26.220,55.460 26.400,54.800 26.400 C 54.140 26.400,53.600 26.560,53.600 26.755 C 53.600 26.951,52.931 27.236,52.114 27.390 C 51.296 27.543,50.143 28.013,49.552 28.434 C 48.960 28.855,48.367 29.200,48.234 29.200 C 47.603 29.200,43.981 31.882,43.777 32.500 C 43.650 32.885,43.333 33.200,43.073 33.200 C 42.417 33.201,40.751 34.729,39.586 36.400 C 39.048 37.170,38.112 38.322,37.504 38.959 C 36.897 39.597,36.400 40.362,36.400 40.659 C 36.400 40.957,36.220 41.200,36.000 41.200 C 35.780 41.200,35.600 41.560,35.600 42.000 C 35.600 42.440,35.420 42.800,35.200 42.800 C 34.980 42.800,34.800 43.070,34.800 43.400 C 34.800 43.730,34.620 44.000,34.400 44.000 C 34.180 44.000,34.000 44.360,34.000 44.800 C 34.000 45.240,33.820 45.600,33.600 45.600 C 33.380 45.600,33.200 45.949,33.200 46.376 C 33.200 46.803,33.020 47.264,32.800 47.400 C 32.580 47.536,32.400 48.076,32.400 48.600 C 32.400 49.124,32.220 49.664,32.000 49.800 C 31.780 49.936,31.600 50.656,31.600 51.400 C 31.600 52.144,31.420 52.864,31.200 53.000 C 30.647 53.342,30.647 171.458,31.200 171.800 C 31.420 171.936,31.600 172.757,31.600 173.624 C 31.600 174.491,31.780 175.200,32.000 175.200 C 32.220 175.200,32.400 175.639,32.400 176.176 C 32.400 176.713,32.580 177.264,32.800 177.400 C 33.020 177.536,33.200 177.997,33.200 178.424 C 33.200 178.851,33.380 179.200,33.600 179.200 C 33.820 179.200,34.000 179.560,34.000 180.000 C 34.000 180.440,34.180 180.800,34.400 180.800 C 34.620 180.800,34.800 181.160,34.800 181.600 C 34.800 182.040,34.980 182.400,35.200 182.400 C 35.420 182.400,35.600 182.720,35.600 183.112 C 35.600 183.503,35.960 184.083,36.400 184.400 C 36.840 184.717,37.200 185.211,37.200 185.497 C 37.200 186.098,42.567 191.600,43.154 191.600 C 43.370 191.600,43.660 191.960,43.800 192.400 C 43.940 192.840,44.312 193.200,44.627 193.200 C 44.942 193.200,45.200 193.380,45.200 193.600 C 45.200 193.820,45.388 194.000,45.617 194.000 C 45.846 194.000,46.420 194.360,46.892 194.800 C 47.364 195.240,47.987 195.600,48.275 195.600 C 48.564 195.600,48.800 195.780,48.800 196.000 C 48.800 196.220,49.160 196.400,49.600 196.400 C 50.040 196.400,50.400 196.580,50.400 196.800 C 50.400 197.020,50.760 197.200,51.200 197.200 C 51.640 197.200,52.000 197.380,52.000 197.600 C 52.000 197.820,52.349 198.000,52.776 198.000 C 53.203 198.000,53.664 198.180,53.800 198.400 C 53.936 198.620,54.476 198.800,55.000 198.800 C 55.524 198.800,56.052 198.961,56.174 199.158 C 56.490 199.669,59.151 200.039,64.100 200.259 L 68.400 200.450 68.400 218.825 C 68.400 230.808,68.539 237.200,68.800 237.200 C 69.020 237.200,69.200 237.388,69.200 237.617 C 69.200 238.172,70.711 239.676,72.198 240.602 C 73.620 241.486,79.634 241.699,79.909 240.874 C 79.996 240.613,80.288 240.400,80.558 240.400 C 80.828 240.400,81.398 240.080,81.825 239.689 C 82.251 239.298,83.230 238.542,84.000 238.008 C 84.770 237.475,85.670 236.751,86.000 236.400 C 86.330 236.049,87.228 235.323,87.996 234.786 C 89.498 233.734,90.881 232.555,93.020 230.500 C 93.764 229.785,94.538 229.200,94.738 229.200 C 94.939 229.200,95.805 228.525,96.662 227.700 C 97.520 226.875,98.687 225.958,99.256 225.662 C 99.825 225.365,100.721 224.724,101.247 224.236 C 101.773 223.749,102.504 223.181,102.871 222.975 C 103.741 222.486,106.993 219.751,108.667 218.100 C 109.393 217.385,110.183 216.800,110.424 216.800 C 110.665 216.800,111.554 216.080,112.400 215.200 C 113.246 214.320,114.146 213.600,114.400 213.600 C 114.654 213.600,115.554 212.880,116.400 212.000 C 117.246 211.120,118.140 210.400,118.387 210.400 C 118.634 210.400,119.256 209.995,119.768 209.500 C 120.280 209.005,121.211 208.240,121.836 207.800 C 122.462 207.360,123.631 206.415,124.435 205.700 C 125.239 204.985,126.010 204.400,126.148 204.400 C 126.286 204.400,127.141 203.680,128.048 202.800 C 128.955 201.920,129.945 201.200,130.248 201.200 C 130.714 201.200,130.800 209.321,130.800 253.576 C 130.800 288.063,130.937 306.037,131.200 306.200 C 131.420 306.336,131.600 307.157,131.600 308.024 C 131.600 308.891,131.780 309.600,132.000 309.600 C 132.220 309.600,132.400 310.039,132.400 310.576 C 132.400 311.113,132.580 311.664,132.800 311.800 C 133.020 311.936,133.200 312.397,133.200 312.824 C 133.200 313.251,133.380 313.600,133.600 313.600 C 133.820 313.600,134.000 313.960,134.000 314.400 C 134.000 314.840,134.180 315.200,134.400 315.200 C 134.620 315.200,134.800 315.560,134.800 316.000 C 134.800 316.440,134.980 316.800,135.200 316.800 C 135.420 316.800,135.600 317.120,135.600 317.512 C 135.600 317.903,135.960 318.483,136.400 318.800 C 136.840 319.117,137.200 319.606,137.200 319.886 C 137.200 320.417,141.717 325.200,142.219 325.200 C 142.596 325.200,144.000 326.825,144.000 327.261 C 144.000 327.448,144.270 327.600,144.600 327.600 C 144.930 327.600,145.200 327.780,145.200 328.000 C 145.200 328.220,145.388 328.400,145.617 328.400 C 145.846 328.400,146.420 328.760,146.892 329.200 C 147.364 329.640,147.987 330.000,148.275 330.000 C 148.564 330.000,148.800 330.180,148.800 330.400 C 148.800 330.620,149.160 330.800,149.600 330.800 C 150.040 330.800,150.400 330.980,150.400 331.200 C 150.400 331.420,150.760 331.600,151.200 331.600 C 151.640 331.600,152.000 331.780,152.000 332.000 C 152.000 332.220,152.362 332.400,152.805 332.400 C 153.248 332.400,153.968 332.580,154.405 332.800 C 154.842 333.020,155.558 333.380,155.995 333.600 C 156.432 333.820,157.321 334.000,157.971 334.000 C 158.621 334.000,159.264 334.180,159.400 334.400 C 159.563 334.664,178.337 334.800,214.424 334.800 C 250.675 334.800,269.200 334.935,269.200 335.200 C 269.200 335.420,269.470 335.600,269.800 335.600 C 270.129 335.600,271.141 336.320,272.048 337.200 C 272.955 338.080,273.861 338.800,274.062 338.800 C 274.262 338.800,275.057 339.430,275.827 340.200 C 276.597 340.970,277.418 341.600,277.653 341.600 C 277.887 341.600,278.583 342.140,279.200 342.800 C 279.817 343.460,280.519 344.000,280.760 344.000 C 281.002 344.000,281.200 344.180,281.200 344.400 C 281.200 344.620,281.380 344.800,281.600 344.800 C 281.819 344.800,282.741 345.520,283.648 346.400 C 284.555 347.280,285.455 348.000,285.648 348.000 C 285.841 348.000,286.741 348.720,287.648 349.600 C 288.555 350.480,289.460 351.200,289.660 351.200 C 289.859 351.200,290.603 351.739,291.311 352.399 C 293.079 354.043,296.405 356.833,297.751 357.800 C 298.364 358.240,299.345 359.005,299.932 359.500 C 300.520 359.994,301.135 360.399,301.300 360.400 C 301.464 360.400,302.341 361.120,303.248 362.000 C 304.155 362.880,305.061 363.600,305.262 363.600 C 305.462 363.600,306.257 364.230,307.027 365.000 C 307.797 365.770,308.571 366.400,308.748 366.400 C 308.925 366.400,309.799 367.075,310.691 367.900 C 313.567 370.561,315.783 372.400,316.114 372.400 C 316.291 372.400,316.899 372.862,317.463 373.427 C 318.624 374.587,319.993 375.200,321.426 375.200 C 321.962 375.200,322.400 375.380,322.400 375.600 C 322.400 375.820,322.929 376.000,323.576 376.000 C 324.223 376.000,324.864 375.820,325.000 375.600 C 325.136 375.380,325.696 375.200,326.243 375.200 C 327.980 375.200,330.800 373.216,330.800 371.995 C 330.800 371.778,330.980 371.600,331.200 371.600 C 331.461 371.600,331.600 365.200,331.600 353.200 L 331.600 334.800 335.976 334.800 C 338.463 334.800,340.460 334.627,340.600 334.400 C 340.736 334.180,341.456 334.000,342.200 334.000 C 342.944 334.000,343.664 333.820,343.800 333.600 C 343.936 333.380,344.476 333.200,345.000 333.200 C 345.524 333.200,346.064 333.020,346.200 332.800 C 346.336 332.580,346.797 332.400,347.224 332.400 C 347.651 332.400,348.000 332.220,348.000 332.000 C 348.000 331.780,348.360 331.600,348.800 331.600 C 349.240 331.600,349.600 331.420,349.600 331.200 C 349.600 330.980,349.960 330.800,350.400 330.800 C 350.840 330.800,351.200 330.620,351.200 330.400 C 351.200 330.180,351.520 330.000,351.912 330.000 C 352.303 330.000,352.883 329.640,353.200 329.200 C 353.517 328.760,353.995 328.400,354.263 328.400 C 354.933 328.400,362.800 320.579,362.800 319.913 C 362.800 319.618,363.160 319.117,363.600 318.800 C 364.040 318.483,364.400 317.903,364.400 317.512 C 364.400 317.120,364.580 316.800,364.800 316.800 C 365.020 316.800,365.200 316.440,365.200 316.000 C 365.200 315.560,365.380 315.200,365.600 315.200 C 365.820 315.200,366.000 314.840,366.000 314.400 C 366.000 313.960,366.180 313.600,366.400 313.600 C 366.620 313.600,366.800 313.240,366.800 312.800 C 366.800 312.360,366.980 312.000,367.200 312.000 C 367.420 312.000,367.600 311.460,367.600 310.800 C 367.600 310.140,367.780 309.600,368.000 309.600 C 368.220 309.600,368.400 308.880,368.400 308.000 C 368.400 307.120,368.580 306.400,368.800 306.400 C 369.065 306.400,369.200 286.341,369.200 247.024 C 369.200 207.871,369.064 187.563,368.800 187.400 C 368.580 187.264,368.400 186.443,368.400 185.576 C 368.400 184.709,368.220 184.000,368.000 184.000 C 367.780 184.000,367.600 183.561,367.600 183.024 C 367.600 182.487,367.420 181.936,367.200 181.800 C 366.980 181.664,366.800 181.203,366.800 180.776 C 366.800 180.349,366.620 180.000,366.400 180.000 C 366.180 180.000,366.000 179.640,366.000 179.200 C 366.000 178.760,365.820 178.400,365.600 178.400 C 365.380 178.400,365.200 178.130,365.200 177.800 C 365.200 177.470,365.020 177.200,364.800 177.200 C 364.580 177.200,364.400 176.840,364.400 176.400 C 364.400 175.960,364.220 175.600,364.000 175.600 C 363.780 175.600,363.600 175.368,363.600 175.084 C 363.600 174.800,362.880 173.772,362.000 172.800 C 361.120 171.828,360.400 170.884,360.400 170.703 C 360.400 170.332,357.754 167.600,357.395 167.600 C 357.268 167.600,356.727 167.163,356.193 166.629 C 355.659 166.095,354.677 165.336,354.011 164.943 C 353.345 164.549,352.800 164.086,352.800 163.914 C 352.800 163.741,352.440 163.600,352.000 163.600 C 351.560 163.600,351.200 163.452,351.200 163.271 C 351.200 163.091,350.255 162.539,349.100 162.045 C 347.945 161.552,346.691 160.982,346.314 160.779 C 345.936 160.576,344.631 160.293,343.414 160.150 C 342.196 160.007,341.200 159.735,341.200 159.545 C 341.200 159.355,339.760 159.200,338.000 159.200 C 336.133 159.200,334.800 159.033,334.800 158.800 C 334.800 158.537,323.600 158.400,302.000 158.400 L 269.200 158.400 269.200 105.624 C 269.200 70.871,269.063 52.763,268.800 52.600 C 268.580 52.464,268.400 51.733,268.400 50.976 C 268.400 50.219,268.220 49.600,268.000 49.600 C 267.780 49.600,267.600 49.060,267.600 48.400 C 267.600 47.740,267.420 47.200,267.200 47.200 C 266.980 47.200,266.800 46.750,266.800 46.200 C 266.800 45.650,266.620 45.200,266.400 45.200 C 266.180 45.200,266.000 44.840,266.000 44.400 C 266.000 43.960,265.820 43.600,265.600 43.600 C 265.380 43.600,265.200 43.280,265.200 42.888 C 265.200 42.497,264.840 41.917,264.400 41.600 C 263.960 41.283,263.600 40.743,263.600 40.400 C 263.600 40.057,263.240 39.517,262.800 39.200 C 262.360 38.883,262.000 38.410,262.000 38.150 C 262.000 37.538,256.242 31.600,255.650 31.600 C 255.402 31.600,255.200 31.456,255.200 31.280 C 255.200 30.784,249.676 27.595,248.359 27.332 C 247.712 27.202,247.086 26.940,246.968 26.748 C 246.850 26.557,246.313 26.400,245.776 26.400 C 245.239 26.400,244.800 26.220,244.800 26.000 C 244.800 25.780,244.080 25.600,243.200 25.600 C 242.320 25.600,241.600 25.420,241.600 25.200 C 241.600 24.965,240.200 24.800,238.200 24.800 C 236.200 24.800,234.800 24.635,234.800 24.400 C 234.800 24.135,206.267 24.000,150.000 24.000 C 93.733 24.000,65.200 24.135,65.200 24.400 M237.300 38.590 C 238.565 38.746,239.600 39.037,239.600 39.237 C 239.600 39.437,240.039 39.600,240.576 39.600 C 241.113 39.600,241.664 39.780,241.800 40.000 C 241.936 40.220,242.397 40.400,242.824 40.400 C 243.251 40.400,243.600 40.577,243.600 40.792 C 243.600 41.008,244.050 41.298,244.600 41.436 C 245.150 41.574,245.600 41.847,245.600 42.043 C 245.600 42.240,245.870 42.400,246.200 42.400 C 246.530 42.400,246.800 42.580,246.800 42.800 C 246.800 43.020,246.986 43.200,247.213 43.200 C 247.781 43.200,250.400 45.863,250.400 46.440 C 250.400 46.696,250.715 47.199,251.100 47.557 C 251.765 48.176,252.304 49.008,253.200 50.800 C 253.420 51.240,253.780 51.958,254.000 52.395 C 254.220 52.832,254.400 53.552,254.400 53.995 C 254.400 54.438,254.580 54.800,254.800 54.800 C 255.022 54.800,255.200 55.867,255.200 57.200 C 255.200 58.533,255.378 59.600,255.600 59.600 C 256.154 59.600,256.154 164.658,255.600 165.000 C 255.380 165.136,255.200 166.317,255.200 167.624 C 255.200 168.941,255.022 170.000,254.800 170.000 C 254.580 170.000,254.400 170.540,254.400 171.200 C 254.400 171.860,254.220 172.400,254.000 172.400 C 253.780 172.400,253.600 172.760,253.600 173.200 C 253.600 173.640,253.420 174.000,253.200 174.000 C 252.980 174.000,252.800 174.360,252.800 174.800 C 252.800 175.240,252.620 175.600,252.400 175.600 C 252.180 175.600,252.000 175.888,252.000 176.240 C 252.000 177.177,246.156 182.735,244.348 183.518 C 243.496 183.887,242.800 184.326,242.800 184.494 C 242.800 184.662,242.440 184.800,242.000 184.800 C 241.560 184.800,241.200 184.980,241.200 185.200 C 241.200 185.420,240.660 185.600,240.000 185.600 C 239.340 185.600,238.800 185.780,238.800 186.000 C 238.800 186.265,220.067 186.400,183.400 186.400 C 146.733 186.400,128.000 186.535,128.000 186.800 C 128.000 187.020,127.280 187.200,126.400 187.200 C 125.520 187.200,124.800 187.380,124.800 187.600 C 124.800 187.820,124.480 188.000,124.088 188.000 C 123.697 188.000,123.117 188.360,122.800 188.800 C 122.483 189.240,122.015 189.600,121.760 189.600 C 121.505 189.600,120.595 190.275,119.738 191.100 C 118.880 191.925,117.713 192.842,117.144 193.138 C 116.575 193.435,115.673 194.065,115.141 194.538 C 114.609 195.012,113.369 196.028,112.387 196.794 C 109.513 199.037,109.164 199.332,107.760 200.700 C 107.027 201.415,106.262 202.000,106.062 202.000 C 105.861 202.000,104.955 202.720,104.048 203.600 C 103.141 204.480,102.241 205.200,102.048 205.200 C 101.855 205.200,100.955 205.920,100.048 206.800 C 99.141 207.680,98.253 208.400,98.075 208.400 C 97.897 208.400,97.402 208.720,96.975 209.112 C 96.549 209.504,95.480 210.358,94.600 211.011 C 93.720 211.663,92.523 212.693,91.940 213.299 C 91.356 213.904,90.667 214.400,90.408 214.400 C 90.149 214.400,89.246 215.120,88.400 216.000 C 87.554 216.880,86.654 217.600,86.400 217.600 C 86.146 217.600,85.246 218.320,84.400 219.200 C 81.516 222.201,81.600 222.584,81.600 206.400 C 81.600 197.067,81.459 192.000,81.200 192.000 C 80.980 192.000,80.800 191.724,80.800 191.387 C 80.800 190.591,78.209 188.000,77.413 188.000 C 77.076 188.000,76.800 187.820,76.800 187.600 C 76.800 187.380,76.080 187.200,75.200 187.200 C 74.320 187.200,73.600 187.029,73.600 186.820 C 73.600 186.605,71.037 186.364,67.700 186.265 C 61.742 186.089,58.800 185.747,58.800 185.231 C 58.800 185.076,58.170 184.702,57.400 184.400 C 56.630 184.098,56.000 183.704,56.000 183.525 C 56.000 183.346,55.730 183.200,55.400 183.200 C 55.070 183.200,54.800 183.020,54.800 182.800 C 54.800 182.580,54.605 182.400,54.367 182.400 C 53.830 182.400,48.800 177.484,48.800 176.959 C 48.800 176.749,48.440 176.317,48.000 176.000 C 47.560 175.683,47.200 175.103,47.200 174.712 C 47.200 174.320,47.020 174.000,46.800 174.000 C 46.580 174.000,46.400 173.640,46.400 173.200 C 46.400 172.760,46.220 172.400,46.000 172.400 C 45.780 172.400,45.600 171.860,45.600 171.200 C 45.600 170.540,45.420 170.000,45.200 170.000 C 44.978 170.000,44.800 168.941,44.800 167.624 C 44.800 166.317,44.620 165.136,44.400 165.000 C 44.137 164.837,44.000 146.796,44.000 112.176 C 44.000 77.392,44.135 59.600,44.400 59.600 C 44.620 59.600,44.800 58.610,44.800 57.400 C 44.800 56.190,44.980 55.200,45.200 55.200 C 45.420 55.200,45.600 54.660,45.600 54.000 C 45.600 53.340,45.780 52.800,46.000 52.800 C 46.220 52.800,46.400 52.440,46.400 52.000 C 46.400 51.560,46.580 51.200,46.800 51.200 C 47.020 51.200,47.200 50.840,47.200 50.400 C 47.200 49.960,47.380 49.600,47.600 49.600 C 47.820 49.600,48.000 49.327,48.000 48.994 C 48.000 48.312,54.552 41.600,55.217 41.600 C 55.453 41.600,56.452 41.150,57.437 40.600 C 58.422 40.050,59.571 39.600,59.991 39.600 C 60.410 39.600,60.864 39.420,61.000 39.200 C 61.136 38.980,62.036 38.800,63.000 38.800 C 63.964 38.800,64.865 38.619,65.001 38.398 C 65.287 37.936,233.513 38.123,237.300 38.590 M145.200 67.166 C 145.200 67.367,144.075 67.625,142.700 67.738 C 139.189 68.027,137.200 68.427,137.200 68.844 C 137.200 69.040,136.671 69.200,136.024 69.200 C 135.377 69.200,134.736 69.380,134.600 69.600 C 134.464 69.820,133.913 70.000,133.376 70.000 C 132.839 70.000,132.400 70.180,132.400 70.400 C 132.400 70.620,132.040 70.800,131.600 70.800 C 131.160 70.800,130.800 70.980,130.800 71.200 C 130.800 71.420,130.440 71.600,130.000 71.600 C 129.560 71.600,129.200 71.780,129.200 72.000 C 129.200 72.220,128.840 72.400,128.400 72.400 C 127.960 72.400,127.600 72.580,127.600 72.800 C 127.600 73.020,127.370 73.200,127.088 73.200 C 126.807 73.200,126.317 73.560,126.000 74.000 C 125.683 74.440,125.169 74.800,124.859 74.800 C 124.548 74.800,124.003 75.116,123.647 75.503 C 123.291 75.889,122.474 76.474,121.830 76.803 C 120.508 77.478,114.400 83.477,114.400 84.100 C 114.400 84.324,114.085 84.798,113.700 85.154 C 112.904 85.891,111.659 87.858,111.329 88.900 C 111.207 89.285,110.964 89.600,110.789 89.600 C 110.614 89.600,110.349 90.320,110.200 91.200 C 110.051 92.080,109.766 92.800,109.565 92.800 C 109.364 92.800,109.200 93.070,109.200 93.400 C 109.200 93.730,109.020 94.000,108.800 94.000 C 108.580 94.000,108.400 94.540,108.400 95.200 C 108.400 95.860,108.220 96.400,108.000 96.400 C 107.780 96.400,107.600 96.940,107.600 97.600 C 107.600 98.260,107.420 98.800,107.200 98.800 C 106.980 98.800,106.800 99.430,106.800 100.200 C 106.800 100.970,106.620 101.600,106.400 101.600 C 106.174 101.600,106.000 102.733,106.000 104.200 C 106.000 105.667,105.826 106.800,105.600 106.800 C 105.356 106.800,105.200 108.659,105.200 111.576 C 105.200 114.329,105.369 116.458,105.600 116.600 C 105.820 116.736,106.000 117.816,106.000 119.000 C 106.000 120.184,106.180 121.264,106.400 121.400 C 106.620 121.536,106.800 122.256,106.800 123.000 C 106.800 123.744,106.980 124.464,107.200 124.600 C 107.420 124.736,107.600 125.287,107.600 125.824 C 107.600 126.361,107.780 126.800,108.000 126.800 C 108.220 126.800,108.400 127.340,108.400 128.000 C 108.400 128.660,108.580 129.200,108.800 129.200 C 109.020 129.200,109.200 129.560,109.200 130.000 C 109.200 130.440,109.380 130.800,109.600 130.800 C 109.820 130.800,110.000 131.064,110.000 131.386 C 110.000 132.199,111.276 134.800,111.674 134.800 C 111.853 134.800,112.000 134.993,112.000 135.228 C 112.000 135.743,114.103 138.848,115.556 140.477 C 118.278 143.531,119.573 144.800,119.969 144.800 C 120.206 144.800,120.400 144.980,120.400 145.200 C 120.400 145.420,120.598 145.600,120.840 145.600 C 121.081 145.600,121.783 146.140,122.400 146.800 C 123.017 147.460,123.769 148.000,124.072 148.000 C 124.375 148.000,124.883 148.360,125.200 148.800 C 125.517 149.240,126.097 149.600,126.488 149.600 C 126.880 149.600,127.200 149.780,127.200 150.000 C 127.200 150.220,127.470 150.400,127.800 150.400 C 128.130 150.400,128.400 150.580,128.400 150.800 C 128.400 151.020,128.670 151.200,129.000 151.200 C 129.330 151.200,129.600 151.380,129.600 151.600 C 129.600 151.820,130.050 152.000,130.600 152.000 C 131.150 152.000,131.600 152.180,131.600 152.400 C 131.600 152.620,131.960 152.800,132.400 152.800 C 132.840 152.800,133.200 152.980,133.200 153.200 C 133.200 153.420,133.740 153.600,134.400 153.600 C 135.060 153.600,135.600 153.780,135.600 154.000 C 135.600 154.220,136.129 154.400,136.776 154.400 C 137.423 154.400,138.064 154.580,138.200 154.800 C 138.336 155.020,139.146 155.200,140.000 155.200 C 140.854 155.200,141.664 155.380,141.800 155.600 C 141.951 155.845,145.137 156.000,150.024 156.000 C 155.075 156.000,158.000 155.853,158.000 155.600 C 158.000 155.380,158.572 155.200,159.272 155.200 C 160.535 155.200,162.765 154.622,164.095 153.951 C 164.477 153.758,165.141 153.600,165.571 153.600 C 166.001 153.600,166.464 153.420,166.600 153.200 C 166.736 152.980,167.197 152.800,167.624 152.800 C 168.051 152.800,168.400 152.620,168.400 152.400 C 168.400 152.180,168.760 152.000,169.200 152.000 C 169.640 152.000,170.000 151.820,170.000 151.600 C 170.000 151.380,170.360 151.200,170.800 151.200 C 171.240 151.200,171.600 151.041,171.600 150.847 C 171.600 150.652,171.959 150.399,172.398 150.285 C 173.203 150.074,175.600 151.893,175.600 152.713 C 175.600 153.270,178.222 155.200,178.979 155.200 C 179.326 155.200,179.949 155.411,180.361 155.669 C 182.035 156.714,186.475 154.571,187.549 152.200 C 187.849 151.540,188.252 150.687,188.447 150.305 C 188.900 149.415,188.900 147.785,188.447 146.895 C 188.252 146.513,187.847 145.660,187.547 145.000 C 187.246 144.340,186.302 143.117,185.448 142.281 L 183.896 140.763 184.748 139.855 C 185.217 139.357,185.600 138.775,185.600 138.563 C 185.600 138.350,185.960 137.917,186.400 137.600 C 186.840 137.283,187.200 136.786,187.200 136.495 C 187.200 136.204,187.560 135.580,188.000 135.108 C 188.440 134.636,188.800 134.013,188.800 133.725 C 188.800 133.436,188.980 133.200,189.200 133.200 C 189.420 133.200,189.600 132.840,189.600 132.400 C 189.600 131.960,189.780 131.600,190.000 131.600 C 190.220 131.600,190.400 131.351,190.400 131.046 C 190.400 130.741,190.669 129.976,190.998 129.346 C 191.326 128.716,191.596 127.705,191.598 127.100 C 191.599 126.495,191.780 126.000,192.000 126.000 C 192.220 126.000,192.400 125.460,192.400 124.800 C 192.400 124.140,192.580 123.600,192.800 123.600 C 193.020 123.600,193.200 122.790,193.200 121.800 C 193.200 120.810,193.380 120.000,193.600 120.000 C 193.854 120.000,194.000 117.008,194.000 111.824 C 194.000 106.804,193.846 103.552,193.600 103.400 C 193.380 103.264,193.200 102.353,193.200 101.376 C 193.200 100.399,193.020 99.600,192.800 99.600 C 192.580 99.600,192.400 99.060,192.400 98.400 C 192.400 97.740,192.220 97.200,192.000 97.200 C 191.780 97.200,191.600 96.735,191.600 96.166 C 191.600 94.999,188.853 88.800,188.336 88.800 C 188.151 88.800,188.000 88.480,188.000 88.088 C 188.000 87.697,187.640 87.117,187.200 86.800 C 186.760 86.483,186.400 86.036,186.400 85.807 C 186.400 84.896,179.194 77.200,178.340 77.200 C 178.109 77.200,177.417 76.660,176.800 76.000 C 176.183 75.340,175.481 74.800,175.240 74.800 C 174.998 74.800,174.800 74.620,174.800 74.400 C 174.800 74.180,174.564 74.000,174.275 74.000 C 173.987 74.000,173.364 73.640,172.892 73.200 C 172.420 72.760,171.756 72.400,171.417 72.400 C 171.078 72.400,170.800 72.220,170.800 72.000 C 170.800 71.780,170.440 71.600,170.000 71.600 C 169.560 71.600,169.200 71.420,169.200 71.200 C 169.200 70.980,168.851 70.800,168.424 70.800 C 167.997 70.800,167.536 70.620,167.400 70.400 C 167.264 70.180,166.713 70.000,166.176 70.000 C 165.639 70.000,165.200 69.820,165.200 69.600 C 165.200 69.380,164.660 69.200,164.000 69.200 C 163.340 69.200,162.800 69.020,162.800 68.800 C 162.800 68.580,162.080 68.400,161.200 68.400 C 160.320 68.400,159.600 68.220,159.600 68.000 C 159.600 67.778,158.541 67.600,157.224 67.600 C 155.917 67.600,154.736 67.420,154.600 67.200 C 154.288 66.696,145.200 66.663,145.200 67.166 M150.600 81.200 C 150.736 81.420,152.187 81.600,153.824 81.600 C 155.541 81.600,156.800 81.769,156.800 82.000 C 156.800 82.220,157.340 82.400,158.000 82.400 C 158.660 82.400,159.200 82.580,159.200 82.800 C 159.200 83.020,159.543 83.200,159.962 83.200 C 160.778 83.200,164.112 84.801,164.333 85.300 C 164.407 85.465,164.812 85.600,165.233 85.600 C 165.655 85.600,166.000 85.750,166.000 85.932 C 166.000 86.115,166.494 86.520,167.097 86.832 C 167.700 87.145,168.752 87.940,169.433 88.600 C 170.114 89.260,171.601 90.632,172.736 91.650 C 173.871 92.667,174.800 93.753,174.800 94.062 C 174.800 94.371,175.160 94.883,175.600 95.200 C 176.040 95.517,176.400 96.097,176.400 96.488 C 176.400 96.880,176.580 97.200,176.800 97.200 C 177.020 97.200,177.201 97.515,177.202 97.900 C 177.204 98.285,177.435 99.050,177.715 99.600 C 177.996 100.150,178.463 101.410,178.752 102.400 C 179.041 103.390,179.450 104.527,179.659 104.927 C 180.190 105.938,180.165 116.945,179.630 117.944 C 179.393 118.386,179.200 119.122,179.200 119.579 C 179.200 120.037,179.020 120.768,178.800 121.205 C 177.826 123.141,177.685 123.503,177.397 124.813 C 177.230 125.575,176.757 126.491,176.346 126.847 C 175.936 127.203,175.600 127.621,175.600 127.775 C 175.600 129.060,174.299 129.255,173.088 128.152 C 171.318 126.539,170.400 125.527,170.400 125.188 C 170.400 125.028,169.050 123.522,167.400 121.839 C 165.750 120.157,164.400 118.629,164.400 118.444 C 164.400 117.819,160.075 113.600,159.435 113.600 C 159.086 113.600,158.800 113.420,158.800 113.200 C 158.800 112.974,157.667 112.800,156.200 112.800 C 154.733 112.800,153.600 112.974,153.600 113.200 C 153.600 113.420,153.324 113.600,152.987 113.600 C 151.979 113.600,149.600 116.260,149.600 117.387 C 149.600 117.944,149.420 118.400,149.200 118.400 C 148.980 118.400,148.800 119.019,148.800 119.776 C 148.800 120.533,148.980 121.264,149.200 121.400 C 149.420 121.536,149.600 122.053,149.600 122.548 C 149.600 123.466,150.918 125.200,151.616 125.200 C 151.827 125.200,152.000 125.448,152.000 125.752 C 152.000 126.056,153.440 127.787,155.200 129.600 C 156.960 131.413,158.400 133.058,158.400 133.256 C 158.400 133.455,159.388 134.648,160.595 135.908 C 163.017 138.438,163.397 139.600,161.800 139.600 C 161.250 139.600,160.800 139.780,160.800 140.000 C 160.800 140.220,160.440 140.400,160.000 140.400 C 159.560 140.400,159.200 140.580,159.200 140.800 C 159.200 141.020,158.480 141.200,157.600 141.200 C 156.720 141.200,156.000 141.380,156.000 141.600 C 156.000 141.849,153.741 142.000,150.024 142.000 C 146.471 142.000,143.947 141.838,143.800 141.600 C 143.664 141.380,143.034 141.200,142.400 141.200 C 141.766 141.200,141.136 141.020,141.000 140.800 C 140.864 140.580,140.313 140.400,139.776 140.400 C 139.239 140.400,138.800 140.220,138.800 140.000 C 138.800 139.780,138.440 139.600,138.000 139.600 C 137.560 139.600,137.200 139.420,137.200 139.200 C 137.200 138.980,136.840 138.800,136.400 138.800 C 135.960 138.800,135.600 138.620,135.600 138.400 C 135.600 138.180,135.280 138.000,134.888 138.000 C 134.497 138.000,133.917 137.640,133.600 137.200 C 133.283 136.760,132.810 136.400,132.548 136.400 C 131.755 136.400,125.455 129.890,124.604 128.190 C 124.166 127.316,123.716 126.510,123.604 126.400 C 123.128 125.933,122.400 124.364,122.400 123.805 C 122.400 123.472,122.220 123.200,122.000 123.200 C 121.780 123.200,121.600 122.761,121.600 122.224 C 121.600 121.687,121.420 121.136,121.200 121.000 C 120.980 120.864,120.800 120.234,120.800 119.600 C 120.800 118.966,120.620 118.336,120.400 118.200 C 120.160 118.052,120.000 115.396,120.000 111.576 C 120.000 107.592,120.150 105.200,120.400 105.200 C 120.620 105.200,120.800 104.671,120.800 104.024 C 120.800 103.377,120.980 102.736,121.200 102.600 C 121.420 102.464,121.600 102.029,121.600 101.633 C 121.600 100.841,123.904 96.113,124.700 95.271 C 124.975 94.981,125.200 94.463,125.200 94.121 C 125.200 93.780,126.129 92.667,127.264 91.650 C 128.399 90.632,129.886 89.260,130.567 88.600 C 131.248 87.940,132.300 87.145,132.903 86.832 C 133.506 86.520,134.000 86.115,134.000 85.932 C 134.000 85.750,134.345 85.600,134.767 85.600 C 135.188 85.600,135.593 85.465,135.667 85.300 C 135.888 84.801,139.222 83.200,140.038 83.200 C 140.457 83.200,140.800 83.020,140.800 82.800 C 140.800 82.580,141.340 82.400,142.000 82.400 C 142.660 82.400,143.200 82.220,143.200 82.000 C 143.200 81.769,144.459 81.600,146.176 81.600 C 147.813 81.600,149.264 81.420,149.400 81.200 C 149.536 80.980,149.806 80.800,150.000 80.800 C 150.194 80.800,150.464 80.980,150.600 81.200 M337.000 173.076 C 338.100 173.302,339.360 173.621,339.800 173.786 C 341.010 174.239,343.278 175.196,344.400 175.727 C 345.818 176.397,352.000 182.616,352.000 183.371 C 352.000 183.717,352.180 184.000,352.400 184.000 C 352.620 184.000,352.800 184.360,352.800 184.800 C 352.800 185.240,352.980 185.600,353.200 185.600 C 353.420 185.600,353.600 185.960,353.600 186.400 C 353.600 186.840,353.780 187.200,354.000 187.200 C 354.220 187.200,354.400 187.740,354.400 188.400 C 354.400 189.060,354.580 189.600,354.800 189.600 C 355.020 189.600,355.200 190.590,355.200 191.800 C 355.200 193.010,355.380 194.000,355.600 194.000 C 355.865 194.000,356.000 211.792,356.000 246.576 C 356.000 281.196,355.863 299.237,355.600 299.400 C 355.380 299.536,355.200 300.717,355.200 302.024 C 355.200 303.341,355.022 304.400,354.800 304.400 C 354.580 304.400,354.400 304.940,354.400 305.600 C 354.400 306.260,354.220 306.800,354.000 306.800 C 353.780 306.800,353.600 307.160,353.600 307.600 C 353.600 308.040,353.420 308.400,353.200 308.400 C 352.980 308.400,352.800 308.668,352.800 308.995 C 352.800 309.963,346.519 316.800,345.630 316.800 C 345.394 316.800,345.200 316.980,345.200 317.200 C 345.200 317.420,344.930 317.600,344.600 317.600 C 344.270 317.600,344.000 317.780,344.000 318.000 C 344.000 318.220,343.730 318.400,343.400 318.400 C 343.070 318.400,342.800 318.580,342.800 318.800 C 342.800 319.020,342.440 319.200,342.000 319.200 C 341.560 319.200,341.200 319.380,341.200 319.600 C 341.200 319.820,340.671 320.000,340.024 320.000 C 339.377 320.000,338.736 320.180,338.600 320.400 C 338.453 320.638,335.929 320.800,332.376 320.800 C 328.659 320.800,326.400 320.951,326.400 321.200 C 326.400 321.420,325.680 321.600,324.800 321.600 C 323.920 321.600,323.200 321.780,323.200 322.000 C 323.200 322.220,322.924 322.400,322.587 322.400 C 321.791 322.400,319.200 324.991,319.200 325.787 C 319.200 326.124,319.020 326.400,318.800 326.400 C 318.541 326.400,318.400 331.467,318.400 340.800 C 318.400 356.908,318.513 356.381,315.648 353.600 C 314.741 352.720,313.841 352.000,313.648 352.000 C 313.455 352.000,312.555 351.280,311.648 350.400 C 310.741 349.520,309.886 348.800,309.748 348.800 C 309.610 348.800,308.834 348.215,308.024 347.500 C 307.213 346.785,305.855 345.660,305.004 345.000 C 304.154 344.340,303.233 343.575,302.958 343.300 C 302.682 343.025,302.250 342.800,301.997 342.800 C 301.744 342.800,300.846 342.080,300.000 341.200 C 299.154 340.320,298.254 339.600,298.000 339.600 C 297.746 339.600,296.846 338.880,296.000 338.000 C 295.154 337.120,294.254 336.400,294.000 336.400 C 293.746 336.400,292.846 335.680,292.000 334.800 C 291.154 333.920,290.359 333.200,290.232 333.200 C 290.106 333.200,289.334 332.570,288.518 331.800 C 287.701 331.030,286.906 330.400,286.751 330.400 C 286.596 330.400,285.688 329.685,284.734 328.811 C 283.780 327.937,282.775 327.217,282.500 327.211 C 282.226 327.205,281.259 326.480,280.352 325.600 C 279.445 324.720,278.495 324.000,278.240 324.000 C 277.985 324.000,277.517 323.640,277.200 323.200 C 276.883 322.760,276.303 322.400,275.912 322.400 C 275.520 322.400,275.200 322.220,275.200 322.000 C 275.200 321.780,274.581 321.600,273.824 321.600 C 273.067 321.600,272.336 321.420,272.200 321.200 C 272.037 320.936,253.204 320.800,217.000 320.800 C 180.796 320.800,161.963 320.664,161.800 320.400 C 161.664 320.180,161.130 320.000,160.614 320.000 C 159.570 320.000,156.622 318.580,155.425 317.500 C 154.998 317.115,154.500 316.800,154.317 316.800 C 153.892 316.800,148.800 311.720,148.800 311.296 C 148.800 311.120,148.440 310.717,148.000 310.400 C 147.560 310.083,147.200 309.503,147.200 309.112 C 147.200 308.720,147.020 308.400,146.800 308.400 C 146.580 308.400,146.400 308.040,146.400 307.600 C 146.400 307.160,146.220 306.800,146.000 306.800 C 145.780 306.800,145.600 306.260,145.600 305.600 C 145.600 304.940,145.420 304.400,145.200 304.400 C 144.975 304.400,144.800 303.275,144.800 301.824 C 144.800 300.407,144.620 299.136,144.400 299.000 C 144.137 298.837,144.000 281.929,144.000 249.576 L 144.000 200.400 192.176 200.400 C 223.863 200.400,240.437 200.263,240.600 200.000 C 240.736 199.780,241.557 199.600,242.424 199.600 C 243.291 199.600,244.000 199.420,244.000 199.200 C 244.000 198.980,244.540 198.800,245.200 198.800 C 245.860 198.800,246.400 198.620,246.400 198.400 C 246.400 198.180,246.760 198.000,247.200 198.000 C 247.640 198.000,248.000 197.820,248.000 197.600 C 248.000 197.380,248.360 197.200,248.800 197.200 C 249.240 197.200,249.600 197.020,249.600 196.800 C 249.600 196.580,249.960 196.400,250.400 196.400 C 250.840 196.400,251.200 196.220,251.200 196.000 C 251.200 195.780,251.560 195.600,252.000 195.600 C 252.440 195.600,252.800 195.420,252.800 195.200 C 252.800 194.980,253.070 194.800,253.400 194.800 C 253.730 194.800,254.000 194.620,254.000 194.400 C 254.000 194.180,254.177 194.000,254.393 194.000 C 255.040 194.000,261.183 188.454,261.194 187.860 C 261.197 187.674,261.740 187.017,262.400 186.400 C 263.060 185.783,263.600 184.991,263.600 184.640 C 263.600 184.288,263.780 184.000,264.000 184.000 C 264.220 184.000,264.400 183.764,264.400 183.475 C 264.400 183.187,264.760 182.564,265.200 182.092 C 265.640 181.620,266.000 180.967,266.000 180.640 C 266.000 180.314,266.180 179.936,266.400 179.800 C 266.620 179.664,266.800 179.113,266.800 178.576 C 266.800 178.039,266.980 177.600,267.200 177.600 C 267.420 177.600,267.600 177.161,267.600 176.624 C 267.600 176.087,267.780 175.536,268.000 175.400 C 268.220 175.264,268.400 174.638,268.400 174.010 C 268.400 173.381,268.625 172.775,268.900 172.663 C 269.879 172.263,334.960 172.658,337.000 173.076 M246.612 203.324 C 245.225 204.163,243.600 206.061,243.600 206.842 C 243.600 207.259,243.420 207.600,243.200 207.600 C 242.980 207.600,242.800 208.140,242.800 208.800 C 242.800 209.460,242.665 210.001,242.500 210.003 C 242.094 210.007,241.200 211.986,241.200 212.880 C 241.200 213.276,241.020 213.600,240.800 213.600 C 240.580 213.600,240.400 213.960,240.400 214.400 C 240.400 214.840,240.220 215.200,240.000 215.200 C 239.780 215.200,239.600 215.549,239.600 215.976 C 239.600 216.403,239.420 216.864,239.200 217.000 C 238.980 217.136,238.800 217.687,238.800 218.224 C 238.800 218.761,238.620 219.200,238.400 219.200 C 238.180 219.200,238.000 219.560,238.000 220.000 C 238.000 220.440,237.820 220.800,237.600 220.800 C 237.380 220.800,237.200 221.149,237.200 221.576 C 237.200 222.003,237.020 222.464,236.800 222.600 C 236.580 222.736,236.400 223.287,236.400 223.824 C 236.400 224.361,236.220 224.800,236.000 224.800 C 235.780 224.800,235.600 225.160,235.600 225.600 C 235.600 226.040,235.420 226.400,235.200 226.400 C 234.980 226.400,234.800 226.850,234.800 227.400 C 234.800 227.950,234.620 228.400,234.400 228.400 C 234.180 228.400,234.000 228.672,234.000 229.005 C 234.000 229.338,233.820 229.968,233.600 230.405 C 233.380 230.842,233.020 231.558,232.800 231.995 C 232.580 232.432,232.400 233.062,232.400 233.395 C 232.400 233.728,232.220 234.000,232.000 234.000 C 231.780 234.000,231.600 234.272,231.600 234.605 C 231.600 234.938,231.420 235.568,231.200 236.005 C 230.980 236.442,230.620 237.158,230.400 237.595 C 230.180 238.032,230.000 238.662,230.000 238.995 C 230.000 239.328,229.853 239.600,229.672 239.600 C 229.492 239.600,229.100 240.500,228.800 241.600 C 228.500 242.700,228.124 243.600,227.963 243.600 C 227.802 243.600,227.549 244.320,227.400 245.200 C 227.251 246.080,226.966 246.800,226.765 246.800 C 226.564 246.800,226.400 247.250,226.400 247.800 C 226.400 248.350,226.220 248.800,226.000 248.800 C 225.780 248.800,225.600 249.160,225.600 249.600 C 225.600 250.040,225.420 250.400,225.200 250.400 C 224.980 250.400,224.800 250.940,224.800 251.600 C 224.800 252.260,224.620 252.800,224.400 252.800 C 224.180 252.800,224.000 253.160,224.000 253.600 C 224.000 254.040,223.820 254.400,223.600 254.400 C 223.380 254.400,223.200 254.760,223.200 255.200 C 223.200 255.640,223.020 256.000,222.800 256.000 C 222.580 256.000,222.400 256.540,222.400 257.200 C 222.400 257.860,222.220 258.400,222.000 258.400 C 221.780 258.400,221.600 258.760,221.600 259.200 C 221.600 259.640,221.420 260.000,221.200 260.000 C 220.980 260.000,220.800 260.349,220.800 260.776 C 220.800 261.203,220.620 261.664,220.400 261.800 C 220.180 261.936,220.000 262.397,220.000 262.824 C 220.000 263.251,219.820 263.600,219.600 263.600 C 219.380 263.600,219.200 263.949,219.200 264.376 C 219.200 264.803,219.020 265.264,218.800 265.400 C 218.580 265.536,218.400 266.087,218.400 266.624 C 218.400 267.161,218.220 267.600,218.000 267.600 C 217.780 267.600,217.600 267.960,217.600 268.400 C 217.600 268.840,217.420 269.200,217.200 269.200 C 216.980 269.200,216.800 269.549,216.800 269.976 C 216.800 270.403,216.620 270.864,216.400 271.000 C 216.180 271.136,216.000 271.687,216.000 272.224 C 216.000 272.761,215.820 273.200,215.600 273.200 C 215.380 273.200,215.200 273.560,215.200 274.000 C 215.200 274.440,215.020 274.800,214.800 274.800 C 214.580 274.800,214.400 275.143,214.400 275.562 C 214.400 276.221,213.914 277.389,212.350 280.495 C 211.431 282.318,211.944 286.949,213.238 288.519 C 215.078 290.752,220.115 292.232,221.000 290.800 C 221.136 290.580,221.578 290.400,221.982 290.400 C 222.997 290.400,225.200 287.788,225.200 286.586 C 225.200 286.044,225.380 285.600,225.600 285.600 C 225.820 285.600,226.000 285.240,226.000 284.800 C 226.000 284.360,226.180 284.000,226.400 284.000 C 226.620 284.000,226.800 283.651,226.800 283.224 C 226.800 282.797,226.980 282.336,227.200 282.200 C 227.420 282.064,227.600 281.513,227.600 280.976 C 227.600 280.439,227.780 280.000,228.000 280.000 C 228.220 280.000,228.400 279.640,228.400 279.200 C 228.400 278.760,228.580 278.400,228.800 278.400 C 229.020 278.400,229.200 278.128,229.200 277.795 C 229.200 277.462,229.380 276.832,229.600 276.395 C 229.820 275.958,230.180 275.242,230.400 274.805 C 230.620 274.368,230.800 273.738,230.800 273.405 C 230.800 273.072,230.980 272.800,231.200 272.800 C 231.420 272.800,231.600 272.350,231.600 271.800 C 231.600 271.250,231.780 270.800,232.000 270.800 C 232.220 270.800,232.400 270.440,232.400 270.000 C 232.400 269.560,232.580 269.200,232.800 269.200 C 233.020 269.200,233.200 268.862,233.200 268.449 C 233.200 266.829,233.664 266.787,250.447 266.895 L 266.600 267.000 266.727 268.100 C 266.796 268.705,267.021 269.200,267.227 269.200 C 267.432 269.200,267.600 269.560,267.600 270.000 C 267.600 270.440,267.780 270.800,268.000 270.800 C 268.220 270.800,268.400 271.250,268.400 271.800 C 268.400 272.350,268.580 272.800,268.800 272.800 C 269.020 272.800,269.200 273.065,269.200 273.388 C 269.200 273.711,269.560 274.617,270.000 275.400 C 270.440 276.183,270.800 277.179,270.800 277.612 C 270.800 278.045,270.980 278.400,271.200 278.400 C 271.420 278.400,271.600 278.760,271.600 279.200 C 271.600 279.640,271.780 280.000,272.000 280.000 C 272.220 280.000,272.400 280.439,272.400 280.976 C 272.400 281.513,272.580 282.064,272.800 282.200 C 273.020 282.336,273.200 282.797,273.200 283.224 C 273.200 283.651,273.380 284.000,273.600 284.000 C 273.820 284.000,274.000 284.360,274.000 284.800 C 274.000 285.240,274.180 285.600,274.400 285.600 C 274.620 285.600,274.800 286.050,274.800 286.600 C 274.800 287.150,274.980 287.600,275.200 287.600 C 275.420 287.600,275.600 287.788,275.600 288.018 C 275.600 288.649,277.480 290.400,278.158 290.400 C 278.485 290.400,278.864 290.580,279.000 290.800 C 279.682 291.904,284.475 290.926,286.200 289.331 C 288.475 287.228,288.746 282.481,286.813 278.590 C 286.159 277.275,285.619 275.885,285.613 275.500 C 285.606 275.115,285.420 274.800,285.200 274.800 C 284.980 274.800,284.800 274.440,284.800 274.000 C 284.800 273.560,284.620 273.200,284.400 273.200 C 284.180 273.200,284.000 272.761,284.000 272.224 C 284.000 271.687,283.820 271.136,283.600 271.000 C 283.380 270.864,283.200 270.403,283.200 269.976 C 283.200 269.549,283.020 269.200,282.800 269.200 C 282.580 269.200,282.400 268.840,282.400 268.400 C 282.400 267.960,282.220 267.600,282.000 267.600 C 281.780 267.600,281.600 267.161,281.600 266.624 C 281.600 266.087,281.420 265.536,281.200 265.400 C 280.980 265.264,280.800 264.803,280.800 264.376 C 280.800 263.949,280.620 263.600,280.400 263.600 C 280.180 263.600,280.000 263.150,280.000 262.600 C 280.000 262.050,279.820 261.600,279.600 261.600 C 279.380 261.600,279.200 261.240,279.200 260.800 C 279.200 260.360,279.020 260.000,278.800 260.000 C 278.580 260.000,278.400 259.640,278.400 259.200 C 278.400 258.760,278.220 258.400,278.000 258.400 C 277.780 258.400,277.600 257.860,277.600 257.200 C 277.600 256.540,277.420 256.000,277.200 256.000 C 276.980 256.000,276.800 255.640,276.800 255.200 C 276.800 254.760,276.620 254.400,276.400 254.400 C 276.180 254.400,276.000 254.051,276.000 253.624 C 276.000 253.197,275.820 252.736,275.600 252.600 C 275.380 252.464,275.200 251.986,275.200 251.537 C 275.200 251.088,274.951 250.154,274.647 249.460 C 274.342 248.767,273.712 247.347,273.247 246.304 C 272.781 245.262,272.400 244.227,272.400 244.004 C 272.400 243.782,272.220 243.600,272.000 243.600 C 271.780 243.600,271.600 243.161,271.600 242.624 C 271.600 242.087,271.420 241.536,271.200 241.400 C 270.980 241.264,270.800 240.803,270.800 240.376 C 270.800 239.949,270.620 239.600,270.400 239.600 C 270.180 239.600,270.000 239.251,270.000 238.824 C 270.000 238.397,269.820 237.936,269.600 237.800 C 269.380 237.664,269.200 237.113,269.200 236.576 C 269.200 236.039,269.020 235.600,268.800 235.600 C 268.580 235.600,268.400 235.240,268.400 234.800 C 268.400 234.360,268.220 234.000,268.000 234.000 C 267.780 234.000,267.600 233.561,267.600 233.024 C 267.600 232.487,267.420 231.936,267.200 231.800 C 266.980 231.664,266.800 231.203,266.800 230.776 C 266.800 230.349,266.620 230.000,266.400 230.000 C 266.180 230.000,266.000 229.640,266.000 229.200 C 266.000 228.760,265.820 228.400,265.600 228.400 C 265.380 228.400,265.200 227.950,265.200 227.400 C 265.200 226.850,265.020 226.400,264.800 226.400 C 264.580 226.400,264.400 226.040,264.400 225.600 C 264.400 225.160,264.220 224.800,264.000 224.800 C 263.780 224.800,263.600 224.361,263.600 223.824 C 263.600 223.287,263.420 222.736,263.200 222.600 C 262.980 222.464,262.800 222.003,262.800 221.576 C 262.800 221.149,262.620 220.800,262.400 220.800 C 262.180 220.800,262.000 220.440,262.000 220.000 C 262.000 219.560,261.820 219.200,261.600 219.200 C 261.380 219.200,261.200 218.660,261.200 218.000 C 261.200 217.340,261.020 216.800,260.800 216.800 C 260.580 216.800,260.400 216.440,260.400 216.000 C 260.400 215.560,260.220 215.200,260.000 215.200 C 259.780 215.200,259.600 214.851,259.600 214.424 C 259.600 213.997,259.436 213.546,259.235 213.422 C 259.034 213.297,258.748 212.477,258.600 211.598 C 258.451 210.719,258.205 210.000,258.052 210.000 C 257.900 210.000,257.541 209.210,257.256 208.244 C 255.977 203.913,250.117 201.204,246.612 203.324 M250.400 229.200 C 250.400 229.640,250.580 230.000,250.800 230.000 C 251.020 230.000,251.200 230.360,251.200 230.800 C 251.200 231.240,251.380 231.600,251.600 231.600 C 251.820 231.600,252.000 232.039,252.000 232.576 C 252.000 233.113,252.180 233.664,252.400 233.800 C 252.620 233.936,252.800 234.397,252.800 234.824 C 252.800 235.251,252.980 235.600,253.200 235.600 C 253.420 235.600,253.600 235.872,253.600 236.205 C 253.600 236.793,253.767 237.218,254.738 239.095 C 254.992 239.587,255.200 240.262,255.200 240.595 C 255.200 240.928,255.380 241.200,255.600 241.200 C 255.820 241.200,256.000 241.650,256.000 242.200 C 256.000 242.750,256.180 243.200,256.400 243.200 C 256.620 243.200,256.800 243.560,256.800 244.000 C 256.800 244.440,256.980 244.800,257.200 244.800 C 257.420 244.800,257.600 245.160,257.600 245.600 C 257.600 246.040,257.780 246.400,258.000 246.400 C 258.220 246.400,258.400 246.940,258.400 247.600 C 258.400 248.260,258.580 248.800,258.800 248.800 C 259.020 248.800,259.200 249.160,259.200 249.600 C 259.200 250.040,259.360 250.400,259.555 250.400 C 259.750 250.400,259.988 250.940,260.085 251.600 L 260.261 252.800 249.927 252.800 C 240.211 252.800,239.615 252.758,239.963 252.100 C 240.949 250.233,241.600 248.380,241.600 247.440 C 241.600 246.868,241.780 246.400,242.000 246.400 C 242.220 246.400,242.400 246.040,242.400 245.600 C 242.400 245.160,242.580 244.800,242.800 244.800 C 243.020 244.800,243.200 244.440,243.200 244.000 C 243.200 243.560,243.380 243.200,243.600 243.200 C 243.820 243.200,244.000 242.750,244.000 242.200 C 244.000 241.650,244.180 241.200,244.400 241.200 C 244.620 241.200,244.800 240.840,244.800 240.400 C 244.800 239.960,244.980 239.600,245.200 239.600 C 245.420 239.600,245.600 239.161,245.600 238.624 C 245.600 238.087,245.780 237.536,246.000 237.400 C 246.220 237.264,246.400 236.803,246.400 236.376 C 246.400 235.949,246.580 235.600,246.800 235.600 C 247.020 235.600,247.200 235.240,247.200 234.800 C 247.200 234.360,247.380 234.000,247.600 234.000 C 247.820 234.000,248.000 233.460,248.000 232.800 C 248.000 232.140,248.180 231.600,248.400 231.600 C 248.620 231.600,248.800 231.240,248.800 230.800 C 248.800 230.360,248.980 230.000,249.200 230.000 C 249.420 230.000,249.600 229.640,249.600 229.200 C 249.600 228.760,249.780 228.400,250.000 228.400 C 250.220 228.400,250.400 228.760,250.400 229.200 " stroke="none" fill="currentColor" fill-rule="evenodd"/>
    <path id="path1" d="" stroke="none" fill="#383434" fill-rule="evenodd"/>
    <path id="path2" d="" stroke="none" fill="#383434" fill-rule="evenodd"/>
    <path id="path3" d="" stroke="none" fill="#383434" fill-rule="evenodd"/>
    <path id="path4" d="" stroke="none" fill="#383434" fill-rule="evenodd"/>
  </g>

</symbol>
</svg>