<?xml version="1.0" encoding="utf-8"?>
<svg xmlns="http://www.w3.org/2000/svg">
<symbol id="questions" viewBox="0 0 100.000000 86.000000">
  <metadata>
    Created by potrace 1.16, written by Peter Selinger 2001-2019
  </metadata>
  <g transform="translate(0.000000,86.000000) scale(0.100000,-0.100000)" fill="currentColor" stroke="none">
    <path d="M361 834 c-19 -24 -21 -40 -21 -170 l0 -144 -100 0 -100 0 0 -25 0
-25 100 0 c82 0 100 -3 100 -15 0 -12 -18 -15 -100 -15 l-100 0 0 -30 0 -30
100 0 c98 0 102 -1 125 -27 23 -28 23 -28 178 -31 l154 -3 64 -65 c35 -35 67
-64 71 -64 4 0 8 29 8 65 l0 65 39 0 c50 0 99 18 111 40 6 11 10 115 10 239 0
208 -1 222 -20 241 -19 19 -33 20 -309 20 l-290 0 -20 -26z m569 -239 l0 -195
-80 0 c-75 0 -80 -1 -80 -22 l0 -21 -23 21 c-22 21 -33 22 -180 22 l-157 0 0
195 0 195 260 0 260 0 0 -195z"/>
    <path d="M43 670 c-39 -16 -43 -40 -43 -269 0 -263 -1 -261 100 -261 l60 0 0
-72 0 -72 73 72 72 72 157 0 157 0 20 26 c13 17 21 41 21 65 0 38 -1 39 -35
39 -32 0 -35 -2 -35 -30 l0 -30 -157 0 c-147 0 -158 -1 -180 -22 l-23 -21 0
21 c0 21 -5 22 -80 22 l-80 0 2 198 3 197 103 3 102 3 0 34 0 35 -107 -1 c-60
0 -118 -4 -130 -9z"/>
  </g>

</symbol>
</svg>