<?xml version="1.0" encoding="utf-8"?>
<svg xmlns="http://www.w3.org/2000/svg">
  <symbol fill="none" xmlns="http://www.w3.org/2000/svg" viewBox="0 0 15 16" id="refresh-browse">
    <path fill-rule="evenodd" clip-rule="evenodd" d="M1.38477 0C1.64998 0 1.90434 0.105357 2.09187 0.292893C2.27941 0.48043 2.38477 0.734784 2.38477 1V3.101C3.21681 2.25227 4.2512 1.62931 5.39051 1.29078C6.52982 0.952259 7.73655 0.909318 8.89705 1.16601C10.0575 1.42269 11.1336 1.97056 12.0239 2.758C12.9141 3.54544 13.5893 4.54654 13.9858 5.667C14.0339 5.79176 14.0565 5.92489 14.0522 6.05854C14.048 6.19218 14.017 6.32361 13.961 6.44506C13.9051 6.56651 13.8254 6.67551 13.7266 6.76561C13.6278 6.85571 13.5119 6.92508 13.3859 6.96963C13.2598 7.01417 13.1261 7.03298 12.9926 7.02494C12.8591 7.0169 12.7286 6.98217 12.6088 6.92282C12.489 6.86346 12.3823 6.78068 12.295 6.67937C12.2078 6.57806 12.1417 6.46029 12.1008 6.333C11.7989 5.47982 11.2712 4.72451 10.5739 4.14758C9.87667 3.57064 9.03594 3.19369 8.14133 3.05688C7.24672 2.92008 6.33175 3.02855 5.49392 3.37074C4.6561 3.71293 3.92681 4.27602 3.38377 5H6.38477C6.64998 5 6.90434 5.10536 7.09187 5.29289C7.27941 5.48043 7.38477 5.73478 7.38477 6C7.38477 6.26522 7.27941 6.51957 7.09187 6.70711C6.90434 6.89464 6.64998 7 6.38477 7H1.38477C1.11955 7 0.865195 6.89464 0.677659 6.70711C0.490122 6.51957 0.384766 6.26522 0.384766 6V1C0.384766 0.734784 0.490122 0.48043 0.677659 0.292893C0.865195 0.105357 1.11955 0 1.38477 0ZM1.39277 9.057C1.5166 9.01326 1.64784 8.99434 1.77899 9.00133C1.91014 9.00831 2.03862 9.04106 2.15711 9.09771C2.2756 9.15435 2.38177 9.23378 2.46956 9.33146C2.55735 9.42914 2.62504 9.54316 2.66877 9.667C2.97063 10.5202 3.49831 11.2755 4.19558 11.8524C4.89286 12.4294 5.73359 12.8063 6.6282 12.9431C7.52281 13.0799 8.43778 12.9714 9.27561 12.6293C10.1134 12.2871 10.8427 11.724 11.3858 11H8.38477C8.11955 11 7.8652 10.8946 7.67766 10.7071C7.49012 10.5196 7.38477 10.2652 7.38477 10C7.38477 9.73478 7.49012 9.48043 7.67766 9.29289C7.8652 9.10536 8.11955 9 8.38477 9H13.3848C13.65 9 13.9043 9.10536 14.0919 9.29289C14.2794 9.48043 14.3848 9.73478 14.3848 10V15C14.3848 15.2652 14.2794 15.5196 14.0919 15.7071C13.9043 15.8946 13.65 16 13.3848 16C13.1195 16 12.8652 15.8946 12.6777 15.7071C12.4901 15.5196 12.3848 15.2652 12.3848 15V12.899C11.5527 13.7477 10.5183 14.3707 9.37902 14.7092C8.23971 15.0477 7.03298 15.0907 5.87248 14.834C4.71199 14.5773 3.63594 14.0294 2.74568 13.242C1.85541 12.4546 1.18024 11.4535 0.783766 10.333C0.740026 10.2092 0.721108 10.0779 0.728093 9.94678C0.735077 9.81563 0.767827 9.68714 0.824471 9.56865C0.881116 9.45016 0.960547 9.34399 1.05823 9.2562C1.15591 9.16841 1.26992 9.10072 1.39377 9.057H1.39277Z" fill="currentColor"></path>
  </symbol>
</svg>