<?xml version="1.0" encoding="utf-8"?>
<svg xmlns="http://www.w3.org/2000/svg">
  <symbol fill="none" xmlns="http://www.w3.org/2000/svg" viewBox="0 0 16 16" id="remove">
    <path fill-rule="evenodd" clip-rule="evenodd" d="M13.4938 1.01785H11.1394L10.1086 0H5.7345L4.7516 0.971907H2.50613C1.68006 0.971907 1.00781 1.63816 1.00781 2.45724V3.99551H14.9921V2.50318C14.9921 1.68411 14.3198 1.01785 13.4938 1.01785ZM13.9932 2.99663H2.00669V2.45724C2.00669 2.18854 2.23144 1.97078 2.50613 1.97078H5.16114L6.14503 0.998876H9.70003L10.7299 2.01673H13.4938C13.7685 2.01673 13.9932 2.23549 13.9932 2.50318V2.99663ZM3.02155 14.5876L3.00557 4.99338L2.00669 4.99538L2.02267 14.5886C2.02267 15.3667 2.69491 16 3.52099 16H12.5109C13.3369 16 14.0092 15.3667 14.0092 14.5876L13.9932 4.99338L12.9943 4.99538L13.0103 14.5886C13.0103 14.8123 12.7816 15.0011 12.5109 15.0011H3.52099C3.24929 15.0011 3.02155 14.8113 3.02155 14.5876ZM4.50388 4.99438H5.50276V13.9843H4.50388V4.99438ZM8.49439 4.99438H7.49551V13.9843H8.49439V4.99438ZM10.4971 4.99438H11.496V13.9843H10.4971V4.99438Z" fill="currentColor"></path>
    <mask id="mask0_3166_77232" maskUnits="userSpaceOnUse" x="1" y="0" width="14" height="16">
      <path fill-rule="evenodd" clip-rule="evenodd" d="M13.4938 1.01785H11.1394L10.1086 0H5.7345L4.7516 0.971907H2.50613C1.68006 0.971907 1.00781 1.63816 1.00781 2.45724V3.99551H14.9921V2.50318C14.9921 1.68411 14.3198 1.01785 13.4938 1.01785ZM13.9932 2.99663H2.00669V2.45724C2.00669 2.18854 2.23144 1.97078 2.50613 1.97078H5.16114L6.14503 0.998876H9.70003L10.7299 2.01673H13.4938C13.7685 2.01673 13.9932 2.23549 13.9932 2.50318V2.99663ZM3.02155 14.5876L3.00557 4.99338L2.00669 4.99538L2.02267 14.5886C2.02267 15.3667 2.69491 16 3.52099 16H12.5109C13.3369 16 14.0092 15.3667 14.0092 14.5876L13.9932 4.99338L12.9943 4.99538L13.0103 14.5886C13.0103 14.8123 12.7816 15.0011 12.5109 15.0011H3.52099C3.24929 15.0011 3.02155 14.8113 3.02155 14.5876ZM4.50388 4.99438H5.50276V13.9843H4.50388V4.99438ZM8.49439 4.99438H7.49551V13.9843H8.49439V4.99438ZM10.4971 4.99438H11.496V13.9843H10.4971V4.99438Z" fill="white"></path>
    </mask>
  </symbol>
</svg>