<?xml version="1.0" encoding="utf-8"?>
<svg xmlns="http://www.w3.org/2000/svg">
<symbol id="schema_filter" viewBox="0 0 24 24">
<path d="M6.99991 5C6.99991 4.73478 6.89456 4.48043 6.70702 4.29289C6.51948 4.10536 6.26513 4 5.99991 4C5.7347 4 5.48034 4.10536 5.29281 4.29289C5.10527 4.48043 4.99991 4.73478 4.99991 5V12.268C4.6959 12.4435 4.44344 12.696 4.26792 13C4.0924 13.3041 4 13.6489 4 14C4 14.3511 4.0924 14.6959 4.26792 15C4.44344 15.304 4.6959 15.5565 4.99991 15.732V17C4.99991 17.2652 5.10527 17.5196 5.29281 17.7071C5.48034 17.8946 5.7347 18 5.99991 18C6.26513 18 6.51948 17.8946 6.70702 17.7071C6.89456 17.5196 6.99991 17.2652 6.99991 17V15.732C7.30393 15.5565 7.55638 15.304 7.7319 15C7.90742 14.6959 7.99982 14.3511 7.99982 14C7.99982 13.6489 7.90742 13.3041 7.7319 13C7.55638 12.696 7.30393 12.4435 6.99991 12.268V5ZM12.9999 5C12.9999 4.73478 12.8946 4.48043 12.707 4.29289C12.5195 4.10536 12.2651 4 11.9999 4C11.7347 4 11.4803 4.10536 11.2928 4.29289C11.1053 4.48043 10.9999 4.73478 10.9999 5V6.268C10.6959 6.44354 10.4434 6.69602 10.2679 7.00004C10.0924 7.30407 10 7.64894 10 8C10 8.35106 10.0924 8.69593 10.2679 8.99996C10.4434 9.30398 10.6959 9.55646 10.9999 9.732V17C10.9999 17.2652 11.1053 17.5196 11.2928 17.7071C11.4803 17.8946 11.7347 18 11.9999 18C12.2651 18 12.5195 17.8946 12.707 17.7071C12.8946 17.5196 12.9999 17.2652 12.9999 17V9.732C13.3039 9.55646 13.5564 9.30398 13.7319 8.99996C13.9074 8.69593 13.9998 8.35106 13.9998 8C13.9998 7.64894 13.9074 7.30407 13.7319 7.00004C13.5564 6.69602 13.3039 6.44354 12.9999 6.268V5ZM17.9999 4C18.2651 4 18.5195 4.10536 18.707 4.29289C18.8946 4.48043 18.9999 4.73478 18.9999 5V12.268C19.3039 12.4435 19.5564 12.696 19.7319 13C19.9074 13.3041 19.9998 13.6489 19.9998 14C19.9998 14.3511 19.9074 14.6959 19.7319 15C19.5564 15.304 19.3039 15.5565 18.9999 15.732V17C18.9999 17.2652 18.8946 17.5196 18.707 17.7071C18.5195 17.8946 18.2651 18 17.9999 18C17.7347 18 17.4803 17.8946 17.2928 17.7071C17.1053 17.5196 16.9999 17.2652 16.9999 17V15.732C16.6959 15.5565 16.4434 15.304 16.2679 15C16.0924 14.6959 16 14.3511 16 14C16 13.6489 16.0924 13.3041 16.2679 13C16.4434 12.696 16.6959 12.4435 16.9999 12.268V5C16.9999 4.73478 17.1053 4.48043 17.2928 4.29289C17.4803 4.10536 17.7347 4 17.9999 4Z" fill="currentColor"/>

</symbol>
</svg>