<?xml version="1.0" encoding="utf-8"?>
<svg xmlns="http://www.w3.org/2000/svg">
    <symbol fill="none" xmlns="http://www.w3.org/2000/svg" viewBox="0 0 24 24" id="search">
    <path fill-rule="evenodd" clip-rule="evenodd" d="M4 10.5C4 6.916 6.916 4 10.5 4C14.084 4 17 6.916 17 10.5C17 12.29 16.272 13.914 15.097 15.091C15.096 15.092 15.095 15.092 15.094 15.093C15.093 15.094 15.093 15.096 15.091 15.097C13.914 16.271 12.291 17 10.5 17C6.916 17 4 14.084 4 10.5ZM21.707 20.293L17.169 15.754C18.312 14.306 19 12.483 19 10.5C19 5.813 15.187 2 10.5 2C5.813 2 2 5.813 2 10.5C2 15.187 5.813 19 10.5 19C12.483 19 14.307 18.312 15.755 17.168L20.293 21.707C20.488 21.902 20.744 22 21 22C21.256 22 21.512 21.902 21.707 21.707C22.098 21.316 22.098 20.684 21.707 20.293Z" fill="currentColor"></path>
    <mask id="mask0_2749_73720" maskUnits="userSpaceOnUse" x="2" y="2" width="20" height="20">
      <path fill-rule="evenodd" clip-rule="evenodd" d="M4 10.5C4 6.916 6.916 4 10.5 4C14.084 4 17 6.916 17 10.5C17 12.29 16.272 13.914 15.097 15.091C15.096 15.092 15.095 15.092 15.094 15.093C15.093 15.094 15.093 15.096 15.091 15.097C13.914 16.271 12.291 17 10.5 17C6.916 17 4 14.084 4 10.5ZM21.707 20.293L17.169 15.754C18.312 14.306 19 12.483 19 10.5C19 5.813 15.187 2 10.5 2C5.813 2 2 5.813 2 10.5C2 15.187 5.813 19 10.5 19C12.483 19 14.307 18.312 15.755 17.168L20.293 21.707C20.488 21.902 20.744 22 21 22C21.256 22 21.512 21.902 21.707 21.707C22.098 21.316 22.098 20.684 21.707 20.293Z" fill="white"></path>
    </mask>
  </symbol>
</svg>