<?xml version="1.0" encoding="utf-8"?>
<svg xmlns="http://www.w3.org/2000/svg">
  <symbol fill="none" xmlns="http://www.w3.org/2000/svg" viewBox="0 0 24 24" id="settings">
    <path fill-rule="evenodd" clip-rule="evenodd" d="M19.3995 15H19.4095H19.3995ZM8.34649 18.261C8.70549 18.261 9.06349 18.335 9.40449 18.485C10.3725 18.839 11.0525 19.79 11.0805 20.886V21C11.0805 21.552 11.5285 22 12.0805 22C12.6315 22 13.0805 21.552 13.0805 21V20.83C13.0835 19.77 13.7135 18.817 14.6865 18.401C15.6725 17.964 16.8205 18.172 17.5995 18.937C18.0585 19.394 18.6935 19.395 19.0825 19.003C19.4735 18.612 19.4735 17.978 19.0835 17.587C18.2535 16.741 18.0455 15.597 18.4825 14.601C18.9005 13.633 19.8515 13.005 20.9055 13C21.5515 13 22.0005 12.552 22.0005 12C22.0005 11.449 21.5515 11 21.0005 11H20.8305C19.7695 10.996 18.8175 10.366 18.4005 9.396C18.3645 9.311 18.3395 9.221 18.3285 9.13C17.9945 8.181 18.2225 7.129 18.9345 6.401C18.9385 6.396 19.0035 6.332 19.0085 6.328C19.1925 6.143 19.2965 5.892 19.2965 5.625C19.2955 5.357 19.1925 5.106 19.0035 4.918C18.8125 4.728 18.5615 4.624 18.2955 4.624H18.2945C18.0275 4.624 17.7765 4.728 17.5875 4.917C16.7395 5.748 15.5935 5.953 14.5955 5.515C13.6335 5.103 13.0035 4.151 13.0005 3.093C13.0005 2.449 12.5515 2 12.0005 2C11.4485 2 11.0005 2.449 11.0005 3V3.17C10.9955 4.232 10.3645 5.184 9.39349 5.6C9.30949 5.636 9.22049 5.66 9.13049 5.672C8.18349 6.003 7.12949 5.779 6.40049 5.065C6.14249 4.808 5.89149 4.704 5.62549 4.704H5.62449C5.35749 4.704 5.10649 4.808 4.91849 4.997C4.72649 5.187 4.62349 5.438 4.62349 5.706C4.62449 5.973 4.72749 6.224 4.91749 6.413C5.74649 7.26 5.95449 8.408 5.51449 9.404C5.16149 10.373 4.20949 11.054 3.11349 11.08C3.10549 11.081 3.00749 11.081 3.00049 11.081C2.44849 11.081 2.00049 11.529 2.00049 12.081C2.00049 12.632 2.44849 13.08 3.00049 13.08H3.17049C4.23149 13.085 5.18349 13.716 5.59849 14.687C6.03449 15.673 5.82649 16.82 5.06449 17.6C4.80649 17.857 4.70349 18.108 4.70349 18.376C4.70349 18.643 4.80749 18.894 4.99649 19.082C5.38849 19.475 6.02349 19.475 6.41249 19.083C6.96949 18.537 7.65849 18.261 8.34649 18.261ZM12.0805 24C10.4255 24 9.08049 22.654 9.08049 21C9.07449 20.665 8.90749 20.432 8.65549 20.339C8.35149 20.208 8.07149 20.258 7.87849 20.445C6.65749 21.667 4.75349 21.667 3.58549 20.5C3.01649 19.932 2.70349 19.179 2.70349 18.377C2.70349 17.575 3.01449 16.822 3.58049 16.255C3.82149 16.01 3.87349 15.729 3.76449 15.484C3.65849 15.235 3.42449 15.081 3.16549 15.08H3.00049C1.34549 15.08 0.000488281 13.734 0.000488281 12.081C0.000488281 10.426 1.34549 9.081 3.00049 9.081C3.33549 9.074 3.56849 8.908 3.66149 8.656C3.79349 8.352 3.74149 8.071 3.55449 7.879C2.33349 6.659 2.33249 4.756 3.50049 3.585C4.06849 3.017 4.82149 2.704 5.62349 2.704H5.62549C6.42549 2.704 7.17849 3.015 7.74549 3.581C7.99049 3.822 8.27149 3.873 8.51549 3.765C8.58049 3.737 8.64749 3.716 8.71549 3.701C8.89049 3.583 8.99949 3.383 9.00049 3.166V3C9.00049 1.346 10.3455 0 12.0005 0C13.6545 0 15.0005 1.346 15.0005 3C15.0015 3.346 15.1555 3.579 15.3935 3.681C15.6495 3.793 15.9285 3.742 16.1195 3.556C16.7385 2.937 17.4915 2.624 18.2935 2.624H18.2955C19.0955 2.624 19.8485 2.936 20.4155 3.501C20.9835 4.069 21.2955 4.822 21.2965 5.624C21.2965 6.425 20.9845 7.179 20.4185 7.746C20.1775 7.99 20.1275 8.272 20.2345 8.518C20.2625 8.582 20.2845 8.647 20.2975 8.715C20.4175 8.891 20.6175 9 20.8355 9H21.0005C22.6545 9 24.0005 10.346 24.0005 12C24.0005 13.654 22.6545 15 21.0005 15C20.6555 15.001 20.4205 15.156 20.3185 15.395C20.3165 15.397 20.3155 15.4 20.3145 15.404C20.2065 15.648 20.2575 15.93 20.4445 16.121C21.6675 17.343 21.6685 19.246 20.4985 20.416C19.3295 21.587 17.4255 21.587 16.2545 20.42C16.0085 20.178 15.7265 20.125 15.4845 20.235C15.2355 20.342 15.0815 20.574 15.0805 20.833V21C15.0805 22.654 13.7345 24 12.0805 24ZM12.0005 10C10.8975 10 10.0005 10.897 10.0005 12C10.0005 13.103 10.8975 14 12.0005 14C13.1025 14 14.0005 13.103 14.0005 12C14.0005 10.897 13.1025 10 12.0005 10ZM12.0005 16C9.79449 16 8.00049 14.206 8.00049 12C8.00049 9.795 9.79449 8 12.0005 8C14.2065 8 16.0005 9.795 16.0005 12C16.0005 14.206 14.2065 16 12.0005 16Z" fill="currentColor"></path>
    <mask id="mask0_2197_70815" maskUnits="userSpaceOnUse" x="0" y="0" width="25" height="24">
      <path fill-rule="evenodd" clip-rule="evenodd" d="M19.3995 15H19.4095H19.3995ZM8.34649 18.261C8.70549 18.261 9.06349 18.335 9.40449 18.485C10.3725 18.839 11.0525 19.79 11.0805 20.886V21C11.0805 21.552 11.5285 22 12.0805 22C12.6315 22 13.0805 21.552 13.0805 21V20.83C13.0835 19.77 13.7135 18.817 14.6865 18.401C15.6725 17.964 16.8205 18.172 17.5995 18.937C18.0585 19.394 18.6935 19.395 19.0825 19.003C19.4735 18.612 19.4735 17.978 19.0835 17.587C18.2535 16.741 18.0455 15.597 18.4825 14.601C18.9005 13.633 19.8515 13.005 20.9055 13C21.5515 13 22.0005 12.552 22.0005 12C22.0005 11.449 21.5515 11 21.0005 11H20.8305C19.7695 10.996 18.8175 10.366 18.4005 9.396C18.3645 9.311 18.3395 9.221 18.3285 9.13C17.9945 8.181 18.2225 7.129 18.9345 6.401C18.9385 6.396 19.0035 6.332 19.0085 6.328C19.1925 6.143 19.2965 5.892 19.2965 5.625C19.2955 5.357 19.1925 5.106 19.0035 4.918C18.8125 4.728 18.5615 4.624 18.2955 4.624H18.2945C18.0275 4.624 17.7765 4.728 17.5875 4.917C16.7395 5.748 15.5935 5.953 14.5955 5.515C13.6335 5.103 13.0035 4.151 13.0005 3.093C13.0005 2.449 12.5515 2 12.0005 2C11.4485 2 11.0005 2.449 11.0005 3V3.17C10.9955 4.232 10.3645 5.184 9.39349 5.6C9.30949 5.636 9.22049 5.66 9.13049 5.672C8.18349 6.003 7.12949 5.779 6.40049 5.065C6.14249 4.808 5.89149 4.704 5.62549 4.704H5.62449C5.35749 4.704 5.10649 4.808 4.91849 4.997C4.72649 5.187 4.62349 5.438 4.62349 5.706C4.62449 5.973 4.72749 6.224 4.91749 6.413C5.74649 7.26 5.95449 8.408 5.51449 9.404C5.16149 10.373 4.20949 11.054 3.11349 11.08C3.10549 11.081 3.00749 11.081 3.00049 11.081C2.44849 11.081 2.00049 11.529 2.00049 12.081C2.00049 12.632 2.44849 13.08 3.00049 13.08H3.17049C4.23149 13.085 5.18349 13.716 5.59849 14.687C6.03449 15.673 5.82649 16.82 5.06449 17.6C4.80649 17.857 4.70349 18.108 4.70349 18.376C4.70349 18.643 4.80749 18.894 4.99649 19.082C5.38849 19.475 6.02349 19.475 6.41249 19.083C6.96949 18.537 7.65849 18.261 8.34649 18.261ZM12.0805 24C10.4255 24 9.08049 22.654 9.08049 21C9.07449 20.665 8.90749 20.432 8.65549 20.339C8.35149 20.208 8.07149 20.258 7.87849 20.445C6.65749 21.667 4.75349 21.667 3.58549 20.5C3.01649 19.932 2.70349 19.179 2.70349 18.377C2.70349 17.575 3.01449 16.822 3.58049 16.255C3.82149 16.01 3.87349 15.729 3.76449 15.484C3.65849 15.235 3.42449 15.081 3.16549 15.08H3.00049C1.34549 15.08 0.000488281 13.734 0.000488281 12.081C0.000488281 10.426 1.34549 9.081 3.00049 9.081C3.33549 9.074 3.56849 8.908 3.66149 8.656C3.79349 8.352 3.74149 8.071 3.55449 7.879C2.33349 6.659 2.33249 4.756 3.50049 3.585C4.06849 3.017 4.82149 2.704 5.62349 2.704H5.62549C6.42549 2.704 7.17849 3.015 7.74549 3.581C7.99049 3.822 8.27149 3.873 8.51549 3.765C8.58049 3.737 8.64749 3.716 8.71549 3.701C8.89049 3.583 8.99949 3.383 9.00049 3.166V3C9.00049 1.346 10.3455 0 12.0005 0C13.6545 0 15.0005 1.346 15.0005 3C15.0015 3.346 15.1555 3.579 15.3935 3.681C15.6495 3.793 15.9285 3.742 16.1195 3.556C16.7385 2.937 17.4915 2.624 18.2935 2.624H18.2955C19.0955 2.624 19.8485 2.936 20.4155 3.501C20.9835 4.069 21.2955 4.822 21.2965 5.624C21.2965 6.425 20.9845 7.179 20.4185 7.746C20.1775 7.99 20.1275 8.272 20.2345 8.518C20.2625 8.582 20.2845 8.647 20.2975 8.715C20.4175 8.891 20.6175 9 20.8355 9H21.0005C22.6545 9 24.0005 10.346 24.0005 12C24.0005 13.654 22.6545 15 21.0005 15C20.6555 15.001 20.4205 15.156 20.3185 15.395C20.3165 15.397 20.3155 15.4 20.3145 15.404C20.2065 15.648 20.2575 15.93 20.4445 16.121C21.6675 17.343 21.6685 19.246 20.4985 20.416C19.3295 21.587 17.4255 21.587 16.2545 20.42C16.0085 20.178 15.7265 20.125 15.4845 20.235C15.2355 20.342 15.0815 20.574 15.0805 20.833V21C15.0805 22.654 13.7345 24 12.0805 24ZM12.0005 10C10.8975 10 10.0005 10.897 10.0005 12C10.0005 13.103 10.8975 14 12.0005 14C13.1025 14 14.0005 13.103 14.0005 12C14.0005 10.897 13.1025 10 12.0005 10ZM12.0005 16C9.79449 16 8.00049 14.206 8.00049 12C8.00049 9.795 9.79449 8 12.0005 8C14.2065 8 16.0005 9.795 16.0005 12C16.0005 14.206 14.2065 16 12.0005 16Z" fill="white"></path>
    </mask>
  </symbol>
</svg>