<?xml version="1.0" encoding="utf-8"?>
<svg xmlns="http://www.w3.org/2000/svg">
<symbol id="sliders" viewBox="0 0 24 24">
<path fill-rule="evenodd" clip-rule="evenodd" d="M5 10C5 10.552 4.553 11 4 11C3.447 11 3 10.552 3 10V3C3 2.448 3.447 2 4 2C4.553 2 5 2.448 5 3V10ZM11 12C11 11.448 11.447 11 12 11C12.553 11 13 11.448 13 12V21C13 21.553 12.553 22 12 22C11.447 22 11 21.553 11 21V12ZM20 13C20.553 13 21 12.553 21 12V3C21 2.448 20.553 2 20 2C19.447 2 19 2.448 19 3V12C19 12.553 19.447 13 20 13ZM0 14C0 13.447 0.447 13 1 13H7C7.553 13 8 13.447 8 14C8 14.553 7.553 15 7 15H5V21C5 21.553 4.553 22 4 22C3.447 22 3 21.553 3 21V15H1C0.447 15 0 14.553 0 14ZM15 7H13V3C13 2.448 12.553 2 12 2C11.447 2 11 2.448 11 3V7H9.00001C8.44701 7 8.00001 7.448 8.00001 8C8.00001 8.552 8.44701 9 9.00001 9H15C15.553 9 16 8.552 16 8C16 7.448 15.553 7 15 7ZM16 16C16 15.447 16.447 15 17 15H23C23.553 15 24 15.447 24 16C24 16.553 23.553 17 23 17H21V21C21 21.553 20.553 22 20 22C19.447 22 19 21.553 19 21V17H17C16.447 17 16 16.553 16 16Z" fill="#524A4A"/>
<mask id="sliders" style="mask-type:alpha" maskUnits="userSpaceOnUse" x="0" y="2" width="24" height="20">
<path fill-rule="evenodd" clip-rule="evenodd" d="M5 10C5 10.552 4.553 11 4 11C3.447 11 3 10.552 3 10V3C3 2.448 3.447 2 4 2C4.553 2 5 2.448 5 3V10ZM11 12C11 11.448 11.447 11 12 11C12.553 11 13 11.448 13 12V21C13 21.553 12.553 22 12 22C11.447 22 11 21.553 11 21V12ZM20 13C20.553 13 21 12.553 21 12V3C21 2.448 20.553 2 20 2C19.447 2 19 2.448 19 3V12C19 12.553 19.447 13 20 13ZM0 14C0 13.447 0.447 13 1 13H7C7.553 13 8 13.447 8 14C8 14.553 7.553 15 7 15H5V21C5 21.553 4.553 22 4 22C3.447 22 3 21.553 3 21V15H1C0.447 15 0 14.553 0 14ZM15 7H13V3C13 2.448 12.553 2 12 2C11.447 2 11 2.448 11 3V7H9.00001C8.44701 7 8.00001 7.448 8.00001 8C8.00001 8.552 8.44701 9 9.00001 9H15C15.553 9 16 8.552 16 8C16 7.448 15.553 7 15 7ZM16 16C16 15.447 16.447 15 17 15H23C23.553 15 24 15.447 24 16C24 16.553 23.553 17 23 17H21V21C21 21.553 20.553 22 20 22C19.447 22 19 21.553 19 21V17H17C16.447 17 16 16.553 16 16Z" fill="white"/>
</mask>
<g mask="url(#sliders)">
<path fill-rule="evenodd" clip-rule="evenodd" d="M0 0H24V24H0V0Z" fill="#787272"/>
</g>

</symbol>
</svg>