<?xml version="1.0" encoding="utf-8"?>
<svg xmlns="http://www.w3.org/2000/svg">
<symbol id="success" viewBox="0 0 63 63">
<path fill-rule="evenodd" clip-rule="evenodd" d="M27.1272 37.686L19.7878 30.3465L17 33.1303L27.1351 43.2615L46.3659 23.9127L43.5781 21.1367L27.1272 37.686Z" fill="currentColor"/>
<path fill-rule="evenodd" clip-rule="evenodd" d="M0 31.5C0 14.1317 14.1317 0 31.5 0C48.8683 0 63 14.1317 63 31.5C63 48.8683 48.8683 63 31.5 63C14.1317 63 0 48.8683 0 31.5ZM3.9375 31.5C3.9375 46.6948 16.3012 59.0625 31.5 59.0625C46.6987 59.0625 59.0625 46.6948 59.0625 31.5C59.0625 16.3052 46.6987 3.9375 31.5 3.9375C16.3012 3.9375 3.9375 16.3052 3.9375 31.5Z" fill="currentColor"/>

</symbol>
</svg>