<?xml version="1.0" encoding="utf-8"?>
<svg xmlns="http://www.w3.org/2000/svg">
<symbol id="suggestion" viewBox="0 0 16 16">
<path d="M5.99967 14.0007C5.99967 14.3673 6.29967 14.6673 6.66634 14.6673H9.33301C9.69967 14.6673 9.99967 14.3673 9.99967 14.0007V13.334H5.99967V14.0007ZM7.99967 1.33398C5.42634 1.33398 3.33301 3.42732 3.33301 6.00065C3.33301 7.58732 4.12634 8.98065 5.33301 9.82732V11.334C5.33301 11.7007 5.63301 12.0007 5.99967 12.0007H9.99967C10.3663 12.0007 10.6663 11.7007 10.6663 11.334V9.82732C11.873 8.98065 12.6663 7.58732 12.6663 6.00065C12.6663 3.42732 10.573 1.33398 7.99967 1.33398ZM9.89967 8.73398L9.33301 9.13398V10.6673H6.66634V9.13398L6.09967 8.73398C5.19967 8.10732 4.66634 7.08732 4.66634 6.00065C4.66634 4.16065 6.15967 2.66732 7.99967 2.66732C9.83967 2.66732 11.333 4.16065 11.333 6.00065C11.333 7.08732 10.7997 8.10732 9.89967 8.73398Z" fill="currentColor"/>

</symbol>
</svg>