<?xml version="1.0" encoding="utf-8"?>
<svg xmlns="http://www.w3.org/2000/svg">
<symbol id="survivorship" viewBox="0 0 100.000000 100.000000">

<g transform="translate(0.000000,100.000000) scale(0.100000,-0.100000)" fill="currentColor" stroke="none">
<path d="M250 971 c0 -28 -1 -29 -66 -33 -60 -4 -70 -7 -95 -36 l-29 -32 0
-396 c0 -430 2 -444 56 -464 14 -6 93 -10 175 -10 l149 0 0 30 0 29 -152 3
-153 3 -3 403 -2 402 60 0 60 0 0 -30 0 -30 188 2 187 3 3 93 3 92 -191 0
-190 0 0 -29z m310 -61 l0 -30 -125 0 -125 0 0 30 0 30 125 0 125 0 0 -30z"/>
<path d="M690 906 c0 -30 3 -35 28 -38 l27 -3 3 -167 2 -168 30 0 30 0 0 171
c0 98 -4 179 -10 190 -12 22 -61 49 -90 49 -16 0 -20 -6 -20 -34z"/>
<path d="M190 655 l0 -35 155 0 155 0 0 35 0 35 -155 0 -155 0 0 -35z"/>
<path d="M190 530 l0 -30 185 0 185 0 0 30 0 30 -185 0 -185 0 0 -30z"/>
<path d="M606 485 c-134 -47 -203 -207 -145 -335 85 -188 345 -201 442 -22 34
63 42 118 27 184 -11 43 -24 63 -69 108 -78 77 -161 99 -255 65z m135 -57 c84
-28 129 -90 129 -178 0 -201 -268 -259 -351 -75 -45 98 4 214 108 250 47 17
71 18 114 3z"/>
<path d="M725 270 c-33 -33 -64 -60 -70 -60 -6 0 -24 13 -40 30 l-29 30 -23
-22 -23 -22 52 -53 c29 -29 57 -53 63 -53 6 0 48 38 95 85 83 83 84 85 65 105
-10 11 -21 20 -24 20 -4 0 -33 -27 -66 -60z"/>
<path d="M190 405 l0 -36 123 3 122 3 3 33 3 32 -125 0 -126 0 0 -35z"/>
</g>

</symbol>
</svg>