<?xml version="1.0" encoding="utf-8"?>
<svg xmlns="http://www.w3.org/2000/svg">
<symbol id="toast-warning" viewBox="0 0 24 22">
<path fill-rule="evenodd" clip-rule="evenodd" d="M3.12336 21.8182C2.57307 21.8117 2.04164 21.6608 1.57416 21.3819C0.846729 20.9466 0.325788 20.2455 0.108816 19.4043C-0.109203 18.5642 0.00295091 17.6873 0.42222 16.934L9.31071 1.57168C9.57485 1.12017 9.93962 0.741374 10.3704 0.471116C11.8515 -0.460131 13.7906 0.0326268 14.6889 1.56626L23.57 16.9188C23.8499 17.4192 23.9945 17.9716 23.9998 18.5284C24.0197 20.3204 22.6256 21.7976 20.8909 21.8182H3.12336ZM13.065 17.8818C13.2 17.7293 13.305 17.5648 13.38 17.3837C13.455 17.2025 13.5 17.0063 13.5 16.8101C13.5 16.4161 13.335 16.0252 13.065 15.7384C12.51 15.1799 11.49 15.1799 10.935 15.7384C10.65 16.0252 10.5 16.4161 10.5 16.8101C10.5 17.0063 10.53 17.2025 10.6035 17.3837C10.68 17.5648 10.8 17.7293 10.935 17.8818C11.22 18.1671 11.595 18.3195 12 18.3195C12.405 18.3195 12.78 18.1671 13.065 17.8818ZM13.5 6.73466V11.8551C13.5 12.563 12.8295 13.1352 12 13.1352C11.1705 13.1352 10.5 12.563 10.5 11.8551V6.73466C10.5 6.02804 11.1705 5.45455 12 5.45455C12.8295 5.45455 13.5 6.02804 13.5 6.73466Z" fill="currentColor"/>
<mask id="mask0" style="mask-type:alpha" maskUnits="userSpaceOnUse" x="0" y="0" width="24" height="22">
<path fill-rule="evenodd" clip-rule="evenodd" d="M3.12336 21.8182C2.57307 21.8117 2.04164 21.6608 1.57416 21.3819C0.846729 20.9466 0.325788 20.2455 0.108816 19.4043C-0.109203 18.5642 0.00295091 17.6873 0.42222 16.934L9.31071 1.57168C9.57485 1.12017 9.93962 0.741374 10.3704 0.471116C11.8515 -0.460131 13.7906 0.0326268 14.6889 1.56626L23.57 16.9188C23.8499 17.4192 23.9945 17.9716 23.9998 18.5284C24.0197 20.3204 22.6256 21.7976 20.8909 21.8182H3.12336ZM13.065 17.8818C13.2 17.7293 13.305 17.5648 13.38 17.3837C13.455 17.2025 13.5 17.0063 13.5 16.8101C13.5 16.4161 13.335 16.0252 13.065 15.7384C12.51 15.1799 11.49 15.1799 10.935 15.7384C10.65 16.0252 10.5 16.4161 10.5 16.8101C10.5 17.0063 10.53 17.2025 10.6035 17.3837C10.68 17.5648 10.8 17.7293 10.935 17.8818C11.22 18.1671 11.595 18.3195 12 18.3195C12.405 18.3195 12.78 18.1671 13.065 17.8818ZM13.5 6.73466V11.8551C13.5 12.563 12.8295 13.1352 12 13.1352C11.1705 13.1352 10.5 12.563 10.5 11.8551V6.73466C10.5 6.02804 11.1705 5.45455 12 5.45455C12.8295 5.45455 13.5 6.02804 13.5 6.73466Z" fill="currentColor"/>
</mask>
<g mask="url(#mask0)">
</g>

</symbol>
</svg>