<?xml version="1.0" encoding="utf-8"?>
<svg xmlns="http://www.w3.org/2000/svg">
<symbol id="toast-success" viewBox="0 0 24 24">
<path fill-rule="evenodd" clip-rule="evenodd" d="M12 24C18.6274 24 24 18.6274 24 12C24 5.37258 18.6274 0 12 0C5.37258 0 0 5.37258 0 12C0 18.6274 5.37258 24 12 24ZM6.3285 14.3187C5.93797 13.9282 5.93797 13.295 6.3285 12.9045L6.89185 12.3411C7.28237 11.9506 7.91554 11.9506 8.30606 12.3411L10.2357 14.2708L16.8629 7.64359C17.2534 7.25306 17.8866 7.25306 18.2771 7.64359L18.8405 8.20694C19.231 8.59747 19.231 9.23063 18.8405 9.62115L10.9428 17.5188C10.5523 17.9093 9.91913 17.9093 9.52861 17.5188L9.52164 17.5118L8.96525 16.9555L6.3285 14.3187Z" fill="currentColor"/>

</symbol>
</svg>