<?xml version="1.0" encoding="utf-8"?>
<svg xmlns="http://www.w3.org/2000/svg">
<symbol id="toast-info" viewBox="0 0 24 24">
<path fill-rule="evenodd" clip-rule="evenodd" d="M24 12C24 18.6274 18.6274 24 12 24C5.37258 24 0 18.6274 0 12C0 5.37258 5.37258 0 12 0C18.6274 0 24 5.37258 24 12ZM13.38 7.31415C13.455 7.13302 13.5 6.93679 13.5 6.74057C13.5 6.3466 13.335 5.95566 13.065 5.66887C12.51 5.11038 11.49 5.11038 10.935 5.66887C10.65 5.95566 10.5 6.3466 10.5 6.74057C10.5 6.93679 10.53 7.13302 10.6035 7.31415C10.68 7.49528 10.8 7.65981 10.935 7.81226C11.22 8.09755 11.595 8.25 12 8.25C12.405 8.25 12.78 8.09755 13.065 7.81226C13.2 7.65981 13.305 7.49528 13.38 7.31415ZM12 10.5C12.8295 10.5 13.5 11.0735 13.5 11.7801V16.9006C13.5 17.6085 12.8295 18.1807 12 18.1807C11.1705 18.1807 10.5 17.6085 10.5 16.9006V11.7801C10.5 11.0735 11.1705 10.5 12 10.5Z" fill="currentColor"/>
<mask id="mask0" style="mask-type:alpha" maskUnits="userSpaceOnUse" x="0" y="0" width="24" height="24">
<path fill-rule="evenodd" clip-rule="evenodd" d="M24 12C24 18.6274 18.6274 24 12 24C5.37258 24 0 18.6274 0 12C0 5.37258 5.37258 0 12 0C18.6274 0 24 5.37258 24 12ZM13.38 7.31415C13.455 7.13302 13.5 6.93679 13.5 6.74057C13.5 6.3466 13.335 5.95566 13.065 5.66887C12.51 5.11038 11.49 5.11038 10.935 5.66887C10.65 5.95566 10.5 6.3466 10.5 6.74057C10.5 6.93679 10.53 7.13302 10.6035 7.31415C10.68 7.49528 10.8 7.65981 10.935 7.81226C11.22 8.09755 11.595 8.25 12 8.25C12.405 8.25 12.78 8.09755 13.065 7.81226C13.2 7.65981 13.305 7.49528 13.38 7.31415ZM12 10.5C12.8295 10.5 13.5 11.0735 13.5 11.7801V16.9006C13.5 17.6085 12.8295 18.1807 12 18.1807C11.1705 18.1807 10.5 17.6085 10.5 16.9006V11.7801C10.5 11.0735 11.1705 10.5 12 10.5Z" fill="currentColor"/>
</mask>
<g mask="url(#mask0)">
</g>

</symbol>
</svg>