<?xml version="1.0" encoding="utf-8"?>
<svg xmlns="http://www.w3.org/2000/svg">
<symbol id="vector" viewBox="0 0 9 16">
<path fill-rule="evenodd" clip-rule="evenodd" d="M0.250187 6.0784C0.0899923 5.89843 0 5.65437 0 5.39989C0 5.14541 0.0899923 4.90135 0.250187 4.72138L3.66819 0.882552C3.82844 0.702634 4.04574 0.601563 4.27233 0.601562C4.49891 0.601562 4.71621 0.702634 4.87646 0.882552L8.29446 4.72138C8.45012 4.90238 8.53625 5.14481 8.5343 5.39644C8.53235 5.64807 8.44249 5.88878 8.28405 6.06671C8.12562 6.24465 7.9113 6.34558 7.68726 6.34777C7.46321 6.34996 7.24736 6.25322 7.0862 6.0784L5.12683 3.8778V14.997C5.12683 15.2515 5.0368 15.4956 4.87655 15.6756C4.7163 15.8556 4.49895 15.9567 4.27233 15.9567C4.0457 15.9567 3.82835 15.8556 3.6681 15.6756C3.50785 15.4956 3.41782 15.2515 3.41782 14.997V3.8778L1.45845 6.0784C1.29821 6.25832 1.0809 6.35939 0.854319 6.35939C0.627736 6.35939 0.410429 6.25832 0.250187 6.0784Z" fill="currentColor"/>

</symbol>
</svg>