<?xml version="1.0" encoding="utf-8"?>
<svg xmlns="http://www.w3.org/2000/svg">
<symbol id="vector-up" viewBox="0 0 10 12">
<path fill-rule="evenodd" clip-rule="evenodd" d="M0.293153 4.28015C0.105447 4.1395 0 3.94877 0 3.74989C0 3.55101 0.105447 3.36028 0.293153 3.21963L4.29816 0.219593C4.48592 0.0789875 4.74055 0 5.00604 0C5.27154 0 5.52617 0.0789875 5.71393 0.219593L9.71894 3.21963C9.90132 3.36109 10.0022 3.55054 9.99996 3.74719C9.99768 3.94384 9.89238 4.13195 9.70674 4.27101C9.5211 4.41007 9.26997 4.48895 9.00745 4.49066C8.74492 4.49236 8.49201 4.41677 8.30317 4.28015L6.0073 2.56037V11.25C6.0073 11.4489 5.90181 11.6397 5.71404 11.7803C5.52627 11.921 5.27159 12 5.00604 12C4.7405 12 4.48582 11.921 4.29805 11.7803C4.11028 11.6397 4.00479 11.4489 4.00479 11.25V2.56037L1.70892 4.28015C1.52116 4.42075 1.26653 4.49974 1.00104 4.49974C0.735542 4.49974 0.480915 4.42075 0.293153 4.28015Z" fill="currentColor"/>

</symbol>
</svg>