<?xml version="1.0" encoding="utf-8"?>
<svg xmlns="http://www.w3.org/2000/svg">
<symbol id="vector-down" viewBox="0 0 10 12">
<path fill-rule="evenodd" clip-rule="evenodd" d="M9.70685 7.71985C9.89455 7.8605 10 8.05123 10 8.25011C10 8.44899 9.89455 8.63972 9.70685 8.78037L5.70184 11.7804C5.51408 11.921 5.25945 12 4.99396 12C4.72846 12 4.47383 11.921 4.28607 11.7804L0.281064 8.78037C0.0986779 8.63891 -0.00224273 8.44946 3.84746e-05 8.25281C0.00232063 8.05616 0.107621 7.86805 0.293261 7.72899C0.478901 7.58993 0.730028 7.51105 0.992553 7.50934C1.25508 7.50763 1.508 7.58323 1.69683 7.71985L3.9927 9.43963L3.9927 0.75001C3.9927 0.551094 4.09819 0.360326 4.28596 0.219672C4.47374 0.0790181 4.72841 -4.60857e-07 4.99396 -4.37642e-07C5.2595 -4.14427e-07 5.51418 0.0790182 5.70195 0.219672C5.88972 0.360326 5.99521 0.551095 5.99521 0.75001L5.99521 9.43963L8.29108 7.71985C8.47884 7.57925 8.73347 7.50026 8.99896 7.50026C9.26446 7.50026 9.51908 7.57925 9.70685 7.71985Z" fill="currentColor"/>

</symbol>
</svg>