<?xml version="1.0" encoding="utf-8"?>
<svg xmlns="http://www.w3.org/2000/svg">
  <symbol fill="none" xmlns="http://www.w3.org/2000/svg" viewBox="0 0 32 33" id="wallet">
    <rect y="0.456543" width="32" height="32" rx="16" fill="currentColor"></rect>
    <path fill-rule="evenodd" clip-rule="evenodd" d="M23 12.9565V10.9985C23 10.1475 22.38 9.45654 21.618 9.45654H9.382C8.62 9.45654 8 10.1475 8 10.9985V21.9145C8 22.7655 8.62 23.4565 9.382 23.4565H21.618C22.38 23.4565 23 22.7655 23 21.9145V19.9565H22V21.9145C22 22.2085 21.825 22.4565 21.618 22.4565H9.382C9.175 22.4565 9 22.2085 9 21.9145V10.9985C9 10.7045 9.175 10.4565 9.382 10.4565H21.618C21.825 10.4565 22 10.7045 22 10.9985V12.9565H23ZM20.489 18.9565C19.116 18.9565 18 17.8405 18 16.4675C18 15.0725 19.116 13.9565 20.489 13.9565H24V18.9565H20.489ZM20.489 17.9565H23V14.9565H20.489C19.668 14.9565 19 15.6245 19 16.4455C19 17.2885 19.668 17.9565 20.489 17.9565ZM20.5 16.9565C20.7761 16.9565 21 16.7327 21 16.4565C21 16.1804 20.7761 15.9565 20.5 15.9565C20.2239 15.9565 20 16.1804 20 16.4565C20 16.7327 20.2239 16.9565 20.5 16.9565Z" fill="white"></path>
    <mask id="mask0_1345:44228" maskUnits="userSpaceOnUse" x="8" y="9" width="16" height="15">
      <path fill-rule="evenodd" clip-rule="evenodd" d="M23 12.9565V10.9985C23 10.1475 22.38 9.45654 21.618 9.45654H9.382C8.62 9.45654 8 10.1475 8 10.9985V21.9145C8 22.7655 8.62 23.4565 9.382 23.4565H21.618C22.38 23.4565 23 22.7655 23 21.9145V19.9565H22V21.9145C22 22.2085 21.825 22.4565 21.618 22.4565H9.382C9.175 22.4565 9 22.2085 9 21.9145V10.9985C9 10.7045 9.175 10.4565 9.382 10.4565H21.618C21.825 10.4565 22 10.7045 22 10.9985V12.9565H23ZM20.489 18.9565C19.116 18.9565 18 17.8405 18 16.4675C18 15.0725 19.116 13.9565 20.489 13.9565H24V18.9565H20.489ZM20.489 17.9565H23V14.9565H20.489C19.668 14.9565 19 15.6245 19 16.4455C19 17.2885 19.668 17.9565 20.489 17.9565ZM20.5 16.9565C20.7761 16.9565 21 16.7327 21 16.4565C21 16.1804 20.7761 15.9565 20.5 15.9565C20.2239 15.9565 20 16.1804 20 16.4565C20 16.7327 20.2239 16.9565 20.5 16.9565Z" fill="currentColor"></path>
    </mask>
  </symbol>
</svg>