<?xml version="1.0" encoding="utf-8"?>
<svg xmlns="http://www.w3.org/2000/svg">
<symbol id="warning" viewBox="0 0 12 12">
<path fill-rule="evenodd" clip-rule="evenodd" d="M6.5325 9.5154C6.6 9.43854 6.6525 9.35559 6.69 9.26427C6.7275 9.17295 6.75 9.07402 6.75 8.97509C6.75 8.77647 6.6675 8.57936 6.5325 8.43477C6.255 8.1532 5.745 8.1532 5.4675 8.43477C5.325 8.57936 5.25 8.77647 5.25 8.97509C5.25 9.07402 5.265 9.17295 5.30175 9.26427C5.34 9.35559 5.4 9.43854 5.4675 9.5154C5.61 9.65923 5.7975 9.73609 6 9.73609C6.2025 9.73609 6.39 9.65923 6.5325 9.5154ZM6.75 6.47695V3.89539C6.75 3.53913 6.41475 3.25 6 3.25C5.58525 3.25 5.25 3.53913 5.25 3.89539V6.47695C5.25 6.83385 5.58525 7.12234 6 7.12234C6.41475 7.12234 6.75 6.83385 6.75 6.47695ZM1.56168 11.5C1.28653 11.4967 1.02082 11.4207 0.78708 11.28C0.423364 11.0606 0.162894 10.7071 0.0544081 10.283C-0.0546017 9.85947 0.00147546 9.41733 0.21111 9.03757L4.65536 1.29239C4.65588 1.2913 4.65588 1.29075 4.6564 1.28965C4.78743 1.06475 4.96981 0.873776 5.18521 0.737521C5.92574 0.268017 6.8953 0.516449 7.34444 1.28965L11.785 9.02991C11.925 9.28217 11.9973 9.5607 11.9999 9.84141C12.0099 10.7449 11.3128 11.4896 10.4455 11.5H1.56168Z" fill="currentColor"/>

</symbol>
</svg>