<?xml version="1.0" encoding="utf-8"?>
<svg xmlns="http://www.w3.org/2000/svg">
  <symbol fill="none" xmlns="http://www.w3.org/2000/svg" viewBox="0 0 16 17" id="xls">
    <path fill-rule="evenodd" clip-rule="evenodd" d="M3.5309 16.6677C2.68696 16.6677 2 16.0228 2 15.2298V2.10563C2 1.31268 2.68596 0.667725 3.5309 0.667725H9.57653L13.9993 4.95646V15.2298C13.9993 16.0228 13.3133 16.6677 12.4683 16.6677H3.5309ZM12.2654 4.66847L9.9995 2.47061V4.66847H12.2654ZM2.99994 2.10563C2.99994 1.86865 3.24292 1.66766 3.5309 1.66766H8.99956V5.66741H12.9993V15.2288C12.9993 15.4658 12.7563 15.6668 12.4683 15.6668H3.5309C3.24292 15.6668 2.99994 15.4668 2.99994 15.2288V2.10563ZM4.78883 14.1379L4.57284 14.6599V14.6589H3.74489L4.53684 13.1549L3.78989 11.733H4.65383L4.85182 12.211C4.89039 12.293 4.92897 12.386 4.97167 12.4888L4.97168 12.4888C4.99871 12.554 5.02741 12.6231 5.05881 12.696H5.07681C5.1408 12.508 5.2038 12.346 5.2578 12.211L5.42779 11.734H6.25573L5.50878 13.1919L6.30073 14.6599H5.43679L5.2038 14.1379C5.1318 13.9859 5.06781 13.8329 4.99581 13.6519H4.97781C4.91664 13.8295 4.85352 13.9818 4.79133 14.1318L4.79133 14.1319L4.79132 14.1319L4.78883 14.1379ZM9.18055 14.0109H8.07362V11.734H7.29967V14.6599H9.18055V14.0109ZM10.1695 13.7639C10.3765 13.9299 10.6385 14.0469 10.8544 14.0469C11.0894 14.0469 11.1874 13.9709 11.1874 13.8379C11.1874 13.7111 11.0642 13.6625 10.8542 13.5797C10.8341 13.5718 10.8131 13.5636 10.7915 13.5549L10.4275 13.4019C10.1115 13.2759 9.83751 13.011 9.83751 12.588C9.83751 12.088 10.2875 11.679 10.9274 11.679C11.2604 11.679 11.6294 11.805 11.8994 12.071L11.5124 12.556C11.3144 12.417 11.1434 12.345 10.9274 12.345C10.7375 12.345 10.6205 12.412 10.6205 12.543C10.6205 12.6682 10.7561 12.7204 10.9775 12.8056C11.0018 12.8149 11.0271 12.8247 11.0534 12.835L11.4084 12.975C11.7724 13.1199 11.9794 13.3719 11.9794 13.7769C11.9794 14.2729 11.5644 14.7128 10.8354 14.7128C10.4665 14.7128 10.0435 14.5779 9.72952 14.2949L10.1695 13.7639Z" fill="currentColor"></path>
    <mask id="mask0_5607_87483" maskUnits="userSpaceOnUse" x="2" y="0" width="12" height="17">
      <path fill-rule="evenodd" clip-rule="evenodd" d="M3.5309 16.6677C2.68696 16.6677 2 16.0228 2 15.2298V2.10563C2 1.31268 2.68596 0.667725 3.5309 0.667725H9.57653L13.9993 4.95646V15.2298C13.9993 16.0228 13.3133 16.6677 12.4683 16.6677H3.5309ZM12.2654 4.66847L9.9995 2.47061V4.66847H12.2654ZM2.99994 2.10563C2.99994 1.86865 3.24292 1.66766 3.5309 1.66766H8.99956V5.66741H12.9993V15.2288C12.9993 15.4658 12.7563 15.6668 12.4683 15.6668H3.5309C3.24292 15.6668 2.99994 15.4668 2.99994 15.2288V2.10563ZM4.78883 14.1379L4.57284 14.6599V14.6589H3.74489L4.53684 13.1549L3.78989 11.733H4.65383L4.85182 12.211C4.89039 12.293 4.92897 12.386 4.97167 12.4888L4.97168 12.4888C4.99871 12.554 5.02741 12.6231 5.05881 12.696H5.07681C5.1408 12.508 5.2038 12.346 5.2578 12.211L5.42779 11.734H6.25573L5.50878 13.1919L6.30073 14.6599H5.43679L5.2038 14.1379C5.1318 13.9859 5.06781 13.8329 4.99581 13.6519H4.97781C4.91664 13.8295 4.85352 13.9818 4.79133 14.1318L4.79133 14.1319L4.79132 14.1319L4.78883 14.1379ZM9.18055 14.0109H8.07362V11.734H7.29967V14.6599H9.18055V14.0109ZM10.1695 13.7639C10.3765 13.9299 10.6385 14.0469 10.8544 14.0469C11.0894 14.0469 11.1874 13.9709 11.1874 13.8379C11.1874 13.7111 11.0642 13.6625 10.8542 13.5797C10.8341 13.5718 10.8131 13.5636 10.7915 13.5549L10.4275 13.4019C10.1115 13.2759 9.83751 13.011 9.83751 12.588C9.83751 12.088 10.2875 11.679 10.9274 11.679C11.2604 11.679 11.6294 11.805 11.8994 12.071L11.5124 12.556C11.3144 12.417 11.1434 12.345 10.9274 12.345C10.7375 12.345 10.6205 12.412 10.6205 12.543C10.6205 12.6682 10.7561 12.7204 10.9775 12.8056C11.0018 12.8149 11.0271 12.8247 11.0534 12.835L11.4084 12.975C11.7724 13.1199 11.9794 13.3719 11.9794 13.7769C11.9794 14.2729 11.5644 14.7128 10.8354 14.7128C10.4665 14.7128 10.0435 14.5779 9.72952 14.2949L10.1695 13.7639Z" fill="white"></path>
    </mask>
  </symbol>
</svg>